<svg width="39" height="37" viewBox="0 0 39 37" fill="none" xmlns="http://www.w3.org/2000/svg">
<path d="M18.8466 25.2661L20.1133 25.2696L20.108 27.1363L22.6414 27.1434L22.6387 28.0767L20.1054 28.0696L20.1002 29.9363L18.8335 29.9327L18.8387 28.066L16.3054 28.0589L16.308 27.1256L18.8414 27.1327L18.8466 25.2661ZM19.4865 22.9345C18.6104 22.9321 17.7867 23.0503 17.0155 23.2892C16.2443 23.536 15.573 23.8685 15.0019 24.2869C14.4307 24.7053 13.9754 25.1979 13.636 25.7647C13.3072 26.3316 13.1419 26.9378 13.1401 27.5834C13.1383 28.2289 13.3002 28.836 13.6258 29.4047C13.962 29.9735 14.4145 30.4686 14.9833 30.8902C15.5521 31.3118 16.2214 31.6443 16.9913 31.8875C17.7612 32.1386 18.5842 32.2653 19.4603 32.2678C20.3364 32.2703 21.1601 32.1481 21.9313 31.9014C22.7025 31.6625 23.3737 31.3338 23.9449 30.9154C24.5161 30.497 24.9661 30.0044 25.2949 29.4375C25.6343 28.8707 25.8049 28.2645 25.8067 27.619C25.8085 26.9734 25.6413 26.3663 25.3051 25.7976C24.9795 25.2289 24.5323 24.7337 23.9635 24.3121C23.3947 23.8905 22.7253 23.5542 21.9555 23.3031C21.1856 23.0599 20.3626 22.937 19.4865 22.9345ZM19.4839 23.8678C20.8983 23.8718 22.0954 24.2369 23.075 24.963C24.0546 25.689 24.543 26.5732 24.54 27.6154C24.5371 28.6576 24.0438 29.539 23.0601 30.2596C22.0764 30.9802 20.8773 31.3385 19.4629 31.3345C18.0484 31.3305 16.8514 30.9655 15.8718 30.2394C14.8922 29.5133 14.4038 28.6291 14.4067 27.5869C14.4097 26.5447 14.903 25.6633 15.8867 24.9427C16.8704 24.2222 18.0694 23.8639 19.4839 23.8678Z" fill="#1D1B20"/>
<rect x="0.501404" y="-0.498592" width="37" height="34" transform="matrix(0.999996 0.00281243 0.00281243 -0.999996 0.452088 34.9467)" stroke="black"/>
<line y1="-0.5" x2="26.6" y2="-0.5" transform="matrix(0.999996 0.00281243 0.00281243 -0.999996 6.19775 19.1641)" stroke="black"/>
<line y1="-0.5" x2="20.9" y2="-0.5" transform="matrix(0.999996 0.00281243 0.00281243 -0.999996 6.20947 14.9609)" stroke="black"/>
<line y1="-0.5" x2="17.1" y2="-0.5" transform="matrix(0.999996 0.00281243 0.00281243 -0.999996 6.22119 10.7578)" stroke="black"/>
</svg>
