<svg width="43" height="36" viewBox="0 0 43 36" fill="none" xmlns="http://www.w3.org/2000/svg">
<g clip-path="url(#clip0_6384_87009)">
<path fill-rule="evenodd" clip-rule="evenodd" d="M29.3002 15.0182C28.4338 15.5669 27.2113 15.0121 26.5506 13.774C26.5044 13.6878 26.4619 13.5984 26.4163 13.5097C25.2096 11.0826 21.3719 9.93846 19.2274 11.3829C18.7326 11.7176 18.1374 12.1285 18.1611 12.7799C18.185 13.3838 18.8771 13.5098 19.3305 13.7612C19.5751 13.8967 19.8469 13.9861 20.0713 14.1507C20.9263 14.7868 24.7067 16.2874 24.6213 17.5062C24.4747 19.5528 23.8133 20.0236 22.1297 19.1522C20.4943 18.3056 15.5894 16.9663 13.8176 16.5642C13.0701 16.3931 12.418 15.9753 11.7955 15.4526C11.3127 15.0423 10.9877 14.3483 10.218 14.2473C10.3469 15.5022 9.73693 15.7352 8.77755 15.6875C7.71675 15.6344 6.63921 15.6572 5.58638 15.8022C4.4455 15.9622 4.27022 15.9231 4.38078 14.6847C4.68653 11.2715 4.49054 7.85243 4.58422 4.43797C4.60478 3.67534 4.83752 3.50259 5.44724 3.57526C6.68807 3.72192 7.93019 3.8439 9.17291 3.97031C9.52788 4.00616 9.94198 4.09725 9.97015 4.49735C10.0553 5.68183 10.6923 5.21088 11.225 5.06812C11.5767 4.97294 11.8982 4.75805 12.2819 4.78701C13.7154 4.89626 15.141 4.73332 16.569 4.63748C17.9596 4.5409 19.2889 4.73972 20.5457 5.48266C21.295 5.92537 22.1135 6.28664 22.9584 6.38531C26.0864 6.74824 27.6761 9.47074 29.609 11.6239C30.3254 12.4223 30.0007 14.574 29.3002 15.0182ZM9.10271 12.3256C9.08621 11.4882 9.10392 10.6515 9.10636 9.81472L9.07336 9.81462C9.07736 8.44305 9.06303 7.07141 9.09636 5.70119C9.10873 5.22905 8.98889 5.03819 8.552 5.0078C7.79371 4.95748 7.03363 4.89071 6.28473 4.76004C5.70383 4.65707 5.54552 4.87244 5.54677 5.4921C5.55358 7.76881 5.51577 10.0448 5.49447 12.3227C5.49195 12.555 5.48577 12.7904 5.47836 13.0239C5.41581 14.7757 5.41581 14.7757 7.07227 14.6964C9.1511 14.5961 9.1456 14.5961 9.10271 12.3256ZM28.5559 11.8418C27.4769 10.7095 26.4224 9.54746 25.3212 8.43977C24.7679 7.88116 24.013 7.73782 23.3021 7.57878C22.2204 7.33447 21.1561 7.02566 20.1823 6.47532C19.0565 5.83846 17.8905 5.61037 16.652 5.71815C14.804 5.8786 12.9395 5.83265 11.1056 6.19885C10.3039 6.36044 9.86461 6.73893 10.015 7.75334C10.1122 8.40429 10.0301 9.09016 10.0281 9.75981L10.0666 9.75992C10.0643 10.5631 10.0834 11.3676 10.0511 12.1701C10.0298 12.7498 10.1662 13.1357 10.7416 13.2304C11.3476 13.3278 11.8018 13.7183 12.1541 14.2441C12.6568 14.9886 13.3609 15.3755 14.1488 15.5544C15.9511 15.9597 17.6628 16.6261 19.3159 17.5063C21.6139 17.8883 23.2576 18.8564 23.335 17.8883C23.4149 16.8941 19.9562 15.2675 19.2282 14.8844C18.6241 14.5674 17.9959 14.3086 17.5043 13.7755C17.0254 13.257 16.9226 12.6978 17.2881 12.0615C17.7715 11.2198 18.369 10.4468 19.2492 10.188C21.198 9.61895 23.1617 9.59049 25.0605 10.4581C26.1243 10.9448 26.8171 11.8608 27.2862 13.0033C27.5211 13.5692 27.8442 14.055 28.4784 14.1062C28.6672 14.1232 28.8605 14.0675 28.893 13.8182C28.9794 13.1209 29.1049 12.4156 28.5559 11.8418Z" fill="black"/>
<g clip-path="url(#clip1_6384_87009)">
<path d="M25.3555 15.6646L23.6737 30.7617L38.7709 32.4435L40.4527 17.3463L25.3555 15.6646ZM37.6529 31.0453L25.0719 29.6438L26.4734 17.0628L39.0544 18.4643L37.6529 31.0453ZM26.6103 27.2677L34.1589 28.1086L34.2991 26.8505L26.7505 26.0096L26.6103 27.2677ZM37.0956 24.6146L27.0308 23.4934L26.8906 24.7515L36.9554 25.8727L37.0956 24.6146Z" fill="black"/>
<path d="M32.3702 23.363C32.2905 23.3544 32.2266 23.32 32.1785 23.2596C32.1305 23.1994 32.1109 23.1291 32.1195 23.0486L32.1547 22.7218C31.9488 22.6517 31.7726 22.5489 31.6259 22.4133C31.4793 22.2778 31.3682 22.0981 31.2927 21.8744C31.267 21.8046 31.2733 21.7346 31.3116 21.6646C31.3501 21.5944 31.4109 21.547 31.4942 21.5224C31.5629 21.5011 31.6308 21.5096 31.6978 21.5481C31.7648 21.5864 31.8132 21.643 31.8431 21.7181C31.9075 21.8688 31.9967 21.9874 32.1107 22.074C32.2247 22.1605 32.3708 22.2133 32.5489 22.2325C32.7411 22.2532 32.9088 22.227 33.052 22.1539C33.195 22.0805 33.2764 21.9515 33.2963 21.7668C33.3141 21.6011 33.2767 21.4641 33.184 21.3558C33.0913 21.2477 32.8641 21.1119 32.5023 20.9483C32.1128 20.777 31.8526 20.5946 31.7217 20.4009C31.5908 20.207 31.5392 19.9823 31.5667 19.7265C31.5999 19.4187 31.7241 19.1901 31.9394 19.0409C32.1546 18.8916 32.3667 18.8162 32.5756 18.8147L32.6092 18.5022C32.6179 18.4217 32.6521 18.357 32.7118 18.3083C32.7716 18.2597 32.8414 18.2397 32.9211 18.2483C33.0008 18.2569 33.0648 18.2913 33.1129 18.3515C33.1609 18.4118 33.1805 18.4823 33.1718 18.5628L33.1382 18.8753C33.3133 18.9229 33.4617 18.9977 33.5836 19.0995C33.7054 19.2012 33.8017 19.3205 33.8723 19.4574C33.9078 19.5236 33.9087 19.5931 33.8748 19.6661C33.8408 19.7391 33.7821 19.7879 33.6989 19.8124C33.6302 19.8338 33.5621 19.8276 33.4946 19.7939C33.427 19.7604 33.3664 19.7072 33.3125 19.6343C33.2587 19.5614 33.1928 19.5028 33.1147 19.4583C33.0363 19.4141 32.9362 19.3854 32.8143 19.3722C32.608 19.35 32.446 19.3793 32.3282 19.4601C32.2104 19.5408 32.1441 19.6498 32.1293 19.7871C32.1125 19.9434 32.1696 20.0741 32.3005 20.1792C32.4315 20.2844 32.6651 20.4053 33.0013 20.5422C33.3146 20.6717 33.5435 20.8484 33.6878 21.0723C33.832 21.2963 33.8895 21.5433 33.8604 21.8132C33.8242 22.1495 33.6982 22.3946 33.4824 22.5486C33.2666 22.7026 33.0111 22.7853 32.7158 22.7966L32.6821 23.1092C32.6735 23.1897 32.6393 23.2542 32.5796 23.3028C32.5197 23.3515 32.4499 23.3716 32.3702 23.363Z" fill="black"/>
</g>
</g>
<defs>
<clipPath id="clip0_6384_87009">
<rect width="42.0788" height="35.4447" fill="white" transform="matrix(0.999996 0.00291542 0.00291542 -0.999996 0 35.4446)"/>
</clipPath>
<clipPath id="clip1_6384_87009">
<rect width="20.2541" height="20.2541" fill="white" transform="translate(26.4141 10.5203) rotate(18.2462)"/>
</clipPath>
</defs>
</svg>
