<svg width="32" height="32" viewBox="0 0 32 32" fill="none" xmlns="http://www.w3.org/2000/svg">
<path d="M5.73305 11.1611H5V26.5602H5.73305V11.1611Z" fill="url(#paint0_linear_4152_45750)"/>
<path d="M23.6596 26.1205H5.36653V27H23.6596V26.1205Z" fill="url(#paint1_linear_4152_45750)"/>
<path d="M25.2285 6.76142H21.8631V7.64094H25.2285V6.76142Z" fill="url(#paint2_linear_4152_45750)"/>
<path d="M25.2285 27L23.6596 27V26.1205L25.2285 26.1205C25.5038 26.1201 25.7678 25.9887 25.9625 25.7551C26.1571 25.5215 26.2666 25.2048 26.2669 24.8745V8.88693C26.2666 8.55658 26.1571 8.23988 25.9624 8.00629C25.7678 7.7727 25.5038 7.64131 25.2285 7.64094V6.76142C25.6981 6.76205 26.1484 6.9862 26.4806 7.38467C26.8127 7.78314 26.9995 8.32341 27 8.88694V24.8745C26.9995 25.438 26.8127 25.9783 26.4806 26.3768C26.1484 26.7752 25.6981 26.9994 25.2285 27Z" fill="#0F0F19"/>
<path d="M5.73305 11.1611H5L5.00001 8.88693C5.00053 8.3234 5.18735 7.78314 5.51946 7.38466C5.85158 6.98619 6.30187 6.76206 6.77156 6.76143V7.64094C6.49622 7.6413 6.23226 7.7727 6.03757 8.00629C5.84288 8.23987 5.73337 8.55658 5.73306 8.88693L5.73305 11.1611Z" fill="#0F0F19"/>
<path d="M10.1302 6.76142L6.77156 6.76143V7.64094H10.1302V6.76142Z" fill="url(#paint3_linear_4152_45750)"/>
<path d="M19.6679 6.76142H12.3301V7.64094H19.6679V6.76142Z" fill="url(#paint4_linear_4152_45750)"/>
<path d="M26.2782 12.9188H5.74367V13.7983H26.2782V12.9188Z" fill="url(#paint5_linear_4152_45750)"/>
<path d="M21.1314 5H20.3984V9.40228H21.1314V5Z" fill="url(#paint6_linear_4152_45750)"/>
<path d="M11.5996 5H10.8666V9.40228H11.5996V5Z" fill="url(#paint7_linear_4152_45750)"/>
<defs>
<linearGradient id="paint0_linear_4152_45750" x1="16.0002" y1="0" x2="16.0002" y2="32" gradientUnits="userSpaceOnUse">
<stop offset="0.1845" stop-color="#0F0F19"/>
<stop offset="0.9569" stop-color="#0F0F19" stop-opacity="0"/>
</linearGradient>
<linearGradient id="paint1_linear_4152_45750" x1="32" y1="16.0002" x2="0" y2="16.0002" gradientUnits="userSpaceOnUse">
<stop offset="0.1845" stop-color="#0F0F19"/>
<stop offset="0.9706" stop-color="#0F0F19" stop-opacity="0"/>
</linearGradient>
<linearGradient id="paint2_linear_4152_45750" x1="32" y1="15.9998" x2="0" y2="15.9998" gradientUnits="userSpaceOnUse">
<stop offset="0.1159" stop-color="#0F0F19"/>
<stop offset="0.9384" stop-color="#0F0F19" stop-opacity="0"/>
</linearGradient>
<linearGradient id="paint3_linear_4152_45750" x1="0" y1="15.9998" x2="32" y2="15.9998" gradientUnits="userSpaceOnUse">
<stop offset="0.1159" stop-color="#0F0F19"/>
<stop offset="0.9384" stop-color="#0F0F19" stop-opacity="0"/>
</linearGradient>
<linearGradient id="paint4_linear_4152_45750" x1="0" y1="15.9998" x2="32" y2="15.9998" gradientUnits="userSpaceOnUse">
<stop stop-color="#0F0F19" stop-opacity="0"/>
<stop offset="0.0983" stop-color="#0F0F19" stop-opacity="0.3511"/>
<stop offset="0.3005" stop-color="#0F0F19" stop-opacity="0.8373"/>
<stop offset="0.5" stop-color="#0F0F19"/>
<stop offset="0.7012" stop-color="#0F0F19" stop-opacity="0.8452"/>
<stop offset="0.8964" stop-color="#0F0F19" stop-opacity="0.3787"/>
<stop offset="1" stop-color="#0F0F19" stop-opacity="0"/>
</linearGradient>
<linearGradient id="paint5_linear_4152_45750" x1="0" y1="16.0002" x2="32" y2="16.0002" gradientUnits="userSpaceOnUse">
<stop offset="0.0263" stop-color="#0F0F19" stop-opacity="0"/>
<stop offset="0.1339" stop-color="#0F0F19" stop-opacity="0.4297"/>
<stop offset="0.309" stop-color="#0F0F19" stop-opacity="0.86"/>
<stop offset="0.5074" stop-color="#0F0F19"/>
<stop offset="0.6927" stop-color="#0F0F19" stop-opacity="0.8249"/>
<stop offset="0.8923" stop-color="#0F0F19" stop-opacity="0.3081"/>
<stop offset="0.9756" stop-color="#0F0F19" stop-opacity="0"/>
</linearGradient>
<linearGradient id="paint6_linear_4152_45750" x1="15.9998" y1="32" x2="15.9998" y2="0" gradientUnits="userSpaceOnUse">
<stop stop-color="#0F0F19" stop-opacity="0"/>
<stop offset="0.1965" stop-color="#0F0F19" stop-opacity="0.3511"/>
<stop offset="0.6009" stop-color="#0F0F19" stop-opacity="0.8373"/>
<stop offset="1" stop-color="#0F0F19"/>
</linearGradient>
<linearGradient id="paint7_linear_4152_45750" x1="11.2329" y1="9.40228" x2="11.2329" y2="5" gradientUnits="userSpaceOnUse">
<stop stop-color="#0F0F19" stop-opacity="0"/>
<stop offset="0.1965" stop-color="#0F0F19" stop-opacity="0.3511"/>
<stop offset="0.6009" stop-color="#0F0F19" stop-opacity="0.8373"/>
<stop offset="1" stop-color="#0F0F19"/>
</linearGradient>
</defs>
</svg>
