<svg width="80" height="80" viewBox="0 0 80 80" fill="none" xmlns="http://www.w3.org/2000/svg">
<path d="M23.7969 25.1406L55.3402 56.6296" stroke="#B72015" stroke-width="2" stroke-linecap="square"/>
<path d="M53.875 25.1406L22.3317 56.6296" stroke="#B72015" stroke-width="2" stroke-linecap="square"/>
<path fill-rule="evenodd" clip-rule="evenodd" d="M3.78906 39.9984C3.78906 20.0005 20.0005 3.78906 39.9984 3.78906C59.9962 3.78906 76.2077 20.0005 76.2077 39.9984C76.2077 59.9962 59.9962 76.2077 39.9984 76.2077C20.0005 76.2077 3.78906 59.9962 3.78906 39.9984ZM39.9984 1.78906C18.8959 1.78906 1.78906 18.8959 1.78906 39.9984C1.78906 61.1008 18.8959 78.2077 39.9984 78.2077C61.1008 78.2077 78.2077 61.1008 78.2077 39.9984C78.2077 18.8959 61.1008 1.78906 39.9984 1.78906Z" fill="#B72015"/>
</svg>
