<svg width="58" height="47" viewBox="0 0 58 47" fill="none" xmlns="http://www.w3.org/2000/svg">
<path d="M14.4391 17.7773C12.6811 17.7773 10.9627 17.256 9.50101 16.2793C8.03934 15.3026 6.9001 13.9144 6.22737 12.2902C5.55463 10.666 5.37861 8.87878 5.72157 7.15456C6.06453 5.43033 6.91106 3.84652 8.15411 2.60343C9.39716 1.36033 10.9809 0.513767 12.7051 0.170797C14.4292 -0.172173 16.2164 0.00385054 17.8405 0.676611C19.4646 1.34937 20.8528 2.48865 21.8294 3.95038C22.8061 5.41211 23.3274 7.13064 23.3274 8.88864C23.3245 11.2452 22.3872 13.5044 20.7209 15.1707C19.0547 16.8371 16.7955 17.7744 14.4391 17.7773ZM14.4391 1.90471C13.0574 1.90471 11.7068 2.31444 10.558 3.08208C9.40916 3.84972 8.51378 4.9408 7.98504 6.21733C7.4563 7.49387 7.31795 8.89854 7.5875 10.2537C7.85705 11.6089 8.52239 12.8537 9.49937 13.8307C10.4764 14.8077 11.7211 15.4731 13.0762 15.7426C14.4313 16.0122 15.8359 15.8738 17.1124 15.3451C18.3889 14.8163 19.48 13.9209 20.2476 12.772C21.0152 11.6232 21.4249 10.2725 21.4249 8.89079C21.4232 7.03829 20.6867 5.26213 19.377 3.95201C18.0674 2.6419 16.2915 1.90484 14.4391 1.90257V1.90471Z" fill="url(#paint0_linear_58861_456038)"/>
<path d="M2.4064 31.7559H0.503906V46.9678H2.4064V31.7559Z" fill="url(#paint1_linear_58861_456038)"/>
<path d="M2.40249 31.7553H0.5C0.503974 28.7053 1.71745 25.7814 3.87426 23.6249C6.03107 21.4684 8.95512 20.2554 12.005 20.252H16.8739C19.3328 20.2452 21.7281 21.0329 23.7031 22.4978L22.5727 24.0271C20.9245 22.8048 18.9258 22.1473 16.8739 22.1524H12.005C9.45914 22.1553 7.01835 23.1679 5.21814 24.9682C3.41793 26.7685 2.40533 29.2093 2.40249 31.7553Z" fill="#0F0F19"/>
<path d="M24.8885 26.964C24.2172 25.7242 23.6917 24.8512 22.5742 24.0254L23.7046 22.4961C25.133 23.5493 25.8172 24.6839 26.5615 26.0546L24.8885 26.964Z" fill="url(#paint2_linear_58861_456038)"/>
<path d="M28.3869 35.6797H26.4844V46.9685H28.3869V35.6797Z" fill="url(#paint3_linear_58861_456038)"/>
<path d="M37.8115 45.2406C37.714 45.2402 37.6166 45.2345 37.5198 45.2235C36.7849 45.1455 36.0585 45.0019 35.3492 44.7945C34.6317 44.6174 33.9313 44.3777 33.2558 44.0781C32.8024 43.8866 32.4169 43.5635 32.1492 43.1505C31.8815 42.7375 31.744 42.2536 31.7544 41.7615C31.7544 41.2124 31.7544 40.4553 31.7544 39.6981C31.7544 38.9409 31.7544 38.1966 31.7544 37.654C31.7513 37.337 31.671 37.0256 31.5206 36.7467L31.5013 36.7188C31.4189 36.606 31.3286 36.4992 31.231 36.3992C31.1271 36.3018 31.0167 36.2115 30.9007 36.1289L30.8707 36.1075C30.592 35.9585 30.2815 35.879 29.9656 35.8758C29.4229 35.8758 28.6787 35.8758 27.9215 35.8758C27.1644 35.8758 26.4072 35.8758 25.8582 35.8758C25.3662 35.8856 24.8826 35.7479 24.4698 35.4802C24.0569 35.2126 23.7336 34.8274 23.5417 34.3743C22.9665 33.013 22.5818 31.5788 22.3985 30.1123C22.3398 29.6244 22.4283 29.1301 22.6527 28.6928C22.877 28.2556 23.227 27.8954 23.6575 27.6585C24.1316 27.3797 24.7879 27 25.4464 26.6204C26.1048 26.2407 26.744 25.8739 27.2094 25.5972C27.4823 25.4407 27.7128 25.2198 27.8808 24.9538L27.8936 24.9237C27.953 24.7945 28.0032 24.6611 28.0438 24.5248C28.0786 24.3838 28.103 24.2404 28.1167 24.0958V24.0593C28.105 23.7436 28.0174 23.4354 27.8615 23.1606C27.5955 22.6887 27.218 22.0388 26.8448 21.3889C26.4716 20.739 26.0855 20.0783 25.8153 19.6C25.5602 19.1797 25.4371 18.6925 25.462 18.2015C25.4868 17.7105 25.6585 17.2383 25.9547 16.8459C26.3877 16.2479 26.8737 15.6901 27.4068 15.1793C27.9188 14.6468 28.4764 14.1602 29.0733 13.725C29.4663 13.43 29.9387 13.2594 30.4296 13.2353C30.9205 13.2112 31.4073 13.3347 31.8273 13.5899C32.3035 13.858 32.9576 14.2333 33.6118 14.6151C34.266 14.9969 34.9138 15.368 35.3878 15.6361C35.664 15.7917 35.9739 15.8778 36.2908 15.8871H36.3229C36.4672 15.873 36.6104 15.8501 36.7519 15.8185C36.8918 15.7763 37.0287 15.7247 37.1616 15.664L37.1937 15.649C37.4583 15.4801 37.6789 15.2508 37.8372 14.9798C38.1139 14.5122 38.4807 13.8623 38.8624 13.2123C39.2442 12.5624 39.6196 11.8996 39.8984 11.4278C40.1344 10.9964 40.4944 10.6457 40.9319 10.4213C41.3693 10.1968 41.8641 10.1088 42.3521 10.1687C43.8192 10.3523 45.254 10.737 46.6161 11.3119C47.0699 11.5029 47.4557 11.8259 47.7234 12.239C47.9912 12.6522 48.1285 13.1363 48.1175 13.6285C48.1175 14.1733 48.1175 14.9262 48.1175 15.6812C48.1175 16.4362 48.1175 17.1826 48.1175 17.7339C48.1206 18.0515 48.2008 18.3636 48.3513 18.6433L48.3706 18.6691C48.4521 18.7859 48.5425 18.8964 48.6409 18.9994C48.7461 19.0999 48.8586 19.1924 48.9776 19.2761L49.0076 19.2997C49.2869 19.4468 49.5971 19.5255 49.9128 19.5292C50.4554 19.5292 51.1997 19.5292 51.9568 19.5292C52.7139 19.5292 53.4711 19.5292 54.0202 19.5292C54.5122 19.5188 54.9961 19.6563 55.4091 19.924C55.822 20.1917 56.1452 20.5772 56.3366 21.0307C56.6372 21.7043 56.8769 22.4035 57.053 23.1198C57.2579 23.8305 57.4014 24.5575 57.482 25.2927C57.5407 25.7806 57.4522 26.2749 57.2278 26.7122C57.0035 27.1494 56.6535 27.5096 56.2229 27.7465C55.7511 28.0232 55.0947 28.4028 54.4384 28.7803C53.7821 29.1579 53.1386 29.5289 52.671 29.8056C52.3978 29.9673 52.1675 30.1924 51.9997 30.462L51.989 30.4899C51.928 30.6187 51.8771 30.7521 51.8367 30.8888C51.802 31.0299 51.7777 31.1732 51.7638 31.3178V31.35C51.7753 31.6657 51.8628 31.974 52.019 32.2487C52.285 32.7227 52.6625 33.3705 53.0357 34.0204C53.4089 34.6704 53.7949 35.3331 54.0652 35.8093C54.3199 36.23 54.443 36.7173 54.4185 37.2085C54.394 37.6996 54.2232 38.1723 53.9279 38.5656C53.4922 39.162 53.0056 39.7196 52.4737 40.2322C51.9617 40.764 51.4041 41.2499 50.8072 41.6843C50.4146 41.9802 49.9422 42.1515 49.4512 42.176C48.9603 42.2004 48.4732 42.077 48.0532 41.8216C47.5727 41.5513 46.9121 41.1674 46.2515 40.7877C45.5909 40.4081 44.9646 40.0413 44.4927 39.7753C44.2164 39.6195 43.9067 39.5327 43.5897 39.5222H43.5597C43.4152 39.5341 43.2718 39.5571 43.1307 39.5908C42.99 39.6326 42.8524 39.6842 42.7189 39.7453L42.6867 39.7603C42.4217 39.9276 42.201 40.1565 42.0433 40.4274C41.7666 40.895 41.3998 41.5427 41.0202 42.1927C40.6405 42.8426 40.2609 43.5075 39.9821 43.9815C39.7669 44.3672 39.4517 44.6877 39.0697 44.9092C38.6877 45.1308 38.253 45.2453 37.8115 45.2406ZM32.5737 35.0436C32.7387 35.2135 32.8907 35.3956 33.0284 35.5884L33.0499 35.6163C33.4416 36.2185 33.6523 36.9205 33.6569 37.6389C33.6569 38.1881 33.6569 38.9452 33.6569 39.7045C33.6569 40.4638 33.6569 41.206 33.6569 41.7465C33.6435 41.873 33.6724 42.0004 33.7392 42.1087C33.8059 42.217 33.9067 42.3001 34.0258 42.345C35.2051 42.8352 36.4442 43.167 37.7107 43.3316C37.8359 43.3529 37.9647 43.3318 38.0766 43.2715C38.1885 43.2113 38.2771 43.1155 38.3284 42.9992C38.6051 42.5294 38.9718 41.8795 39.3558 41.2274C39.7397 40.5754 40.1108 39.9169 40.3896 39.445C40.7519 38.8263 41.2842 38.3245 41.9232 37.9993L41.9575 37.9843C42.1753 37.8848 42.4004 37.8023 42.631 37.7376C42.8598 37.6795 43.0929 37.6393 43.328 37.6175H43.3602C44.0768 37.5781 44.7896 37.7464 45.4128 38.1023C45.889 38.3704 46.5389 38.7457 47.1909 39.1254C47.843 39.505 48.4993 39.8804 48.9755 40.1507C49.0776 40.2255 49.2018 40.2643 49.3284 40.2608C49.455 40.2573 49.5768 40.2117 49.6747 40.1314C50.1917 39.7547 50.6741 39.3326 51.116 38.8701C51.5767 38.4286 51.998 37.9478 52.3751 37.433C52.4556 37.3348 52.5012 37.2126 52.5047 37.0856C52.5082 36.9587 52.4694 36.8341 52.3944 36.7316C52.1284 36.2576 51.7509 35.6077 51.3755 34.9578C51.0002 34.3079 50.6184 33.6472 50.3482 33.1689C49.9924 32.5463 49.8233 31.8344 49.8613 31.1183V31.084C49.8845 30.8445 49.9261 30.6072 49.9857 30.374C50.0495 30.1463 50.1313 29.9239 50.2302 29.7091L50.2431 29.6791C50.567 29.0392 51.069 28.5066 51.6887 28.1454C52.1627 27.8644 52.819 27.4869 53.4754 27.1094C54.1317 26.7319 54.7751 26.3587 55.2427 26.0841C55.3633 26.035 55.4638 25.9467 55.528 25.8335C55.5922 25.7202 55.6164 25.5886 55.5966 25.46C55.5276 24.8248 55.4034 24.1968 55.2256 23.5831C55.074 22.9632 54.8672 22.3581 54.6079 21.775C54.5637 21.6559 54.4811 21.5549 54.3731 21.4881C54.2651 21.4213 54.1378 21.3924 54.0116 21.406C53.4668 21.406 52.7247 21.406 51.9675 21.406C51.2104 21.406 50.4511 21.406 49.902 21.406C49.1851 21.4028 48.4843 21.1928 47.8837 20.8012L47.8515 20.7776C47.4631 20.5056 47.1248 20.1681 46.852 19.7802L46.8306 19.7501C46.4385 19.149 46.2284 18.4473 46.2257 17.7296C46.2257 17.1762 46.2257 16.4147 46.2257 15.6533C46.2257 14.8918 46.2257 14.1518 46.2257 13.6199C46.2392 13.4939 46.2104 13.3671 46.1441 13.2592C46.0777 13.1513 45.9774 13.0684 45.859 13.0236C44.6794 12.5317 43.4394 12.1991 42.172 12.0348C42.0467 12.0142 41.9182 12.0357 41.8065 12.0958C41.6948 12.156 41.6061 12.2514 41.5542 12.3672C41.2776 12.837 40.9108 13.4869 40.529 14.1368C40.1472 14.7867 39.7719 15.4495 39.493 15.9214C39.1315 16.5413 38.5991 17.0439 37.9595 17.3692L37.9251 17.3843C37.7076 17.4839 37.4824 17.5657 37.2517 17.6288C37.0243 17.6875 36.7926 17.7284 36.5589 17.751H36.5074C35.7899 17.7927 35.0758 17.6242 34.4526 17.2663C33.9722 16.996 33.3158 16.6228 32.6574 16.2346C31.9989 15.8463 31.3705 15.486 30.89 15.22C30.7877 15.1446 30.6631 15.1056 30.536 15.1091C30.4089 15.1126 30.2867 15.1584 30.1886 15.2393C29.1764 16.0139 28.2719 16.9199 27.499 17.9334C27.4184 18.0316 27.3728 18.1538 27.3693 18.2808C27.3658 18.4077 27.4047 18.5323 27.4797 18.6348C27.7456 19.1088 28.1231 19.7587 28.4985 20.4065C28.8738 21.0543 29.2556 21.7192 29.5259 22.1975C29.8821 22.8199 30.0512 23.5319 30.0128 24.2481V24.2867C29.9895 24.5241 29.9479 24.7593 29.8884 24.9902C29.8245 25.2173 29.7428 25.4389 29.6438 25.653L29.631 25.6852C29.3056 26.3253 28.803 26.8584 28.1832 27.221C27.7113 27.4998 27.055 27.8773 26.4008 28.2548C25.7466 28.6323 25.0989 29.0056 24.6292 29.2823C24.5133 29.3336 24.4177 29.4219 24.3572 29.5332C24.2967 29.6445 24.2747 29.7727 24.2946 29.8979C24.3632 30.5331 24.4874 31.1611 24.6656 31.7747C24.8173 32.3953 25.0241 33.0011 25.2833 33.585C25.3278 33.7039 25.4105 33.8046 25.5184 33.8714C25.6263 33.9382 25.7534 33.9672 25.8796 33.9539C26.4244 33.9539 27.1665 33.9539 27.9237 33.9539C28.6808 33.9539 29.4401 33.9539 29.9892 33.9539C30.7059 33.9563 31.4068 34.1656 32.0075 34.5567L32.0397 34.5803C32.2286 34.7217 32.407 34.8765 32.5737 35.0436Z" fill="url(#paint4_linear_58861_456038)"/>
<path d="M39.9373 34.589C39.3303 34.5884 38.726 34.5083 38.1399 34.3509C36.4586 33.8961 35.0131 32.8192 34.0963 31.3382C33.1794 29.8573 32.8599 28.0832 33.2024 26.3755C33.5449 24.6677 34.5237 23.1541 35.9407 22.1412C37.3576 21.1283 39.1066 20.6921 40.8332 20.9208C42.5598 21.1495 44.1349 22.0261 45.2393 23.3729C46.3436 24.7198 46.8947 26.4361 46.7808 28.1741C46.6669 29.9122 45.8965 31.5419 44.6257 32.733C43.355 33.9242 41.679 34.5876 39.9373 34.589ZM39.9373 22.6738C39.0039 22.6747 38.0893 22.9369 37.2971 23.4305C36.5049 23.9241 35.8666 24.6296 35.4544 25.4671C35.0423 26.3046 34.8727 27.2408 34.9648 28.1697C35.057 29.0985 35.4072 29.9831 35.9759 30.7233C36.5446 31.4635 37.309 32.0298 38.1828 32.3582C39.0566 32.6865 40.0048 32.7638 40.9202 32.5813C41.8356 32.3988 42.6816 31.9638 43.3627 31.3254C44.0437 30.6871 44.5326 29.8709 44.7739 28.9692C44.9424 28.3346 44.9842 27.673 44.8969 27.0222C44.8097 26.3715 44.5951 25.7443 44.2655 25.1764C43.9359 24.6086 43.4976 24.1112 42.9758 23.7127C42.454 23.3142 41.8588 23.0224 41.2242 22.854C40.8048 22.7384 40.3722 22.6779 39.9373 22.6738Z" fill="url(#paint5_linear_58861_456038)"/>
<defs>
<linearGradient id="paint0_linear_58861_456038" x1="14.4391" y1="17.7773" x2="14.4391" y2="4.23843e-06" gradientUnits="userSpaceOnUse">
<stop stop-color="#0F0F19" stop-opacity="0"/>
<stop offset="0.15" stop-color="#0F0F19" stop-opacity="0.34"/>
<stop offset="0.48" stop-color="#0F0F19" stop-opacity="0.83"/>
<stop offset="0.8" stop-color="#0F0F19"/>
</linearGradient>
<linearGradient id="paint1_linear_58861_456038" x1="1.45622" y1="46.9699" x2="1.45622" y2="31.7559" gradientUnits="userSpaceOnUse">
<stop offset="0.05" stop-color="#0F0F19" stop-opacity="0"/>
<stop offset="0.12" stop-color="#0F0F19" stop-opacity="0.13"/>
<stop offset="0.55" stop-color="#0F0F19" stop-opacity="0.77"/>
<stop offset="0.88" stop-color="#0F0F19"/>
</linearGradient>
<linearGradient id="paint2_linear_58861_456038" x1="23.2863" y1="22.732" x2="25.4678" y2="26.6658" gradientUnits="userSpaceOnUse">
<stop offset="0.14" stop-color="#0F0F19"/>
<stop offset="1" stop-color="#0F0F19" stop-opacity="0"/>
</linearGradient>
<linearGradient id="paint3_linear_58861_456038" x1="27.4345" y1="46.9707" x2="27.4345" y2="35.6797" gradientUnits="userSpaceOnUse">
<stop stop-color="#0F0F19" stop-opacity="0"/>
<stop offset="0.04" stop-color="#0F0F19" stop-opacity="0.13"/>
<stop offset="0.28" stop-color="#0F0F19" stop-opacity="0.77"/>
<stop offset="0.47" stop-color="#0F0F19"/>
<stop offset="0.98" stop-color="#0F0F19" stop-opacity="0"/>
</linearGradient>
<linearGradient id="paint4_linear_58861_456038" x1="44.5206" y1="10.563" x2="35.3464" y2="44.8003" gradientUnits="userSpaceOnUse">
<stop offset="0.15" stop-color="#0F0F19"/>
<stop offset="0.71" stop-color="#0F0F19" stop-opacity="0.38"/>
<stop offset="0.98" stop-color="#0F0F19" stop-opacity="0"/>
</linearGradient>
<linearGradient id="paint5_linear_58861_456038" x1="41.7186" y1="21.0158" x2="38.1455" y2="34.3501" gradientUnits="userSpaceOnUse">
<stop offset="0.15" stop-color="#0F0F19"/>
<stop offset="0.71" stop-color="#0F0F19" stop-opacity="0.38"/>
<stop offset="0.98" stop-color="#0F0F19" stop-opacity="0"/>
</linearGradient>
</defs>
</svg>
