<svg width="76" height="40" viewBox="0 0 76 40" fill="none" xmlns="http://www.w3.org/2000/svg">
<path d="M37.5861 20.2852L35.8164 22.0547L43.1502 29.3878L44.9199 27.6183L37.5861 20.2852Z" fill="url(#paint0_linear_58833_435932)"/>
<path d="M47.8037 31.7606C47.0793 31.7625 46.3616 31.6208 45.6923 31.3436C45.0231 31.0664 44.4154 30.6592 43.9046 30.1456L43.1425 29.3837L44.9122 27.6143L45.6741 28.3762C45.9538 28.6559 46.2858 28.8777 46.6512 29.029C47.0165 29.1804 47.4082 29.2582 47.8036 29.2582C48.1991 29.2583 48.5908 29.1804 48.9561 29.029C49.3215 28.8777 49.6535 28.6559 49.9332 28.3763C50.2128 28.0966 50.4347 27.7647 50.586 27.3993C50.7374 27.034 50.8153 26.6424 50.8153 26.247C50.8153 25.8515 50.7374 25.4599 50.586 25.0946C50.4347 24.7292 50.2129 24.3973 49.9332 24.1176L32.7074 6.89365C32.0906 6.27352 31.3569 5.78187 30.5488 5.44717C29.7406 5.11247 28.8742 4.94137 27.9995 4.94376H26.3574V2.44144H27.9995C29.203 2.43816 30.3952 2.67359 31.507 3.13411C32.6189 3.59462 33.6284 4.27108 34.4771 5.12431L51.7027 22.3482C52.4739 23.1193 52.999 24.1018 53.2117 25.1713C53.4244 26.2408 53.3152 27.3494 52.8979 28.3569C52.4805 29.3644 51.7738 30.2254 50.867 30.8313C49.9602 31.4372 48.8943 31.7605 47.8037 31.7606Z" fill="#0F0F19"/>
<path d="M26.3611 2.44141H10.5156V4.94376H26.3611V2.44141Z" fill="url(#paint1_linear_58833_435932)"/>
<path d="M69.1782 29.6602H50.9297V32.1625H69.1782V29.6602Z" fill="url(#paint2_linear_58833_435932)"/>
<path d="M70.4492 39.9995H39.3711V37.4972H70.4492C71.1567 37.4972 71.8352 37.2162 72.3355 36.7159C72.8358 36.2157 73.1168 35.5373 73.1168 34.8298C73.1168 34.1224 72.8358 33.444 72.3355 32.9437C71.8352 32.4435 71.1567 32.1625 70.4492 32.1625H69.1755V29.6602H70.4492C71.8175 29.6647 73.1282 30.2113 74.0941 31.1803C75.06 32.1494 75.6024 33.4617 75.6024 34.8298C75.6024 36.198 75.06 37.5103 74.0941 38.4793C73.1282 39.4483 71.8175 39.995 70.4492 39.9995Z" fill="#0F0F19"/>
<path d="M39.3697 39.9958H37.2209L9.91406 24.2456L11.1645 22.0781L37.891 37.4935H39.3697V39.9958Z" fill="url(#paint3_linear_58833_435932)"/>
<path d="M10.5111 27.4308H0.5V24.9284H8.00857V2.50232H0.5V0H10.5111V27.4308Z" fill="url(#paint4_linear_58833_435932)"/>
<defs>
<linearGradient id="paint0_linear_58833_435932" x1="43.9324" y1="28.6583" x2="36.8046" y2="21.0139" gradientUnits="userSpaceOnUse">
<stop offset="0.2937" stop-color="#0F0F19"/>
<stop offset="1" stop-color="#0F0F19" stop-opacity="0"/>
</linearGradient>
<linearGradient id="paint1_linear_58833_435932" x1="26.3612" y1="3.69257" x2="10.5156" y2="3.69257" gradientUnits="userSpaceOnUse">
<stop offset="0.0336" stop-color="#0F0F19"/>
<stop offset="0.5245" stop-color="#0F0F19" stop-opacity="0.5856"/>
<stop offset="1" stop-color="#0F0F19" stop-opacity="0"/>
</linearGradient>
<linearGradient id="paint2_linear_58833_435932" x1="69.1782" y1="30.9113" x2="50.9297" y2="30.9113" gradientUnits="userSpaceOnUse">
<stop offset="0.2937" stop-color="#0F0F19"/>
<stop offset="0.6525" stop-color="#0F0F19" stop-opacity="0.5856"/>
<stop offset="1" stop-color="#0F0F19" stop-opacity="0"/>
</linearGradient>
<linearGradient id="paint3_linear_58833_435932" x1="39.64" y1="39.5278" x2="10.7281" y2="22.8339" gradientUnits="userSpaceOnUse">
<stop offset="0.2937" stop-color="#0F0F19"/>
<stop offset="0.6525" stop-color="#0F0F19" stop-opacity="0.5856"/>
<stop offset="1" stop-color="#0F0F19" stop-opacity="0"/>
</linearGradient>
<linearGradient id="paint4_linear_58833_435932" x1="10.511" y1="13.7154" x2="0.500056" y2="13.7154" gradientUnits="userSpaceOnUse">
<stop offset="0.2937" stop-color="#0F0F19"/>
<stop offset="0.6525" stop-color="#0F0F19" stop-opacity="0.5856"/>
<stop offset="1" stop-color="#0F0F19" stop-opacity="0"/>
</linearGradient>
</defs>
</svg>
