<svg width="50" height="44" viewBox="0 0 50 44" fill="none" xmlns="http://www.w3.org/2000/svg">
<path d="M13.359 19.4602C12.009 19.4602 10.6893 19.0599 9.56679 18.3098C8.4443 17.5598 7.56942 16.4938 7.05279 15.2465C6.53616 13.9993 6.40099 12.6268 6.66436 11.3027C6.92774 9.97867 7.57783 8.76243 8.53244 7.80782C9.48704 6.85322 10.7033 6.20313 12.0274 5.93975C13.3514 5.67638 14.7239 5.81155 15.9711 6.32818C17.2184 6.84481 18.2844 7.71969 19.0344 8.84218C19.7845 9.96468 20.1848 11.2844 20.1848 12.6344C20.1827 14.4441 19.4629 16.179 18.1833 17.4587C16.9036 18.7383 15.1687 19.4581 13.359 19.4602ZM13.359 7.47018C12.3376 7.47018 11.3392 7.77305 10.4899 8.3405C9.64065 8.90796 8.97873 9.7145 8.58786 10.6581C8.19699 11.6018 8.09472 12.6401 8.29398 13.6419C8.49325 14.6437 8.98509 15.5638 9.70732 16.2861C10.4296 17.0083 11.3497 17.5001 12.3515 17.6994C13.3533 17.8987 14.3916 17.7964 15.3353 17.4055C16.2789 17.0147 17.0854 16.3527 17.6529 15.5035C18.2203 14.6542 18.5232 13.6558 18.5232 12.6344C18.5216 11.2652 17.977 9.95262 17.0089 8.98448C16.0408 8.01635 14.7281 7.47176 13.359 7.47018Z" fill="url(#paint0_linear_58861_158026)"/>
<path d="M14.7082 12.5494L14.0703 14.084L17.6286 15.5632L18.2665 14.0286L14.7082 12.5494Z" fill="url(#paint1_linear_58861_158026)"/>
<path d="M14.0704 14.0843L12.584 13.4662V12.3388H13.653L13.7337 12.1445L14.201 12.3388H14.2457V12.3575L14.7081 12.5496L14.0704 14.0843Z" fill="#0F0F19"/>
<path d="M14.2456 7.49023H12.584V12.3392H14.2456V7.49023Z" fill="url(#paint2_linear_58861_158026)"/>
<path d="M20.0195 23.3809H6.69727V25.0424H20.0195V23.3809Z" fill="url(#paint3_linear_58861_158026)"/>
<path d="M20.0195 27.541H6.69727V29.2026H20.0195V27.541Z" fill="url(#paint4_linear_58861_158026)"/>
<path d="M43.9454 31.707H0.892578V33.3686H43.9454V31.707Z" fill="url(#paint5_linear_58861_158026)"/>
<path d="M1.72407 2.5625H0.0625V30.018H1.72407V2.5625Z" fill="url(#paint6_linear_58861_158026)"/>
<path d="M49.9375 33.3697H43.9463V31.7081H48.2759V1.78655H1.72424V2.56346H0.0625V0.125H49.9375V33.3697Z" fill="#0F0F19"/>
<path d="M17.6445 41.6895H11.5059V43.351H17.6445V41.6895Z" fill="url(#paint7_linear_58861_158026)"/>
<path d="M18.1659 43.3506H17.6445V41.689H18.1659C18.6556 41.6885 19.1251 41.4937 19.4714 41.1475C19.8177 40.8012 20.0125 40.3318 20.013 39.8421V39.1758H21.6746V39.8421C21.6735 40.7723 21.3035 41.6641 20.6457 42.3219C19.988 42.9796 19.0962 43.3496 18.1659 43.3506Z" fill="#0F0F19"/>
<path d="M21.6752 33.5859H20.0137V39.1751H21.6752V33.5859Z" fill="url(#paint8_linear_58861_158026)"/>
<path d="M38.5276 41.6895H32.3535V43.351H38.5276V41.6895Z" fill="url(#paint9_linear_58861_158026)"/>
<path d="M32.3543 43.3506H31.8327C30.9025 43.3495 30.0107 42.9795 29.353 42.3218C28.6953 41.6641 28.3253 40.7723 28.3242 39.8421V39.1758H29.9858V39.8421C29.9863 40.3318 30.1811 40.8012 30.5274 41.1474C30.8736 41.4937 31.343 41.6884 31.8327 41.689H32.3543L32.3543 43.3506Z" fill="#0F0F19"/>
<path d="M29.9858 33.5859H28.3242V39.1751H29.9858V33.5859Z" fill="url(#paint10_linear_58861_158026)"/>
<path d="M28.3159 21.8633H26.6543V30.0363H28.3159V21.8633Z" fill="url(#paint11_linear_58861_158026)"/>
<path d="M33.3002 15.0742H31.6387V30.0361H33.3002V15.0742Z" fill="url(#paint12_linear_58861_158026)"/>
<path d="M38.2866 18.3984H36.625V30.0355H38.2866V18.3984Z" fill="url(#paint13_linear_58861_158026)"/>
<path d="M43.2729 8.42383H41.6113V30.0355H43.2729V8.42383Z" fill="url(#paint14_linear_58861_158026)"/>
<defs>
<linearGradient id="paint0_linear_58861_158026" x1="13.359" y1="5.80862" x2="13.359" y2="19.4602" gradientUnits="userSpaceOnUse">
<stop stop-color="#0F0F19"/>
<stop offset="0.4374" stop-color="#0F0F19" stop-opacity="0.693"/>
<stop offset="1" stop-color="#0F0F19" stop-opacity="0"/>
</linearGradient>
<linearGradient id="paint1_linear_58861_158026" x1="14.3891" y1="13.301" x2="17.9477" y2="14.8115" gradientUnits="userSpaceOnUse">
<stop offset="0.0449" stop-color="#0F0F19"/>
<stop offset="0.4246" stop-color="#0F0F19" stop-opacity="0.7862"/>
<stop offset="0.8969" stop-color="#0F0F19" stop-opacity="0.174"/>
<stop offset="1" stop-color="#0F0F19" stop-opacity="0"/>
</linearGradient>
<linearGradient id="paint2_linear_58861_158026" x1="13.4148" y1="12.3392" x2="13.4148" y2="7.49023" gradientUnits="userSpaceOnUse">
<stop offset="0.1477" stop-color="#0F0F19"/>
<stop offset="0.5356" stop-color="#0F0F19" stop-opacity="0.8898"/>
<stop offset="0.7973" stop-color="#0F0F19" stop-opacity="0.5327"/>
<stop offset="1" stop-color="#0F0F19" stop-opacity="0"/>
</linearGradient>
<linearGradient id="paint3_linear_58861_158026" x1="6.69727" y1="24.2117" x2="20.0195" y2="24.2117" gradientUnits="userSpaceOnUse">
<stop stop-color="#0F0F19"/>
<stop offset="0.5" stop-color="#0F0F19"/>
<stop offset="0.9499" stop-color="#0F0F19" stop-opacity="0.0755"/>
<stop offset="0.9825" stop-color="#0F0F19" stop-opacity="0"/>
</linearGradient>
<linearGradient id="paint4_linear_58861_158026" x1="6.69727" y1="28.3718" x2="20.0195" y2="28.3718" gradientUnits="userSpaceOnUse">
<stop stop-color="#0F0F19"/>
<stop offset="0.5" stop-color="#0F0F19"/>
<stop offset="0.9499" stop-color="#0F0F19" stop-opacity="0.0755"/>
<stop offset="0.9825" stop-color="#0F0F19" stop-opacity="0"/>
</linearGradient>
<linearGradient id="paint5_linear_58861_158026" x1="43.9454" y1="32.5378" x2="0.892578" y2="32.5378" gradientUnits="userSpaceOnUse">
<stop offset="0.1477" stop-color="#0F0F19"/>
<stop offset="0.7073" stop-color="#0F0F19" stop-opacity="0.3791"/>
<stop offset="0.9825" stop-color="#0F0F19" stop-opacity="0"/>
</linearGradient>
<linearGradient id="paint6_linear_58861_158026" x1="0.893293" y1="2.5625" x2="0.893293" y2="30.018" gradientUnits="userSpaceOnUse">
<stop offset="0.1477" stop-color="#0F0F19"/>
<stop offset="0.9262" stop-color="#0F0F19" stop-opacity="0.0755"/>
<stop offset="0.9825" stop-color="#0F0F19" stop-opacity="0"/>
</linearGradient>
<linearGradient id="paint7_linear_58861_158026" x1="17.6445" y1="42.5202" x2="11.5059" y2="42.5202" gradientUnits="userSpaceOnUse">
<stop offset="0.1477" stop-color="#0F0F19"/>
<stop offset="0.9262" stop-color="#0F0F19" stop-opacity="0.0755"/>
<stop offset="0.9825" stop-color="#0F0F19" stop-opacity="0"/>
</linearGradient>
<linearGradient id="paint8_linear_58861_158026" x1="20.8445" y1="39.1751" x2="20.8445" y2="33.5859" gradientUnits="userSpaceOnUse">
<stop offset="0.1477" stop-color="#0F0F19"/>
<stop offset="0.9262" stop-color="#0F0F19" stop-opacity="0.0755"/>
<stop offset="0.9825" stop-color="#0F0F19" stop-opacity="0"/>
</linearGradient>
<linearGradient id="paint9_linear_58861_158026" x1="32.3535" y1="42.5202" x2="38.5276" y2="42.5202" gradientUnits="userSpaceOnUse">
<stop offset="0.1477" stop-color="#0F0F19"/>
<stop offset="0.9262" stop-color="#0F0F19" stop-opacity="0.0755"/>
<stop offset="0.9825" stop-color="#0F0F19" stop-opacity="0"/>
</linearGradient>
<linearGradient id="paint10_linear_58861_158026" x1="29.155" y1="39.1751" x2="29.155" y2="33.5859" gradientUnits="userSpaceOnUse">
<stop offset="0.1477" stop-color="#0F0F19"/>
<stop offset="0.9262" stop-color="#0F0F19" stop-opacity="0.0755"/>
<stop offset="0.9825" stop-color="#0F0F19" stop-opacity="0"/>
</linearGradient>
<linearGradient id="paint11_linear_58861_158026" x1="27.4851" y1="21.8633" x2="27.4851" y2="30.0363" gradientUnits="userSpaceOnUse">
<stop offset="0.1477" stop-color="#0F0F19"/>
<stop offset="0.5356" stop-color="#0F0F19" stop-opacity="0.8898"/>
<stop offset="0.7973" stop-color="#0F0F19" stop-opacity="0.5327"/>
<stop offset="1" stop-color="#0F0F19" stop-opacity="0"/>
</linearGradient>
<linearGradient id="paint12_linear_58861_158026" x1="32.4695" y1="15.0742" x2="32.4695" y2="30.0361" gradientUnits="userSpaceOnUse">
<stop offset="0.1477" stop-color="#0F0F19"/>
<stop offset="0.5356" stop-color="#0F0F19" stop-opacity="0.8898"/>
<stop offset="0.7973" stop-color="#0F0F19" stop-opacity="0.5327"/>
<stop offset="1" stop-color="#0F0F19" stop-opacity="0"/>
</linearGradient>
<linearGradient id="paint13_linear_58861_158026" x1="37.4558" y1="18.3984" x2="37.4558" y2="30.0355" gradientUnits="userSpaceOnUse">
<stop offset="0.1477" stop-color="#0F0F19"/>
<stop offset="0.5356" stop-color="#0F0F19" stop-opacity="0.8898"/>
<stop offset="0.7973" stop-color="#0F0F19" stop-opacity="0.5327"/>
<stop offset="1" stop-color="#0F0F19" stop-opacity="0"/>
</linearGradient>
<linearGradient id="paint14_linear_58861_158026" x1="42.4421" y1="8.42383" x2="42.4421" y2="30.0355" gradientUnits="userSpaceOnUse">
<stop offset="0.1477" stop-color="#0F0F19"/>
<stop offset="0.5356" stop-color="#0F0F19" stop-opacity="0.8898"/>
<stop offset="0.7973" stop-color="#0F0F19" stop-opacity="0.5327"/>
<stop offset="1" stop-color="#0F0F19" stop-opacity="0"/>
</linearGradient>
</defs>
</svg>
