<svg width="26" height="33" viewBox="0 0 26 33" fill="none" xmlns="http://www.w3.org/2000/svg">
<g id="Layer 2">
<path id="Vector" d="M24.1388 25.002L22.8929 24.9993C22.8981 22.6626 22.8934 20.594 22.889 18.5935C22.8817 15.383 22.8743 12.0631 22.9078 7.54639L24.1538 7.55557C24.1205 12.0664 24.1279 15.3831 24.1351 18.5908C24.1395 20.5927 24.1442 22.6626 24.1388 25.002Z" fill="url(#paint0_linear_6578_109099)"/>
<path id="Vector_2" d="M1.86953 30.0559L1.85938 26.2431L3.10537 26.2398L3.11223 28.8063L22.8743 28.7535C22.8823 27.8915 22.8878 27.0563 22.8906 26.2163L24.1366 26.2204C24.1333 27.2614 24.1257 28.2955 24.1139 29.3816L24.1072 29.9961L1.86953 30.0559Z" fill="url(#paint1_linear_6578_109099)"/>
<path id="Vector_3" d="M3.07412 7.5871L1.82812 7.58936L1.85967 25.0358L3.10567 25.0336L3.07412 7.5871Z" fill="url(#paint2_linear_6578_109099)"/>
<path id="Vector_4" d="M25.8378 6.31494H0.199219V7.56107H25.8378V6.31494Z" fill="url(#paint3_linear_6578_109099)"/>
<path id="Vector_5" d="M24.1515 6.35773H22.9055V3.86818H3.10006L3.10456 6.29423L1.85859 6.29662L1.85156 2.62207H24.1515V6.35773Z" fill="url(#paint4_linear_6578_109099)"/>
<path id="Vector_6" d="M13.206 18.8154C12.66 18.8154 12.1263 18.6535 11.6723 18.3502C11.2183 18.0469 10.8644 17.6158 10.6555 17.1114C10.4465 16.607 10.3918 16.0519 10.4983 15.5164C10.6048 14.981 10.8677 14.4891 11.2538 14.103C11.6399 13.7169 12.1317 13.454 12.6672 13.3475C13.2027 13.241 13.7578 13.2956 14.2622 13.5046C14.7666 13.7135 15.1977 14.0673 15.501 14.5213C15.8044 14.9753 15.9663 15.509 15.9662 16.055C15.9654 16.7868 15.6743 17.4884 15.1569 18.0059C14.6394 18.5234 13.9378 18.8145 13.206 18.8154ZM13.206 14.5406C12.9064 14.5405 12.6136 14.6293 12.3646 14.7957C12.1155 14.9621 11.9214 15.1987 11.8067 15.4754C11.6921 15.7521 11.6621 16.0566 11.7205 16.3504C11.7789 16.6442 11.9232 16.914 12.135 17.1258C12.3468 17.3376 12.6166 17.4819 12.9104 17.5403C13.2042 17.5988 13.5087 17.5688 13.7854 17.4542C14.0621 17.3395 14.2987 17.1454 14.4651 16.8964C14.6315 16.6473 14.7203 16.3545 14.7203 16.055C14.7198 15.6535 14.5602 15.2686 14.2763 14.9847C13.9924 14.7008 13.6075 14.541 13.206 14.5406Z" fill="url(#paint5_linear_6578_109099)"/>
<path id="Vector_7" d="M6.72402 16.5288C6.67635 15.3756 6.9527 14.2321 7.52174 13.228C8.09078 12.2239 8.92975 11.3993 9.94355 10.8477L10.5412 11.9411C9.6974 12.4055 9.00503 13.1028 8.54663 13.9498C8.133 14.7266 7.93371 15.5995 7.96924 16.4788L6.72402 16.5288Z" fill="url(#paint6_linear_6578_109099)"/>
<path id="Vector_8" d="M19.448 16.7515L18.2089 16.6195C18.3082 15.6615 18.1297 14.6951 17.6947 13.8358C17.292 13.0533 16.6882 12.3921 15.9453 11.9202L16.6137 10.8687C17.5886 11.4865 18.3709 12.3651 18.8719 13.4049C19.3728 14.4447 19.5724 15.604 19.448 16.7515Z" fill="url(#paint7_linear_6578_109099)"/>
<path id="Vector_9" d="M13.1588 22.1739C12.0142 22.1727 10.8924 21.8542 9.91797 21.2538L10.5705 20.1922C11.3926 20.6937 12.3416 20.9483 13.3043 20.9256C14.184 20.8989 15.0408 20.6384 15.7864 20.1709L16.448 21.227C15.5143 21.8121 14.4417 22.1381 13.3404 22.1713C13.2793 22.173 13.2187 22.1739 13.1588 22.1739Z" fill="url(#paint8_linear_6578_109099)"/>
<path id="Vector_10" d="M25.8026 25.0288H0.164062V26.2748H25.8026V25.0288Z" fill="url(#paint9_linear_6578_109099)"/>
<path id="Vector_11" d="M25.8026 31.2539H0.164062V32.4999H25.8026V31.2539Z" fill="url(#paint10_linear_6578_109099)"/>
<path id="Vector_12" d="M25.8026 0.074707H0.164062V1.32083H25.8026V0.074707Z" fill="url(#paint11_linear_6578_109099)"/>
</g>
<defs>
<linearGradient id="paint0_linear_6578_109099" x1="23.5183" y1="25.0021" x2="23.5183" y2="7.54639" gradientUnits="userSpaceOnUse">
<stop offset="0.1477" stop-color="#0F0F19"/>
<stop offset="0.4845" stop-color="#0F0F19" stop-opacity="0.765"/>
<stop offset="0.9289" stop-color="#0F0F19" stop-opacity="0.1004"/>
<stop offset="0.9825" stop-color="#0F0F19" stop-opacity="0"/>
</linearGradient>
<linearGradient id="paint1_linear_6578_109099" x1="12.998" y1="30.0559" x2="12.998" y2="26.2164" gradientUnits="userSpaceOnUse">
<stop offset="0.1477" stop-color="#0F0F19"/>
<stop offset="0.4845" stop-color="#0F0F19" stop-opacity="0.765"/>
<stop offset="0.9289" stop-color="#0F0F19" stop-opacity="0.1004"/>
<stop offset="0.9825" stop-color="#0F0F19" stop-opacity="0"/>
</linearGradient>
<linearGradient id="paint2_linear_6578_109099" x1="2.46692" y1="25.0358" x2="2.46692" y2="7.58712" gradientUnits="userSpaceOnUse">
<stop offset="0.1477" stop-color="#0F0F19"/>
<stop offset="0.4845" stop-color="#0F0F19" stop-opacity="0.765"/>
<stop offset="0.9289" stop-color="#0F0F19" stop-opacity="0.1004"/>
<stop offset="0.9825" stop-color="#0F0F19" stop-opacity="0"/>
</linearGradient>
<linearGradient id="paint3_linear_6578_109099" x1="0.199219" y1="6.93801" x2="25.8378" y2="6.93801" gradientUnits="userSpaceOnUse">
<stop stop-color="#0F0F19" stop-opacity="0"/>
<stop offset="0.0968" stop-color="#0F0F19" stop-opacity="0.3244"/>
<stop offset="0.3153" stop-color="#0F0F19" stop-opacity="0.8296"/>
<stop offset="0.5227" stop-color="#0F0F19"/>
<stop offset="0.7076" stop-color="#0F0F19" stop-opacity="0.8446"/>
<stop offset="0.8876" stop-color="#0F0F19" stop-opacity="0.3765"/>
<stop offset="0.9825" stop-color="#0F0F19" stop-opacity="0"/>
</linearGradient>
<linearGradient id="paint4_linear_6578_109099" x1="13.0015" y1="2.62201" x2="13.0015" y2="6.35772" gradientUnits="userSpaceOnUse">
<stop offset="0.1477" stop-color="#0F0F19"/>
<stop offset="0.4845" stop-color="#0F0F19" stop-opacity="0.765"/>
<stop offset="0.9289" stop-color="#0F0F19" stop-opacity="0.1004"/>
<stop offset="0.9825" stop-color="#0F0F19" stop-opacity="0"/>
</linearGradient>
<linearGradient id="paint5_linear_6578_109099" x1="13.2059" y1="13.2944" x2="13.2059" y2="18.8154" gradientUnits="userSpaceOnUse">
<stop offset="0.364" stop-color="#0F0F19"/>
<stop offset="0.8923" stop-color="#0F0F19" stop-opacity="0.0994"/>
<stop offset="0.9436" stop-color="#0F0F19" stop-opacity="0"/>
</linearGradient>
<linearGradient id="paint6_linear_6578_109099" x1="8.63015" y1="10.8477" x2="8.63015" y2="16.5288" gradientUnits="userSpaceOnUse">
<stop offset="0.364" stop-color="#0F0F19"/>
<stop offset="0.8923" stop-color="#0F0F19" stop-opacity="0.0994"/>
<stop offset="0.9436" stop-color="#0F0F19" stop-opacity="0"/>
</linearGradient>
<linearGradient id="paint7_linear_6578_109099" x1="17.7142" y1="10.8687" x2="17.7142" y2="16.7515" gradientUnits="userSpaceOnUse">
<stop offset="0.364" stop-color="#0F0F19"/>
<stop offset="0.8923" stop-color="#0F0F19" stop-opacity="0.0994"/>
<stop offset="0.9436" stop-color="#0F0F19" stop-opacity="0"/>
</linearGradient>
<linearGradient id="paint8_linear_6578_109099" x1="15.4403" y1="19.5499" x2="10.6306" y2="22.4398" gradientUnits="userSpaceOnUse">
<stop offset="0.0564" stop-color="#0F0F19" stop-opacity="0"/>
<stop offset="0.1253" stop-color="#0F0F19" stop-opacity="0.0994"/>
<stop offset="0.8347" stop-color="#0F0F19"/>
</linearGradient>
<linearGradient id="paint9_linear_6578_109099" x1="0.164062" y1="25.6518" x2="25.8026" y2="25.6518" gradientUnits="userSpaceOnUse">
<stop stop-color="#0F0F19" stop-opacity="0"/>
<stop offset="0.0968" stop-color="#0F0F19" stop-opacity="0.3244"/>
<stop offset="0.3153" stop-color="#0F0F19" stop-opacity="0.8296"/>
<stop offset="0.5227" stop-color="#0F0F19"/>
<stop offset="0.7076" stop-color="#0F0F19" stop-opacity="0.8446"/>
<stop offset="0.8876" stop-color="#0F0F19" stop-opacity="0.3765"/>
<stop offset="0.9825" stop-color="#0F0F19" stop-opacity="0"/>
</linearGradient>
<linearGradient id="paint10_linear_6578_109099" x1="0.164062" y1="31.8769" x2="25.8026" y2="31.8769" gradientUnits="userSpaceOnUse">
<stop stop-color="#0F0F19" stop-opacity="0"/>
<stop offset="0.0968" stop-color="#0F0F19" stop-opacity="0.3244"/>
<stop offset="0.3153" stop-color="#0F0F19" stop-opacity="0.8296"/>
<stop offset="0.5227" stop-color="#0F0F19"/>
<stop offset="0.7076" stop-color="#0F0F19" stop-opacity="0.8446"/>
<stop offset="0.8876" stop-color="#0F0F19" stop-opacity="0.3765"/>
<stop offset="0.9825" stop-color="#0F0F19" stop-opacity="0"/>
</linearGradient>
<linearGradient id="paint11_linear_6578_109099" x1="0.164062" y1="0.697777" x2="25.8026" y2="0.697777" gradientUnits="userSpaceOnUse">
<stop stop-color="#0F0F19" stop-opacity="0"/>
<stop offset="0.0968" stop-color="#0F0F19" stop-opacity="0.3244"/>
<stop offset="0.3153" stop-color="#0F0F19" stop-opacity="0.8296"/>
<stop offset="0.5227" stop-color="#0F0F19"/>
<stop offset="0.7076" stop-color="#0F0F19" stop-opacity="0.8446"/>
<stop offset="0.8876" stop-color="#0F0F19" stop-opacity="0.3765"/>
<stop offset="0.9825" stop-color="#0F0F19" stop-opacity="0"/>
</linearGradient>
</defs>
</svg>
