<svg width="26" height="32" viewBox="0 0 26 32" fill="none" xmlns="http://www.w3.org/2000/svg">
<g id="Layer 2">
<path id="Vector" d="M24.1369 24.502L22.8909 24.4993C22.8961 22.1626 22.8915 20.094 22.8871 18.0935C22.8798 14.883 22.8724 11.5631 22.9058 7.04639L24.1518 7.05557C24.1185 11.5664 24.1259 14.8831 24.1332 18.0908C24.1376 20.0927 24.1422 22.1626 24.1369 24.502Z" fill="#B72015"/>
<path id="Vector_2" d="M1.86904 29.5559L1.85889 25.7431L3.10489 25.7398L3.11174 28.3063L22.8738 28.2535C22.8819 27.3915 22.8873 26.5563 22.8901 25.7163L24.1361 25.7204C24.1328 26.7614 24.1252 27.7955 24.1134 28.8816L24.1067 29.4961L1.86904 29.5559Z" fill="#B72015"/>
<path id="Vector_3" d="M3.07461 7.0871L1.82861 7.08936L1.86016 24.5358L3.10616 24.5336L3.07461 7.0871Z" fill="#B72015"/>
<path id="Vector_4" d="M25.8358 5.81519H0.197266V7.06131H25.8358V5.81519Z" fill="#B72015"/>
<path id="Vector_5" d="M24.152 5.85749H22.906V3.36794H3.10055L3.10504 5.79399L1.85908 5.79638L1.85205 2.12183H24.152V5.85749Z" fill="#B72015"/>
<path id="Vector_6" d="M13.2055 18.3154C12.6595 18.3154 12.1258 18.1535 11.6718 17.8502C11.2178 17.5469 10.864 17.1158 10.655 16.6114C10.446 16.107 10.3914 15.5519 10.4978 15.0164C10.6043 14.481 10.8673 13.9891 11.2533 13.603C11.6394 13.2169 12.1312 12.954 12.6667 12.8475C13.2022 12.741 13.7573 12.7956 14.2617 13.0046C14.7661 13.2135 15.1972 13.5673 15.5006 14.0213C15.8039 14.4753 15.9658 15.009 15.9658 15.555C15.9649 16.2868 15.6738 16.9884 15.1564 17.5059C14.6389 18.0234 13.9373 18.3145 13.2055 18.3154ZM13.2055 14.0406C12.9059 14.0405 12.6131 14.1293 12.3641 14.2957C12.115 14.4621 11.9209 14.6987 11.8062 14.9754C11.6916 15.2521 11.6616 15.5566 11.72 15.8504C11.7784 16.1442 11.9227 16.414 12.1345 16.6258C12.3463 16.8376 12.6161 16.9819 12.9099 17.0403C13.2037 17.0988 13.5082 17.0688 13.7849 16.9542C14.0616 16.8395 14.2982 16.6454 14.4646 16.3964C14.631 16.1473 14.7198 15.8545 14.7198 15.555C14.7194 15.1535 14.5597 14.7686 14.2758 14.4847C13.9919 14.2008 13.607 14.041 13.2055 14.0406Z" fill="#B72015"/>
<path id="Vector_7" d="M6.725 16.0285C6.67732 14.8754 6.95367 13.7319 7.52272 12.7278C8.09176 11.7237 8.93073 10.899 9.94452 10.3474L10.5421 11.4408C9.69838 11.9052 9.00601 12.6025 8.54761 13.4496C8.13398 14.2263 7.93469 15.0993 7.97021 15.9786L6.725 16.0285Z" fill="#B72015"/>
<path id="Vector_8" d="M19.4456 16.2515L18.2065 16.1195C18.3058 15.1615 18.1273 14.1951 17.6923 13.3358C17.2896 12.5533 16.6858 11.8921 15.9429 11.4202L16.6113 10.3687C17.5862 10.9865 18.3685 11.8651 18.8694 12.9049C19.3704 13.9447 19.57 15.104 19.4456 16.2515Z" fill="#B72015"/>
<path id="Vector_9" d="M13.1573 21.6739C12.0127 21.6727 10.8909 21.3542 9.9165 20.7538L10.569 19.6922C11.3911 20.1937 12.3401 20.4483 13.3028 20.4256C14.1826 20.3989 15.0393 20.1384 15.785 19.6709L16.4465 20.727C15.5129 21.3121 14.4403 21.6381 13.3389 21.6713C13.2779 21.673 13.2172 21.6739 13.1573 21.6739Z" fill="#B72015"/>
<path id="Vector_10" d="M25.8016 24.5288H0.163086V25.7748H25.8016V24.5288Z" fill="#B72015"/>
<path id="Vector_11" d="M25.8016 30.7542H0.163086V32.0001H25.8016V30.7542Z" fill="#B72015"/>
<path id="Vector_12" d="M25.8016 -0.425293H0.163086V0.820832H25.8016V-0.425293Z" fill="#B72015"/>
</g>
</svg>
