<svg width="268" height="264" viewBox="0 0 268 264" fill="none" xmlns="http://www.w3.org/2000/svg">
<path d="M134 72.987C126.794 72.9869 119.749 70.8501 113.758 66.8466C107.766 62.8431 103.096 57.1528 100.339 50.4953C97.5812 43.8378 96.8597 36.5121 98.2655 29.4445C99.6714 22.377 103.141 15.885 108.237 10.7896C113.332 5.69414 119.824 2.2241 126.892 0.818269C133.959 -0.587567 141.285 0.133933 147.943 2.89154C154.6 5.64915 160.29 10.319 164.294 16.3106C168.297 22.3022 170.434 29.3463 170.434 36.5524C170.423 46.212 166.581 55.4729 159.751 62.3033C152.92 69.1338 143.659 72.9759 134 72.987ZM134 8.98838C128.548 8.98842 123.219 10.6051 118.686 13.6339C114.153 16.6627 110.62 20.9677 108.534 26.0044C106.448 31.0411 105.902 36.5834 106.965 41.9303C108.029 47.2772 110.654 52.1887 114.509 56.0436C118.364 59.8985 123.276 62.5236 128.623 63.5872C133.969 64.6507 139.512 64.1048 144.548 62.0185C149.585 59.9322 153.89 56.3992 156.919 51.8663C159.947 47.3333 161.564 42.0041 161.564 36.5524C161.556 29.2444 158.649 22.2382 153.481 17.0707C148.314 11.9033 141.308 8.99661 134 8.98838Z" fill="url(#paint0_linear_163_38511)"/>
<path d="M190.798 146.383H181.928V129.375C181.916 119.27 177.897 109.583 170.752 102.438C163.607 95.2928 153.92 91.2737 143.815 91.2623H124.185C114.081 91.2737 104.394 95.2928 97.2486 102.438C90.1036 109.583 86.0846 119.27 86.0731 129.375V146.383H77.2031V129.375C77.2172 116.918 82.1716 104.976 90.9795 96.1685C99.7874 87.3606 111.729 82.4061 124.186 82.3921H143.816C156.272 82.4061 168.214 87.3606 177.022 96.1685C185.83 104.976 190.784 116.918 190.798 129.375L190.798 146.383Z" fill="url(#paint1_linear_163_38511)"/>
<path d="M217.584 91.2623C211.262 91.2623 205.082 89.3877 199.825 85.8754C194.569 82.3631 190.472 77.371 188.052 71.5302C185.633 65.6895 185 59.2625 186.233 53.062C187.467 46.8615 190.511 41.166 194.981 36.6957C199.452 32.2254 205.147 29.1811 211.348 27.9477C217.548 26.7143 223.975 27.3473 229.816 29.7666C235.657 32.186 240.649 36.2829 244.161 41.5394C247.673 46.7959 249.548 52.9759 249.548 59.2979C249.538 67.7724 246.168 75.8971 240.175 81.8894C234.183 87.8818 226.058 91.2526 217.584 91.2623ZM217.584 36.2037C213.016 36.2037 208.551 37.5582 204.753 40.0958C200.955 42.6334 197.995 46.2402 196.247 50.4601C194.499 54.6801 194.042 59.3235 194.933 63.8034C195.824 68.2832 198.024 72.3982 201.254 75.628C204.483 78.8578 208.598 81.0573 213.078 81.9484C217.558 82.8395 222.202 82.3821 226.421 80.6342C230.641 78.8862 234.248 75.9262 236.786 72.1284C239.323 68.3305 240.678 63.8655 240.678 59.2979C240.671 53.175 238.236 47.3049 233.906 42.9754C229.577 38.6459 223.707 36.2105 217.584 36.2037Z" fill="url(#paint2_linear_163_38511)"/>
<path d="M267.066 141.674H258.196V171.302H267.066V141.674Z" fill="url(#paint3_linear_163_38511)"/>
<path d="M267.066 141.674H258.196C258.187 133.144 254.794 124.967 248.763 118.935C242.731 112.904 234.554 109.511 226.024 109.502V100.632C236.906 100.644 247.338 104.972 255.032 112.666C262.726 120.361 267.054 130.793 267.066 141.674Z" fill="#0F0F19"/>
<path d="M190.206 115.654L184.98 108.487C191.989 103.361 200.452 100.609 209.136 100.631H226.025V109.501H209.136C202.331 109.482 195.699 111.638 190.206 115.654Z" fill="url(#paint4_linear_163_38511)"/>
<path d="M50.4166 91.2623C44.0946 91.2623 37.9146 89.3876 32.6581 85.8753C27.4016 82.363 23.3046 77.3709 20.8853 71.5302C18.466 65.6894 17.833 59.2624 19.0664 53.062C20.2997 46.8615 23.344 41.166 27.8143 36.6957C32.2846 32.2254 37.9801 29.1811 44.1806 27.9477C50.3811 26.7143 56.8081 27.3473 62.6488 29.7667C68.4895 32.186 73.4817 36.2829 76.994 41.5394C80.5063 46.796 82.381 52.9759 82.381 59.2979C82.3713 67.7724 79.0005 75.8971 73.0081 81.8895C67.0157 87.8819 58.8911 91.2526 50.4166 91.2623ZM50.4166 36.2037C45.849 36.2037 41.3839 37.558 37.586 40.0956C33.7882 42.6332 30.8281 46.24 29.0801 50.4599C27.3321 54.6798 26.8747 59.3233 27.7658 63.8032C28.6568 68.283 30.8563 72.398 34.0861 75.6279C37.3159 78.8577 41.4309 81.0572 45.9107 81.9483C50.3905 82.8395 55.034 82.3821 59.254 80.6342C63.4739 78.8863 67.0807 75.9262 69.6184 72.1284C72.156 68.3305 73.5105 63.8655 73.5105 59.2979C73.5035 53.1751 71.0682 47.3051 66.7387 42.9756C62.4093 38.6462 56.5393 36.2108 50.4166 36.2037Z" fill="url(#paint5_linear_163_38511)"/>
<path d="M9.8037 141.674H0.933594V171.302H9.8037V141.674Z" fill="url(#paint6_linear_163_38511)"/>
<path d="M9.80359 141.674H0.933594C0.94598 130.793 5.274 120.361 12.9682 112.666C20.6624 104.972 31.0944 100.644 41.9756 100.632V109.502C33.446 109.511 25.2685 112.904 19.2371 118.935C13.2058 124.967 9.81314 133.144 9.80359 141.674Z" fill="#0F0F19"/>
<path d="M77.7944 115.655C72.3014 111.639 65.6689 109.483 58.8644 109.502H41.9756V100.632H58.8647C67.548 100.609 76.0114 103.362 83.02 108.488L77.7944 115.655Z" fill="url(#paint7_linear_163_38511)"/>
<path d="M133.096 263.882C120.646 263.882 108.474 260.19 98.1221 253.272C87.7697 246.355 79.7011 236.523 74.9364 225.02C70.1718 213.517 68.9251 200.86 71.3542 188.648C73.7833 176.437 79.7789 165.22 88.5829 156.416C97.3869 147.612 108.604 141.617 120.815 139.188C133.027 136.759 145.684 138.005 157.187 142.77C168.69 147.535 178.522 155.603 185.439 165.956C192.356 176.308 196.048 188.479 196.048 200.93C196.029 217.62 189.391 233.621 177.589 245.423C165.787 257.225 149.786 263.863 133.096 263.882ZM133.096 146.848C122.4 146.848 111.944 150.02 103.05 155.963C94.1564 161.905 87.2247 170.352 83.1314 180.234C79.0381 190.116 77.9671 200.99 80.0538 211.481C82.1406 221.972 87.2914 231.608 94.8549 239.172C102.418 246.735 112.055 251.886 122.546 253.973C133.036 256.059 143.91 254.988 153.793 250.895C163.675 246.802 172.121 239.87 178.064 230.976C184.006 222.083 187.178 211.626 187.178 200.93C187.162 186.592 181.459 172.845 171.32 162.706C161.181 152.567 147.435 146.864 133.096 146.848Z" fill="url(#paint8_linear_163_38511)"/>
<path d="M154.705 183.756H145.835C145.842 180.761 144.791 177.86 142.867 175.565C140.943 173.269 138.271 171.727 135.321 171.21L136.856 162.474C141.862 163.349 146.398 165.965 149.663 169.858C152.929 173.752 154.714 178.674 154.705 183.756Z" fill="url(#paint9_linear_163_38511)"/>
<path d="M127.652 203.638C113.325 197.881 111.487 189.989 111.487 183.756C111.499 178.783 113.22 173.965 116.363 170.11C119.505 166.256 123.877 163.599 128.746 162.586L130.524 171.275C127.655 171.874 125.079 173.44 123.228 175.713C121.377 177.985 120.363 180.825 120.357 183.756C120.357 188.438 122.092 191.845 130.96 195.408L127.652 203.638Z" fill="url(#paint10_linear_163_38511)"/>
<path d="M137.446 239.274L135.668 230.584C138.537 229.985 141.113 228.419 142.964 226.146C144.815 223.874 145.829 221.035 145.835 218.104C145.835 214.793 144.648 210.488 135.396 206.554L138.867 198.391C142.785 200.057 154.705 205.126 154.705 218.104C154.694 223.077 152.972 227.895 149.83 231.749C146.687 235.604 142.315 238.26 137.446 239.274Z" fill="url(#paint11_linear_163_38511)"/>
<path d="M128.746 239.274C123.877 238.261 119.505 235.604 116.363 231.749C113.22 227.895 111.499 223.077 111.487 218.104H120.357C120.363 221.035 121.377 223.875 123.228 226.147C125.079 228.419 127.655 229.986 130.524 230.584L128.746 239.274Z" fill="url(#paint12_linear_163_38511)"/>
<path d="M137.531 154.949H128.661V246.911H137.531V154.949Z" fill="url(#paint13_linear_163_38511)"/>
<defs>
<linearGradient id="paint0_linear_163_38511" x1="134" y1="72.987" x2="134" y2="0.118277" gradientUnits="userSpaceOnUse">
<stop stop-color="#0F0F19" stop-opacity="0"/>
<stop offset="0.1526" stop-color="#0F0F19" stop-opacity="0.3372"/>
<stop offset="0.4818" stop-color="#0F0F19" stop-opacity="0.8333"/>
<stop offset="0.8" stop-color="#0F0F19"/>
</linearGradient>
<linearGradient id="paint1_linear_163_38511" x1="134" y1="146.383" x2="134" y2="82.3921" gradientUnits="userSpaceOnUse">
<stop stop-color="#0F0F19" stop-opacity="0"/>
<stop offset="0.4807" stop-color="#0F0F19" stop-opacity="0.6777"/>
<stop offset="0.8683" stop-color="#0F0F19"/>
</linearGradient>
<linearGradient id="paint2_linear_163_38511" x1="217.584" y1="91.2623" x2="217.584" y2="27.3335" gradientUnits="userSpaceOnUse">
<stop stop-color="#0F0F19" stop-opacity="0"/>
<stop offset="0.1526" stop-color="#0F0F19" stop-opacity="0.3372"/>
<stop offset="0.4818" stop-color="#0F0F19" stop-opacity="0.8333"/>
<stop offset="0.8" stop-color="#0F0F19"/>
</linearGradient>
<linearGradient id="paint3_linear_163_38511" x1="262.631" y1="171.302" x2="262.631" y2="141.674" gradientUnits="userSpaceOnUse">
<stop stop-color="#0F0F19" stop-opacity="0"/>
<stop offset="0.29" stop-color="#0F0F19" stop-opacity="0.3317"/>
<stop offset="1" stop-color="#0F0F19"/>
</linearGradient>
<linearGradient id="paint4_linear_163_38511" x1="190.943" y1="118.03" x2="223.992" y2="97.3783" gradientUnits="userSpaceOnUse">
<stop offset="0.04" stop-color="#0F0F19" stop-opacity="0"/>
<stop offset="0.3994" stop-color="#0F0F19" stop-opacity="0.5782"/>
<stop offset="0.7785" stop-color="#0F0F19"/>
</linearGradient>
<linearGradient id="paint5_linear_163_38511" x1="50.4164" y1="91.2623" x2="50.4164" y2="27.3335" gradientUnits="userSpaceOnUse">
<stop stop-color="#0F0F19" stop-opacity="0"/>
<stop offset="0.1526" stop-color="#0F0F19" stop-opacity="0.3372"/>
<stop offset="0.4818" stop-color="#0F0F19" stop-opacity="0.8333"/>
<stop offset="0.8" stop-color="#0F0F19"/>
</linearGradient>
<linearGradient id="paint6_linear_163_38511" x1="5.3687" y1="171.302" x2="5.3687" y2="141.674" gradientUnits="userSpaceOnUse">
<stop stop-color="#0F0F19" stop-opacity="0"/>
<stop offset="0.29" stop-color="#0F0F19" stop-opacity="0.3317"/>
<stop offset="1" stop-color="#0F0F19"/>
</linearGradient>
<linearGradient id="paint7_linear_163_38511" x1="77.0574" y1="118.03" x2="44.0084" y2="97.3787" gradientUnits="userSpaceOnUse">
<stop offset="0.04" stop-color="#0F0F19" stop-opacity="0"/>
<stop offset="0.3994" stop-color="#0F0F19" stop-opacity="0.5782"/>
<stop offset="0.7785" stop-color="#0F0F19"/>
</linearGradient>
<linearGradient id="paint8_linear_163_38511" x1="133.096" y1="137.978" x2="133.096" y2="263.882" gradientUnits="userSpaceOnUse">
<stop offset="0.1845" stop-color="#0F0F19"/>
<stop offset="0.6819" stop-color="#0F0F19" stop-opacity="0.4529"/>
<stop offset="1" stop-color="#0F0F19" stop-opacity="0"/>
</linearGradient>
<linearGradient id="paint9_linear_163_38511" x1="135.321" y1="173.115" x2="154.705" y2="173.115" gradientUnits="userSpaceOnUse">
<stop offset="0.1042" stop-color="#0F0F19" stop-opacity="0"/>
<stop offset="0.2369" stop-color="#0F0F19" stop-opacity="0.3372"/>
<stop offset="0.5232" stop-color="#0F0F19" stop-opacity="0.8333"/>
<stop offset="0.8" stop-color="#0F0F19"/>
</linearGradient>
<linearGradient id="paint10_linear_163_38511" x1="130.96" y1="183.112" x2="111.487" y2="183.112" gradientUnits="userSpaceOnUse">
<stop offset="0.123" stop-color="#0F0F19" stop-opacity="0"/>
<stop offset="0.591" stop-color="#0F0F19" stop-opacity="0.6786"/>
<stop offset="0.9675" stop-color="#0F0F19"/>
</linearGradient>
<linearGradient id="paint11_linear_163_38511" x1="135.396" y1="218.833" x2="154.705" y2="218.833" gradientUnits="userSpaceOnUse">
<stop offset="0.1677" stop-color="#0F0F19" stop-opacity="0"/>
<stop offset="1" stop-color="#0F0F19"/>
</linearGradient>
<linearGradient id="paint12_linear_163_38511" x1="130.524" y1="228.689" x2="111.487" y2="228.689" gradientUnits="userSpaceOnUse">
<stop offset="0.1034" stop-color="#0F0F19" stop-opacity="0"/>
<stop offset="0.6051" stop-color="#0F0F19" stop-opacity="0.6877"/>
<stop offset="1" stop-color="#0F0F19"/>
</linearGradient>
<linearGradient id="paint13_linear_163_38511" x1="133.096" y1="246.911" x2="133.096" y2="154.949" gradientUnits="userSpaceOnUse">
<stop stop-color="#0F0F19" stop-opacity="0"/>
<stop offset="0.1044" stop-color="#0F0F19" stop-opacity="0.3372"/>
<stop offset="0.3295" stop-color="#0F0F19" stop-opacity="0.8333"/>
<stop offset="0.5472" stop-color="#0F0F19"/>
<stop offset="1" stop-color="#0F0F19" stop-opacity="0"/>
</linearGradient>
</defs>
</svg>
