<svg width="32" height="32" viewBox="0 0 32 32" fill="none" xmlns="http://www.w3.org/2000/svg">
<g clip-path="url(#clip0_5486_38570)">
<path d="M11.5841 24.0913H23.6953V24.7654H11.5841V24.0913Z" fill="url(#paint0_linear_5486_38570)"/>
<path d="M23.6811 18.9184H24.3906V12.7467H23.5217C23.3896 12.7466 23.263 12.6967 23.1696 12.6079C23.0762 12.5192 23.0237 12.3989 23.0235 12.2734H22.314C22.3143 12.5776 22.4417 12.8693 22.6681 13.0844C22.8945 13.2995 23.2015 13.4205 23.5217 13.4209H23.6811L23.6811 18.9184Z" fill="url(#paint1_linear_5486_38570)"/>
<path d="M22.3114 12.2736H23.0209C23.0211 12.1482 23.0736 12.0278 23.167 11.9391C23.2604 11.8504 23.387 11.8005 23.5191 11.8003H25.5234V11.1262H23.5191C23.1989 11.1266 22.8919 11.2476 22.6655 11.4627C22.4391 11.6778 22.3117 11.9694 22.3114 12.2736Z" fill="url(#paint2_linear_5486_38570)"/>
<path d="M23.6811 8.91895H24.3906V11.139H23.6811V8.91895Z" fill="url(#paint3_linear_5486_38570)"/>
<path d="M8.47317 21.9449H9.18277V9.19136C9.18333 8.85115 9.32592 8.52505 9.57926 8.28459C9.83259 8.04413 10.176 7.90896 10.5341 7.90872H23.6811V8.91898H24.3906V7.23462H10.5341C9.98783 7.23506 9.46408 7.44133 9.07772 7.80817C8.69137 8.17501 8.47397 8.67246 8.47321 9.19139L8.47317 21.9449Z" fill="#0F0F19"/>
<path d="M10.5379 24.7654H11.5859V24.0913H10.5379C10.1798 24.0911 9.83641 23.9559 9.58308 23.7154C9.32975 23.475 9.18717 23.1489 9.18659 22.8087V21.9448H8.47699V22.8087C8.47775 23.3276 8.69516 23.8251 9.08152 24.1919C9.46789 24.5588 9.99165 24.765 10.5379 24.7654Z" fill="#0F0F19"/>
<path d="M23.6811 24.0832H24.3906V20.5353H23.5217C23.3896 20.5352 23.263 20.4853 23.1696 20.3965C23.0762 20.3078 23.0237 20.1875 23.0235 20.062H22.314C22.3143 20.3662 22.4417 20.6579 22.6681 20.873C22.8945 21.0881 23.2015 21.2091 23.5217 21.2094H23.6811L23.6811 24.0832Z" fill="url(#paint4_linear_5486_38570)"/>
<path d="M22.3114 20.0622H23.0209C23.0211 19.9367 23.0736 19.8164 23.167 19.7277C23.2604 19.639 23.387 19.5891 23.5191 19.5889H25.5234V18.9148H23.5191C23.1989 18.9151 22.8919 19.0361 22.6655 19.2513C22.4391 19.4664 22.3117 19.758 22.3114 20.0622Z" fill="url(#paint5_linear_5486_38570)"/>
<path d="M12.121 9.6V11H11.879V9.6H12.121ZM12.1828 12.6L12.7068 14H12.4348L12.3028 13.642H11.6848L11.5528 14H11.2928L11.8148 12.6H12.1828ZM12.0008 12.81H11.9908L11.7628 13.428H12.2268L12.0008 12.81ZM12.0461 17.02H11.9881C11.7775 17.02 11.6248 16.9687 11.5301 16.866C11.4368 16.762 11.3901 16.598 11.3901 16.374V16.226C11.3901 16.002 11.4368 15.8387 11.5301 15.736C11.6248 15.632 11.7775 15.58 11.9881 15.58H12.0461C12.2195 15.58 12.3515 15.6167 12.4421 15.69C12.5341 15.7633 12.5961 15.878 12.6281 16.034H12.3781C12.3568 15.9527 12.3181 15.8933 12.2621 15.856C12.2075 15.8187 12.1315 15.8 12.0341 15.8H12.0021C11.8608 15.8 11.7641 15.8367 11.7121 15.91C11.6615 15.9833 11.6361 16.0973 11.6361 16.252V16.348C11.6361 16.5027 11.6615 16.6167 11.7121 16.69C11.7641 16.7633 11.8608 16.8 12.0021 16.8H12.0341C12.1315 16.8 12.2075 16.7813 12.2621 16.744C12.3181 16.7067 12.3568 16.6473 12.3781 16.566H12.6281C12.5961 16.722 12.5341 16.8367 12.4421 16.91C12.3515 16.9833 12.2195 17.02 12.0461 17.02ZM12.1828 18.6L12.7068 20H12.4348L12.3028 19.642H11.6848L11.5528 20H11.2928L11.8148 18.6H12.1828ZM12.0008 18.81H11.9908L11.7628 19.428H12.2268L12.0008 18.81ZM12.6133 22.248V22.354C12.6133 22.5767 12.5626 22.74 12.4613 22.844C12.3613 22.948 12.2053 23 11.9933 23H11.4093V21.6H11.9933C12.2053 21.6 12.3613 21.6527 12.4613 21.758C12.5626 21.862 12.6133 22.0253 12.6133 22.248ZM11.9893 21.812H11.6513V22.788H11.9893C12.1293 22.788 12.2266 22.75 12.2812 22.674C12.3373 22.5967 12.3653 22.4813 12.3653 22.328V22.272C12.3653 22.1173 12.3379 22.002 12.2833 21.926C12.2286 21.85 12.1306 21.812 11.9893 21.812Z" fill="black"/>
<path d="M15 16.5852L16.8116 18L21 14" stroke="url(#paint6_linear_5486_38570)" stroke-linecap="square"/>
</g>
<defs>
<linearGradient id="paint0_linear_5486_38570" x1="11.5841" y1="24.4284" x2="23.6953" y2="24.4284" gradientUnits="userSpaceOnUse">
<stop offset="0.1474" stop-color="#0F0F19"/>
<stop offset="0.477" stop-color="#0F0F19" stop-opacity="0.8057"/>
<stop offset="0.8609" stop-color="#0F0F19" stop-opacity="0.2414"/>
<stop offset="0.982" stop-color="#0F0F19" stop-opacity="0"/>
</linearGradient>
<linearGradient id="paint1_linear_5486_38570" x1="23.3523" y1="12.2734" x2="23.3523" y2="18.9184" gradientUnits="userSpaceOnUse">
<stop offset="0.1474" stop-color="#0F0F19"/>
<stop offset="0.5079" stop-color="#0F0F19" stop-opacity="0.7198"/>
<stop offset="1" stop-color="#0F0F19" stop-opacity="0"/>
</linearGradient>
<linearGradient id="paint2_linear_5486_38570" x1="22.3114" y1="11.6999" x2="25.5234" y2="11.6999" gradientUnits="userSpaceOnUse">
<stop offset="0.3119" stop-color="#0F0F19"/>
<stop offset="1" stop-color="#0F0F19" stop-opacity="0"/>
</linearGradient>
<linearGradient id="paint3_linear_5486_38570" x1="24.0359" y1="8.91895" x2="24.0359" y2="11.139" gradientUnits="userSpaceOnUse">
<stop offset="0.1474" stop-color="#0F0F19"/>
<stop offset="0.5086" stop-color="#0F0F19" stop-opacity="0.8709"/>
<stop offset="0.8019" stop-color="#0F0F19" stop-opacity="0.4676"/>
<stop offset="1" stop-color="#0F0F19" stop-opacity="0"/>
</linearGradient>
<linearGradient id="paint4_linear_5486_38570" x1="23.3523" y1="20.062" x2="23.3523" y2="24.0833" gradientUnits="userSpaceOnUse">
<stop offset="0.1474" stop-color="#0F0F19"/>
<stop offset="1" stop-color="#0F0F19" stop-opacity="0"/>
</linearGradient>
<linearGradient id="paint5_linear_5486_38570" x1="22.3114" y1="19.4885" x2="25.5234" y2="19.4885" gradientUnits="userSpaceOnUse">
<stop offset="0.3119" stop-color="#0F0F19"/>
<stop offset="1" stop-color="#0F0F19" stop-opacity="0"/>
</linearGradient>
<linearGradient id="paint6_linear_5486_38570" x1="15.389" y1="16.8375" x2="20.6758" y2="13.1395" gradientUnits="userSpaceOnUse">
<stop stop-color="#0F0F19"/>
<stop offset="0.677083" stop-color="#0F0F19"/>
<stop offset="1" stop-color="#0F0F19" stop-opacity="0"/>
</linearGradient>
<clipPath id="clip0_5486_38570">
<rect width="52" height="38" fill="white" transform="matrix(-1 0 0 1 43 -3)"/>
</clipPath>
</defs>
</svg>
