<svg width="33" height="32" viewBox="0 0 33 32" fill="none" xmlns="http://www.w3.org/2000/svg">
<g clip-path="url(#clip0_5486_38550)">
<rect width="32" height="32" transform="translate(0.5)" fill="white"/>
<g clip-path="url(#clip1_5486_38550)">
<path d="M12.0841 24.0913H24.1953V24.7654H12.0841V24.0913Z" fill="url(#paint0_linear_5486_38550)"/>
<path d="M24.1811 18.9184H24.8906V12.7467H24.0217C23.8896 12.7466 23.763 12.6967 23.6696 12.6079C23.5762 12.5192 23.5237 12.3989 23.5235 12.2734H22.814C22.8143 12.5776 22.9417 12.8693 23.1681 13.0844C23.3945 13.2995 23.7015 13.4205 24.0217 13.4209H24.1811L24.1811 18.9184Z" fill="url(#paint1_linear_5486_38550)"/>
<path d="M22.8114 12.2736H23.5209C23.5211 12.1482 23.5736 12.0278 23.667 11.9391C23.7604 11.8504 23.887 11.8005 24.0191 11.8003H26.0234V11.1262H24.0191C23.6989 11.1266 23.3919 11.2476 23.1655 11.4627C22.9391 11.6778 22.8117 11.9694 22.8114 12.2736Z" fill="url(#paint2_linear_5486_38550)"/>
<path d="M24.1811 8.91895H24.8906V11.139H24.1811V8.91895Z" fill="url(#paint3_linear_5486_38550)"/>
<path d="M8.97317 21.9449H9.68277V9.19136C9.68333 8.85115 9.82592 8.52505 10.0793 8.28459C10.3326 8.04413 10.676 7.90896 11.0341 7.90872H24.1811V8.91898H24.8906V7.23462H11.0341C10.4878 7.23506 9.96408 7.44133 9.57772 7.80817C9.19137 8.17501 8.97397 8.67246 8.97321 9.19139L8.97317 21.9449Z" fill="#0F0F19"/>
<path d="M11.0379 24.7654H12.0859V24.0913H11.0379C10.6798 24.0911 10.3364 23.9559 10.0831 23.7154C9.82975 23.475 9.68717 23.1489 9.68659 22.8087V21.9448H8.97699V22.8087C8.97775 23.3276 9.19516 23.8251 9.58152 24.1919C9.96789 24.5588 10.4916 24.765 11.0379 24.7654Z" fill="#0F0F19"/>
<path d="M24.1811 24.0832H24.8906V20.5353H24.0217C23.8896 20.5352 23.763 20.4853 23.6696 20.3965C23.5762 20.3078 23.5237 20.1875 23.5235 20.062H22.814C22.8143 20.3662 22.9417 20.6579 23.1681 20.873C23.3945 21.0881 23.7015 21.2091 24.0217 21.2094H24.1811L24.1811 24.0832Z" fill="url(#paint4_linear_5486_38550)"/>
<path d="M22.8114 20.0622H23.5209C23.5211 19.9367 23.5736 19.8164 23.667 19.7277C23.7604 19.639 23.887 19.5891 24.0191 19.5889H26.0234V18.9148H24.0191C23.6989 18.9151 23.3919 19.0361 23.1655 19.2513C22.9391 19.4664 22.8117 19.758 22.8114 20.0622Z" fill="url(#paint5_linear_5486_38550)"/>
<path d="M12.621 9.6V11H12.379V9.6H12.621ZM12.6828 12.6L13.2068 14H12.9348L12.8028 13.642H12.1848L12.0528 14H11.7928L12.3148 12.6H12.6828ZM12.5008 12.81H12.4908L12.2628 13.428H12.7268L12.5008 12.81ZM12.5461 17.02H12.4881C12.2775 17.02 12.1248 16.9687 12.0301 16.866C11.9368 16.762 11.8901 16.598 11.8901 16.374V16.226C11.8901 16.002 11.9368 15.8387 12.0301 15.736C12.1248 15.632 12.2775 15.58 12.4881 15.58H12.5461C12.7195 15.58 12.8515 15.6167 12.9421 15.69C13.0341 15.7633 13.0961 15.878 13.1281 16.034H12.8781C12.8568 15.9527 12.8181 15.8933 12.7621 15.856C12.7075 15.8187 12.6315 15.8 12.5341 15.8H12.5021C12.3608 15.8 12.2641 15.8367 12.2121 15.91C12.1615 15.9833 12.1361 16.0973 12.1361 16.252V16.348C12.1361 16.5027 12.1615 16.6167 12.2121 16.69C12.2641 16.7633 12.3608 16.8 12.5021 16.8H12.5341C12.6315 16.8 12.7075 16.7813 12.7621 16.744C12.8181 16.7067 12.8568 16.6473 12.8781 16.566H13.1281C13.0961 16.722 13.0341 16.8367 12.9421 16.91C12.8515 16.9833 12.7195 17.02 12.5461 17.02ZM12.6828 18.6L13.2068 20H12.9348L12.8028 19.642H12.1848L12.0528 20H11.7928L12.3148 18.6H12.6828ZM12.5008 18.81H12.4908L12.2628 19.428H12.7268L12.5008 18.81ZM13.1133 22.248V22.354C13.1133 22.5767 13.0626 22.74 12.9613 22.844C12.8613 22.948 12.7053 23 12.4933 23H11.9093V21.6H12.4933C12.7053 21.6 12.8613 21.6527 12.9613 21.758C13.0626 21.862 13.1133 22.0253 13.1133 22.248ZM12.4893 21.812H12.1513V22.788H12.4893C12.6293 22.788 12.7266 22.75 12.7812 22.674C12.8373 22.5967 12.8653 22.4813 12.8653 22.328V22.272C12.8653 22.1173 12.8379 22.002 12.7833 21.926C12.7286 21.85 12.6306 21.812 12.4893 21.812Z" fill="black"/>
</g>
<path d="M15.2344 13.4265L20.5013 18.6844" stroke="url(#paint6_linear_5486_38550)" stroke-linecap="square"/>
<path d="M20.2578 13.4265L14.9909 18.6844" stroke="url(#paint7_linear_5486_38550)" stroke-linecap="square"/>
</g>
<defs>
<linearGradient id="paint0_linear_5486_38550" x1="12.0841" y1="24.4284" x2="24.1953" y2="24.4284" gradientUnits="userSpaceOnUse">
<stop offset="0.1474" stop-color="#0F0F19"/>
<stop offset="0.477" stop-color="#0F0F19" stop-opacity="0.8057"/>
<stop offset="0.8609" stop-color="#0F0F19" stop-opacity="0.2414"/>
<stop offset="0.982" stop-color="#0F0F19" stop-opacity="0"/>
</linearGradient>
<linearGradient id="paint1_linear_5486_38550" x1="23.8523" y1="12.2734" x2="23.8523" y2="18.9184" gradientUnits="userSpaceOnUse">
<stop offset="0.1474" stop-color="#0F0F19"/>
<stop offset="0.5079" stop-color="#0F0F19" stop-opacity="0.7198"/>
<stop offset="1" stop-color="#0F0F19" stop-opacity="0"/>
</linearGradient>
<linearGradient id="paint2_linear_5486_38550" x1="22.8114" y1="11.6999" x2="26.0234" y2="11.6999" gradientUnits="userSpaceOnUse">
<stop offset="0.3119" stop-color="#0F0F19"/>
<stop offset="1" stop-color="#0F0F19" stop-opacity="0"/>
</linearGradient>
<linearGradient id="paint3_linear_5486_38550" x1="24.5359" y1="8.91895" x2="24.5359" y2="11.139" gradientUnits="userSpaceOnUse">
<stop offset="0.1474" stop-color="#0F0F19"/>
<stop offset="0.5086" stop-color="#0F0F19" stop-opacity="0.8709"/>
<stop offset="0.8019" stop-color="#0F0F19" stop-opacity="0.4676"/>
<stop offset="1" stop-color="#0F0F19" stop-opacity="0"/>
</linearGradient>
<linearGradient id="paint4_linear_5486_38550" x1="23.8523" y1="20.062" x2="23.8523" y2="24.0833" gradientUnits="userSpaceOnUse">
<stop offset="0.1474" stop-color="#0F0F19"/>
<stop offset="1" stop-color="#0F0F19" stop-opacity="0"/>
</linearGradient>
<linearGradient id="paint5_linear_5486_38550" x1="22.8114" y1="19.4885" x2="26.0234" y2="19.4885" gradientUnits="userSpaceOnUse">
<stop offset="0.3119" stop-color="#0F0F19"/>
<stop offset="1" stop-color="#0F0F19" stop-opacity="0"/>
</linearGradient>
<linearGradient id="paint6_linear_5486_38550" x1="15.2761" y1="13.215" x2="20.7055" y2="18.2458" gradientUnits="userSpaceOnUse">
<stop stop-color="#0F0F19" stop-opacity="0"/>
<stop offset="0.135417" stop-color="#0F0F19"/>
<stop offset="0.885417" stop-color="#0F0F19"/>
<stop offset="1" stop-color="#0F0F19" stop-opacity="0"/>
</linearGradient>
<linearGradient id="paint7_linear_5486_38550" x1="20.2161" y1="13.215" x2="14.7866" y2="18.2458" gradientUnits="userSpaceOnUse">
<stop stop-color="#0F0F19" stop-opacity="0"/>
<stop offset="0.130208" stop-color="#0F0F19"/>
<stop offset="0.880208" stop-color="#0F0F19"/>
<stop offset="1" stop-color="#0F0F19" stop-opacity="0"/>
</linearGradient>
<clipPath id="clip0_5486_38550">
<rect width="32" height="32" fill="white" transform="translate(0.5)"/>
</clipPath>
<clipPath id="clip1_5486_38550">
<rect width="52" height="38" fill="white" transform="matrix(-1 0 0 1 43.5 -3)"/>
</clipPath>
</defs>
</svg>
