<svg width="270" height="154" viewBox="0 0 270 154" fill="none" xmlns="http://www.w3.org/2000/svg">
<path d="M183.919 125.983C178.693 125.99 173.617 124.234 169.513 120.999L155.806 110.221L161.288 103.249L174.995 114.026C176.49 115.201 178.201 116.07 180.031 116.584C181.862 117.098 183.776 117.246 185.663 117.02C187.551 116.794 189.376 116.199 191.034 115.268C192.691 114.337 194.149 113.088 195.324 111.594L198.793 114.321L202.503 116.792L202.297 117.076C200.11 119.858 197.319 122.105 194.135 123.648C190.951 125.192 187.457 125.99 183.919 125.983Z" fill="url(#paint0_linear_79_57517)"/>
<path d="M163.656 139.761C158.43 139.768 153.355 138.011 149.25 134.777L141.37 128.582L146.853 121.609L154.733 127.804C157.753 130.173 161.589 131.247 165.401 130.791C169.212 130.335 172.686 128.386 175.063 125.372L182.035 130.854C179.848 133.636 177.057 135.883 173.873 137.427C170.688 138.97 167.195 139.768 163.656 139.761Z" fill="url(#paint1_linear_79_57517)"/>
<path d="M143.629 153.724C138.402 153.731 133.327 151.975 129.222 148.74L125.862 146.016L131.448 139.126L134.757 141.808C137.777 144.16 141.606 145.22 145.407 144.757C149.207 144.293 152.669 142.344 155.035 139.335L162.07 144.737L162.008 144.817C159.821 147.599 157.029 149.846 153.845 151.39C150.661 152.933 147.167 153.731 143.629 153.724Z" fill="url(#paint2_linear_79_57517)"/>
<path d="M60.332 75.262H34.0537V84.1316H60.332V75.262Z" fill="url(#paint3_linear_79_57517)"/>
<path d="M235.518 75.2629H208.244V84.1326H235.518V75.2629Z" fill="url(#paint4_linear_79_57517)"/>
<path d="M235.602 22.3943H198.795V31.2644H235.602V22.3943Z" fill="url(#paint5_linear_79_57517)"/>
<path d="M167.223 59.7799L144.676 42.0534C143.144 40.8531 141.228 40.2506 139.285 40.358C137.341 40.4655 135.503 41.2756 134.113 42.6374L123.739 52.8327C122.226 54.3216 120.434 55.4973 118.466 56.2927C116.498 57.0881 114.392 57.4875 112.269 57.4679C110.147 57.4484 108.049 57.0104 106.095 56.179C104.142 55.3476 102.372 54.1391 100.887 52.6227C99.4011 51.1064 98.2293 49.3119 97.4382 47.342C96.6471 45.3721 96.2523 43.2655 96.2764 41.1429C96.3006 39.0202 96.7431 36.9232 97.5788 34.9718C98.4144 33.0204 99.6268 31.253 101.146 29.7707L122.475 8.94163C125.367 6.13939 128.983 4.19899 132.916 3.33842C136.85 2.47785 140.946 2.7312 144.743 4.07003L193.56 21.4899C195.24 22.0907 197.011 22.3972 198.795 22.3961V31.2661C195.995 31.2676 193.215 30.7864 190.578 29.8437L141.763 12.4237C139.531 11.6367 137.123 11.4878 134.811 11.9938C132.498 12.4997 130.373 13.6405 128.673 15.2879L107.344 36.1171C106.603 36.8403 106.025 37.7133 105.649 38.6778C105.273 39.6424 105.107 40.6761 105.162 41.7099C105.218 42.7437 105.493 43.7538 105.971 44.6725C106.448 45.5912 107.116 46.3974 107.93 47.0371C109.321 48.1268 111.061 48.6738 112.826 48.5763C114.591 48.4788 116.26 47.7434 117.523 46.5071L127.896 36.3118C130.826 33.4425 134.7 31.7358 138.796 31.5094C142.891 31.283 146.929 32.5525 150.158 35.0813L172.705 52.8079L167.223 59.7799Z" fill="#0F0F19"/>
<path d="M203.908 110.783C197.687 110.791 191.646 108.701 186.76 104.85L170.241 91.8621L175.723 84.8894L192.243 97.8777C195.584 100.497 199.707 101.92 203.953 101.917C208.198 101.914 212.319 100.486 215.656 97.8611L167.225 59.7766L172.707 52.804L228.524 96.6961L225.783 100.182C223.18 103.493 219.858 106.168 216.068 108.005C212.278 109.841 208.119 110.791 203.908 110.783Z" fill="url(#paint6_linear_79_57517)"/>
<path d="M63.5322 108.898C59.5628 108.9 55.7091 107.562 52.5957 105.099L49.1084 102.358L54.5908 95.3855L58.0781 98.1266C58.9949 98.8474 60.0447 99.3806 61.1676 99.6957C62.2905 100.011 63.4644 100.102 64.6224 99.963C65.7803 99.8244 66.8997 99.4591 67.9164 98.8879C68.9332 98.3167 69.8275 97.5508 70.5483 96.634C71.2691 95.7172 71.8023 94.6674 72.1174 93.5445C72.4325 92.4217 72.5233 91.2477 72.3847 90.0898C72.2461 88.9318 71.8808 87.8124 71.3096 86.7957C70.7384 85.7789 69.9725 84.8846 69.0557 84.1638L65.5684 81.4226L71.0508 74.4495L74.5381 77.1912C77.2979 79.3611 79.3523 82.3007 80.4415 85.6382C81.5307 88.9758 81.6057 92.5613 80.6571 95.9415C79.7085 99.3217 77.7789 102.345 75.1122 104.628C72.4456 106.912 69.1617 108.353 65.6758 108.77C64.9644 108.855 64.2486 108.898 63.5322 108.898Z" fill="url(#paint7_linear_79_57517)"/>
<path d="M115.87 150.026C111.897 150.031 108.038 148.696 104.917 146.237L101.413 143.482L106.895 136.509L110.399 139.264C111.316 139.985 112.366 140.518 113.489 140.833C114.612 141.148 115.786 141.239 116.944 141.101C118.102 140.962 119.221 140.597 120.238 140.026C121.255 139.454 122.149 138.689 122.87 137.772C123.59 136.855 124.124 135.805 124.439 134.682C124.754 133.559 124.845 132.385 124.706 131.227C124.567 130.069 124.202 128.95 123.631 127.933C123.06 126.917 122.294 126.022 121.377 125.301L117.873 122.547L123.355 115.574L126.859 118.329C129.763 120.61 131.883 123.74 132.923 127.283C133.964 130.826 133.873 134.606 132.663 138.095C131.454 141.583 129.186 144.608 126.175 146.747C123.165 148.886 119.563 150.032 115.87 150.026Z" fill="url(#paint8_linear_79_57517)"/>
<path d="M98.4121 136.324C94.4429 136.326 90.5895 134.987 87.4766 132.524L83.9873 129.781L89.4697 122.808L92.959 125.551C93.8757 126.272 94.9254 126.805 96.0482 127.12C97.1709 127.436 98.3448 127.526 99.5027 127.388C100.661 127.249 101.78 126.884 102.797 126.313C103.813 125.742 104.708 124.976 105.428 124.059C106.149 123.143 106.682 122.093 106.997 120.97C107.313 119.848 107.403 118.674 107.265 117.516C107.126 116.358 106.761 115.239 106.19 114.222C105.619 113.205 104.853 112.311 103.936 111.59L100.447 108.846L105.93 101.873L109.419 104.617C112.179 106.787 114.233 109.727 115.322 113.064C116.412 116.402 116.487 119.987 115.538 123.367C114.589 126.748 112.66 129.77 109.993 132.054C107.326 134.337 104.042 135.779 100.557 136.196C99.845 136.281 99.1289 136.324 98.4121 136.324Z" fill="url(#paint9_linear_79_57517)"/>
<path d="M80.9717 122.611C77.0026 122.613 73.1492 121.274 70.0361 118.812L66.5518 116.073L72.0342 109.1L75.5186 111.84C77.3702 113.295 79.7242 113.956 82.0628 113.676C84.4014 113.396 86.5331 112.198 87.9888 110.347C89.4445 108.495 90.105 106.141 89.8251 103.803C89.5451 101.464 88.3477 99.3324 86.4961 97.8767L83.0117 95.1375L88.4941 88.1648L91.9785 90.9041C94.738 93.0741 96.7922 96.0136 97.8813 99.351C98.9704 102.688 99.0454 106.274 98.097 109.654C97.1485 113.034 95.2191 116.057 92.5528 118.34C89.8864 120.624 86.6028 122.066 83.1172 122.483C82.4051 122.568 81.6887 122.611 80.9717 122.611Z" fill="url(#paint10_linear_79_57517)"/>
<path d="M35.4941 31.2852L35.4902 22.4152L55.0908 22.4074C59.472 22.4189 63.8119 21.5611 67.8593 19.8838C71.9067 18.2065 75.5811 15.743 78.6699 12.6359C82.581 8.70174 87.2338 5.58258 92.3587 3.45905C97.4837 1.33552 102.979 0.249804 108.526 0.264802H123.418V9.13481H108.526C104.145 9.12293 99.804 9.98046 95.7559 11.6578C91.7078 13.3351 88.0327 15.7988 84.9434 18.9063C81.0333 22.84 76.3816 25.9588 71.2578 28.0824C66.134 30.2059 60.6398 31.2919 55.0934 31.2774L35.4941 31.2852Z" fill="url(#paint11_linear_79_57517)"/>
<path d="M269.945 93.9971H235.438V22.3921H269.945V31.2621H244.307V85.1281H269.945V93.9971Z" fill="url(#paint12_linear_79_57517)"/>
<path d="M34.5627 93.9959H0.0546875V85.127H25.6927V31.2889H0.0546875V22.4189H34.5627V93.9959Z" fill="url(#paint13_linear_79_57517)"/>
<defs>
<linearGradient id="paint0_linear_79_57517" x1="186.136" y1="104.569" x2="171.694" y2="123.173" gradientUnits="userSpaceOnUse">
<stop stop-color="#0F0F19" stop-opacity="0"/>
<stop offset="0.1526" stop-color="#0F0F19" stop-opacity="0.3372"/>
<stop offset="0.4818" stop-color="#0F0F19" stop-opacity="0.8333"/>
<stop offset="0.8" stop-color="#0F0F19"/>
</linearGradient>
<linearGradient id="paint1_linear_79_57517" x1="168.773" y1="120.611" x2="154.611" y2="138.994" gradientUnits="userSpaceOnUse">
<stop stop-color="#0F0F19" stop-opacity="0"/>
<stop offset="0.1526" stop-color="#0F0F19" stop-opacity="0.3372"/>
<stop offset="0.4818" stop-color="#0F0F19" stop-opacity="0.8333"/>
<stop offset="0.8" stop-color="#0F0F19"/>
</linearGradient>
<linearGradient id="paint2_linear_79_57517" x1="151.415" y1="136.285" x2="137.458" y2="154.688" gradientUnits="userSpaceOnUse">
<stop stop-color="#0F0F19" stop-opacity="0"/>
<stop offset="0.1526" stop-color="#0F0F19" stop-opacity="0.3372"/>
<stop offset="0.4818" stop-color="#0F0F19" stop-opacity="0.8333"/>
<stop offset="0.8" stop-color="#0F0F19"/>
</linearGradient>
<linearGradient id="paint3_linear_79_57517" x1="34.0527" y1="79.6968" x2="60.333" y2="79.6968" gradientUnits="userSpaceOnUse">
<stop offset="0.4912" stop-color="#0F0F19"/>
<stop offset="0.71" stop-color="#0F0F19" stop-opacity="0.7061"/>
<stop offset="1" stop-color="#0F0F19" stop-opacity="0"/>
</linearGradient>
<linearGradient id="paint4_linear_79_57517" x1="208.243" y1="79.6977" x2="235.519" y2="79.6977" gradientUnits="userSpaceOnUse">
<stop stop-color="#0F0F19" stop-opacity="0"/>
<stop offset="0.4912" stop-color="#0F0F19"/>
<stop offset="0.9997" stop-color="#0F0F19"/>
</linearGradient>
<linearGradient id="paint5_linear_79_57517" x1="198.605" y1="25.7733" x2="235.791" y2="27.8367" gradientUnits="userSpaceOnUse">
<stop offset="0.1307" stop-color="#0F0F19"/>
<stop offset="0.9769" stop-color="#0F0F19"/>
</linearGradient>
<linearGradient id="paint6_linear_79_57517" x1="228.524" y1="81.7935" x2="167.224" y2="81.7935" gradientUnits="userSpaceOnUse">
<stop offset="0.0383" stop-color="#0F0F19" stop-opacity="0"/>
<stop offset="0.7041" stop-color="#0F0F19"/>
</linearGradient>
<linearGradient id="paint7_linear_79_57517" x1="60.0796" y1="88.379" x2="77.5208" y2="102.092" gradientUnits="userSpaceOnUse">
<stop stop-color="#0F0F19" stop-opacity="0"/>
<stop offset="0.1526" stop-color="#0F0F19" stop-opacity="0.3372"/>
<stop offset="0.4818" stop-color="#0F0F19" stop-opacity="0.8333"/>
<stop offset="0.8" stop-color="#0F0F19"/>
</linearGradient>
<linearGradient id="paint8_linear_79_57517" x1="112.384" y1="129.503" x2="129.843" y2="143.23" gradientUnits="userSpaceOnUse">
<stop stop-color="#0F0F19" stop-opacity="0"/>
<stop offset="0.1526" stop-color="#0F0F19" stop-opacity="0.3372"/>
<stop offset="0.4818" stop-color="#0F0F19" stop-opacity="0.8333"/>
<stop offset="0.8" stop-color="#0F0F19"/>
</linearGradient>
<linearGradient id="paint9_linear_79_57517" x1="94.9583" y1="115.802" x2="112.402" y2="129.517" gradientUnits="userSpaceOnUse">
<stop stop-color="#0F0F19" stop-opacity="0"/>
<stop offset="0.1526" stop-color="#0F0F19" stop-opacity="0.3372"/>
<stop offset="0.4818" stop-color="#0F0F19" stop-opacity="0.8333"/>
<stop offset="0.8" stop-color="#0F0F19"/>
</linearGradient>
<linearGradient id="paint10_linear_79_57517" x1="77.5229" y1="102.094" x2="94.9607" y2="115.804" gradientUnits="userSpaceOnUse">
<stop stop-color="#0F0F19" stop-opacity="0"/>
<stop offset="0.1526" stop-color="#0F0F19" stop-opacity="0.3372"/>
<stop offset="0.4818" stop-color="#0F0F19" stop-opacity="0.8333"/>
<stop offset="0.8" stop-color="#0F0F19"/>
</linearGradient>
<linearGradient id="paint11_linear_79_57517" x1="35.4902" y1="15.775" x2="123.418" y2="15.775" gradientUnits="userSpaceOnUse">
<stop stop-color="#0F0F19" stop-opacity="0"/>
<stop offset="0.4912" stop-color="#0F0F19"/>
<stop offset="0.71" stop-color="#0F0F19" stop-opacity="0.7061"/>
<stop offset="1" stop-color="#0F0F19" stop-opacity="0"/>
</linearGradient>
<linearGradient id="paint12_linear_79_57517" x1="235.437" y1="58.1946" x2="269.945" y2="58.1946" gradientUnits="userSpaceOnUse">
<stop offset="0.2219" stop-color="#0F0F19"/>
<stop offset="0.9476" stop-color="#0F0F19" stop-opacity="0.0755"/>
<stop offset="1" stop-color="#0F0F19" stop-opacity="0"/>
</linearGradient>
<linearGradient id="paint13_linear_79_57517" x1="34.5622" y1="58.2073" x2="0.0543872" y2="58.2073" gradientUnits="userSpaceOnUse">
<stop offset="0.2219" stop-color="#0F0F19"/>
<stop offset="0.9476" stop-color="#0F0F19" stop-opacity="0.0755"/>
<stop offset="1" stop-color="#0F0F19" stop-opacity="0"/>
</linearGradient>
</defs>
</svg>
