<svg width="34" height="37" viewBox="0 0 34 37" fill="none" xmlns="http://www.w3.org/2000/svg">
<path d="M23.2013 21.6523H10.793V23.0747H23.2013V21.6523Z" fill="url(#paint0_linear_7269_54892)"/>
<path d="M23.2013 30.9297H10.793V32.3521H23.2013V30.9297Z" fill="#0F0F19"/>
<path d="M6.13826 26.2969H1.85547V27.7192H6.13826V26.2969Z" fill="url(#paint1_linear_7269_54892)"/>
<path d="M34 27.7173H32.1528V26.2949H32.5734V10.7036H1.42658V26.2949H1.85488V27.7173H0V9.28125H34V27.7173Z" fill="#0F0F19"/>
<path d="M32.1515 26.2969H27.75V27.7192H32.1515V26.2969Z" fill="url(#paint2_linear_7269_54892)"/>
<path d="M27.7889 9.99269H26.3623V1.42235H7.63752V9.99269H6.21094V0H27.7889V9.99269Z" fill="#0F0F19"/>
<path d="M27.789 37.0008H6.21094V17.0078H27.789V37.0008ZM7.63754 35.5784H26.3624V18.4302H7.63754V35.5784Z" fill="#0F0F19"/>
<path d="M23.2013 26.293H10.793V27.7153H23.2013V26.293Z" fill="url(#paint3_linear_7269_54892)"/>
<defs>
<linearGradient id="paint0_linear_7269_54892" x1="10.793" y1="22.3635" x2="23.2013" y2="22.3635" gradientUnits="userSpaceOnUse">
<stop/>
<stop offset="0.0944" stop-color="#0F0F19"/>
<stop offset="0.2722" stop-color="#0F0F19"/>
<stop offset="0.5143" stop-color="#F5F3F5" stop-opacity="0.5557"/>
<stop offset="0.8082" stop-color="#F5F3F5" stop-opacity="0.2288"/>
<stop offset="1" stop-color="#F5F3F5" stop-opacity="0"/>
</linearGradient>
<linearGradient id="paint1_linear_7269_54892" x1="1.85547" y1="27.0081" x2="6.13826" y2="27.0081" gradientUnits="userSpaceOnUse">
<stop stop-color="#F5F3F5"/>
<stop offset="0.0944" stop-color="#F5F3F5" stop-opacity="0.9438"/>
<stop offset="0.2722" stop-color="#F5F3F5" stop-opacity="0.7956"/>
<stop offset="0.5143" stop-color="#F5F3F5" stop-opacity="0.5557"/>
<stop offset="0.8082" stop-color="#F5F3F5" stop-opacity="0.2288"/>
<stop offset="1" stop-color="#F5F3F5" stop-opacity="0"/>
</linearGradient>
<linearGradient id="paint2_linear_7269_54892" x1="32.1515" y1="27.0081" x2="27.75" y2="27.0081" gradientUnits="userSpaceOnUse">
<stop stop-color="#F5F3F5"/>
<stop offset="0.0944" stop-color="#F5F3F5" stop-opacity="0.9438"/>
<stop offset="0.2722" stop-color="#F5F3F5" stop-opacity="0.7956"/>
<stop offset="0.5143" stop-color="#F5F3F5" stop-opacity="0.5557"/>
<stop offset="0.8082" stop-color="#F5F3F5" stop-opacity="0.2288"/>
<stop offset="1" stop-color="#F5F3F5" stop-opacity="0"/>
</linearGradient>
<linearGradient id="paint3_linear_7269_54892" x1="10.793" y1="27.0041" x2="23.2013" y2="27.0041" gradientUnits="userSpaceOnUse">
<stop/>
<stop offset="0.0944" stop-color="#0F0F19"/>
<stop offset="0.2722" stop-color="#0F0F19"/>
<stop offset="0.5143" stop-color="#F5F3F5" stop-opacity="0.5557"/>
<stop offset="0.8082" stop-color="#F5F3F5" stop-opacity="0.2288"/>
<stop offset="1" stop-color="#F5F3F5" stop-opacity="0"/>
</linearGradient>
</defs>
</svg>
