<svg width="24" height="24" viewBox="0 0 24 24" fill="none" xmlns="http://www.w3.org/2000/svg">
<g id="Icons  32PX">
<path id="Vector" d="M16.8595 20.7418C15.387 21.562 13.7246 22 12 22C6.47715 22 2 17.5228 2 12C2 6.47715 6.47715 2 12 2C17.5228 2 22 6.47715 22 12C22 13.7246 21.562 15.387 20.7418 16.8595L21.0947 21.0947L16.8595 20.7418ZM16.3916 18.6958L18.9053 18.9053L18.6958 16.3916L18.8621 16.115C19.603 14.8824 20 13.4715 20 12C20 7.58172 16.4183 4 12 4C7.58172 4 4 7.58172 4 12C4 16.4183 7.58172 20 12 20C13.4715 20 14.8824 19.603 16.115 18.8621L16.3916 18.6958ZM12.0003 16.9983C11.4479 16.9983 11 16.5506 11 15.9983C11 15.4461 11.4479 14.9983 12.0003 14.9983C12.5528 14.9983 13.0007 15.4461 13.0007 15.9983C13.0007 16.5506 12.5528 16.9983 12.0003 16.9983ZM13 14H11V13C11 12.2627 11.3827 11.7005 11.9775 11.2287C12.1564 11.0867 12.2102 11.0511 12.534 10.8458C12.8225 10.6629 13 10.3473 13 10C13 9.44772 12.5523 9 12 9C11.4477 9 11 9.44772 11 10H9C9 8.34315 10.3431 7 12 7C13.6569 7 15 8.34315 15 10C15 11.0396 14.4661 11.989 13.6048 12.535C13.3517 12.6954 13.3207 12.716 13.2205 12.7955C13.0563 12.9257 13 13.0084 13 13V14Z" fill="black"/>
</g>
</svg>
