<svg width="24" height="25" viewBox="0 0 24 25" fill="none" xmlns="http://www.w3.org/2000/svg">
<path fill-rule="evenodd" clip-rule="evenodd" d="M12 22.5C13.7246 22.5 15.387 22.062 16.8595 21.2418L21.0947 21.5947L20.7418 17.3595C21.562 15.887 22 14.2246 22 12.5C22 6.97715 17.5228 2.5 12 2.5C6.47715 2.5 2 6.97715 2 12.5C2 18.0228 6.47715 22.5 12 22.5ZM18.9053 19.4053L16.3916 19.1958L16.115 19.3621C14.8824 20.103 13.4715 20.5 12 20.5C7.58172 20.5 4 16.9183 4 12.5C4 8.08172 7.58172 4.5 12 4.5C16.4183 4.5 20 8.08172 20 12.5C20 13.9715 19.603 15.3824 18.8621 16.615L18.6958 16.8916L18.9053 19.4053Z" fill="black"/>
<path d="M13.5967 8.1L16.7407 16.5H15.1087L14.3167 14.352H10.6087L9.81673 16.5H8.25673L11.3887 8.1H13.5967ZM12.5047 9.36H12.4447L11.0767 13.068H13.8607L12.5047 9.36Z" fill="black"/>
</svg>
