<svg width="33" height="30" viewBox="0 0 33 30" fill="none" xmlns="http://www.w3.org/2000/svg">
<path d="M15.6906 26.9009C9.20352 26.0946 4.26356 20.7624 3.94297 14.2231C3.87618 12.8497 4.01583 11.4848 4.36071 10.166L5.40262 10.438C5.08567 11.6499 4.95695 12.9055 5.01888 14.1697C5.31275 20.1856 9.85685 25.0891 15.8229 25.8311L15.6906 26.8997V26.9009Z" fill="#0F0F1A"/>
<path d="M18.021 26.9868L17.9688 25.9109C21.0459 25.7603 23.9385 24.4779 26.1122 22.2982C28.2713 20.1342 29.5488 17.2683 29.7079 14.2288L30.7838 14.2847C30.6101 17.5902 29.2221 20.7062 26.8748 23.0584C24.5104 25.4276 21.3665 26.8228 18.021 26.9856V26.9868Z" fill="#0F0F1A"/>
<path d="M29.4702 11.0646C28.8837 8.20721 27.288 5.63765 24.9771 3.82948C22.6431 2.0031 19.7251 1.07656 16.7608 1.22106C12.1937 1.4445 8.1414 4.15371 6.18387 8.291L5.20996 7.83076C7.3375 3.33282 11.7432 0.388021 16.7074 0.145151C19.9303 -0.0127143 23.1022 0.995195 25.6401 2.98065C28.1514 4.94668 29.8867 7.73968 30.5243 10.8484L29.469 11.0646H29.4702Z" fill="#0F0F1A"/>
<path d="M18.2736 27.4401L17.1904 26.5257L18.1158 25.4303L18.9379 26.1249L18.7084 26.3969L18.9682 26.6167L18.2736 27.4401Z" fill="#0F0F1A"/>
<path d="M18.9371 26.5894L18.2422 27.4123L21.1536 29.8709L21.8485 29.048L18.9371 26.5894Z" fill="url(#paint0_linear_56775_4194)"/>
<path d="M20.5748 22.5191L18.1162 25.4305L18.9392 26.1254L21.3977 23.214L20.5748 22.5191Z" fill="url(#paint1_linear_56775_4194)"/>
<path d="M4.80082 11.3362L4.63445 11.0229L4.33329 11.182L3.82812 10.2311L5.0789 9.56566L5.75165 10.831L4.80082 11.3362Z" fill="#0F0F1A"/>
<path d="M3.86396 10.2132L0.5 12.0033L1.00601 12.9542L4.36997 11.164L3.86396 10.2132Z" fill="url(#paint2_linear_56775_4194)"/>
<path d="M5.75067 10.8333L4.7998 11.3393L6.58996 14.7032L7.54083 14.1972L5.75067 10.8333Z" fill="url(#paint3_linear_56775_4194)"/>
<path d="M30.5121 11.8234L29.1885 11.2733L29.6026 10.2787L29.9317 10.4159L30.0616 10.1014L31.0561 10.5155L30.5121 11.8234Z" fill="#0F0F1A"/>
<path d="M31.5061 6.62009L30.043 10.1386L31.0375 10.5522L32.5007 7.03368L31.5061 6.62009Z" fill="url(#paint4_linear_56775_4194)"/>
<path d="M26.0825 8.81384L25.6689 9.8084L29.1875 11.2716L29.6011 10.277L26.0825 8.81384Z" fill="url(#paint5_linear_56775_4194)"/>
<defs>
<linearGradient id="paint0_linear_56775_4194" x1="18.5888" y1="26.9962" x2="21.5002" y2="29.4548" gradientUnits="userSpaceOnUse">
<stop offset="0.15" stop-color="#0F0F1A"/>
<stop offset="0.48" stop-color="#0F0F1A" stop-opacity="0.77"/>
<stop offset="0.91" stop-color="#0F0F1A" stop-opacity="0.14"/>
<stop offset="0.98" stop-color="#0F0F1A" stop-opacity="0"/>
</linearGradient>
<linearGradient id="paint1_linear_56775_4194" x1="18.5135" y1="25.7787" x2="20.9721" y2="22.8673" gradientUnits="userSpaceOnUse">
<stop offset="0.15" stop-color="#0F0F1A"/>
<stop offset="0.48" stop-color="#0F0F1A" stop-opacity="0.77"/>
<stop offset="0.91" stop-color="#0F0F1A" stop-opacity="0.14"/>
<stop offset="0.98" stop-color="#0F0F1A" stop-opacity="0"/>
</linearGradient>
<linearGradient id="paint2_linear_56775_4194" x1="4.11503" y1="10.6876" x2="0.751079" y2="12.4777" gradientUnits="userSpaceOnUse">
<stop offset="0.15" stop-color="#0F0F1A"/>
<stop offset="0.48" stop-color="#0F0F1A" stop-opacity="0.77"/>
<stop offset="0.91" stop-color="#0F0F1A" stop-opacity="0.14"/>
<stop offset="0.98" stop-color="#0F0F1A" stop-opacity="0"/>
</linearGradient>
<linearGradient id="paint3_linear_56775_4194" x1="5.28006" y1="11.0837" x2="7.07022" y2="14.4476" gradientUnits="userSpaceOnUse">
<stop offset="0.15" stop-color="#0F0F1A"/>
<stop offset="0.48" stop-color="#0F0F1A" stop-opacity="0.77"/>
<stop offset="0.91" stop-color="#0F0F1A" stop-opacity="0.14"/>
<stop offset="0.98" stop-color="#0F0F1A" stop-opacity="0"/>
</linearGradient>
<linearGradient id="paint4_linear_56775_4194" x1="30.5495" y1="10.3216" x2="32.0127" y2="6.80311" gradientUnits="userSpaceOnUse">
<stop offset="0.15" stop-color="#0F0F1A"/>
<stop offset="0.48" stop-color="#0F0F1A" stop-opacity="0.77"/>
<stop offset="0.91" stop-color="#0F0F1A" stop-opacity="0.14"/>
<stop offset="0.98" stop-color="#0F0F1A" stop-opacity="0"/>
</linearGradient>
<linearGradient id="paint5_linear_56775_4194" x1="29.3995" y1="10.7903" x2="25.8809" y2="9.32709" gradientUnits="userSpaceOnUse">
<stop offset="0.15" stop-color="#0F0F1A"/>
<stop offset="0.48" stop-color="#0F0F1A" stop-opacity="0.77"/>
<stop offset="0.91" stop-color="#0F0F1A" stop-opacity="0.14"/>
<stop offset="0.98" stop-color="#0F0F1A" stop-opacity="0"/>
</linearGradient>
</defs>
</svg>
