<svg width="48" height="42" viewBox="0 0 48 42" fill="none" xmlns="http://www.w3.org/2000/svg">
<path d="M0.540256 -2.88605e-07L1.70257 4.31335C1.71322 4.35249 2.82585 8.34021 6.22762 12.2105C10.6143 17.1982 16.6104 19.725 24.0599 19.725L24.0599 9.46837L47.4766 25.3676L24.0599 42L24.0599 31.1063C21.2366 31.222 12.2433 31.0618 6.0271 24.9192C1.36541 20.3122 -0.609643 13.4258 0.160503 4.45214L0.542034 -2.8845e-07L0.540256 -2.88605e-07ZM24.0865 21.3034C14.1882 21.3034 8.25591 16.926 4.99787 13.1998C3.42741 11.4026 2.32188 9.60361 1.56948 8.12667C1.57303 14.8885 3.43806 20.1485 7.12908 23.7964C13.9078 30.4942 24.6579 29.4924 24.7661 29.4817L25.6321 29.3945L25.6321 38.95L44.7101 25.3979L25.6321 12.4436L25.6321 21.2767L24.8637 21.2945C24.6029 21.2998 24.342 21.3034 24.0865 21.3034Z" fill="url(#paint0_linear_2343_306179)"/>
<defs>
<linearGradient id="paint0_linear_2343_306179" x1="47.4766" y1="21.0009" x2="-0.00452395" y2="21.0009" gradientUnits="userSpaceOnUse">
<stop stop-color="#0F0F19"/>
<stop offset="0.46" stop-color="#0F0F19" stop-opacity="0.65"/>
<stop offset="1" stop-color="#0F0F19" stop-opacity="0"/>
</linearGradient>
</defs>
</svg>
