<svg width="212" height="228" viewBox="0 0 212 228" fill="none" xmlns="http://www.w3.org/2000/svg">
<path d="M106 227.7C101.28 227.784 96.5612 227.449 91.9 226.7C89.0694 226.298 86.4237 225.059 84.3031 223.141C82.1825 221.224 80.6839 218.716 80 215.94C79.05 212.51 77.76 207.69 76.51 203.03C75.26 198.37 73.98 193.53 73.03 190.11C72.37 187.77 70.73 184.91 69.43 183.88L69.26 183.75C68.4809 183.096 67.6517 182.504 66.78 181.98C65.8855 181.492 64.9563 181.071 64 180.72L63.78 180.63C62.26 180.03 58.97 180.04 56.61 180.63C53.19 181.51 48.38 182.81 43.73 184.06C39.08 185.31 34.22 186.61 30.73 187.51C27.9816 188.312 25.0558 188.272 22.3303 187.395C19.6047 186.518 17.2047 184.844 15.44 182.59C12.4687 178.924 9.82833 175.002 7.55001 170.87C5.1093 166.828 3.03118 162.578 1.34001 158.17C0.272856 155.514 0.0264021 152.6 0.632488 149.803C1.23857 147.006 2.66936 144.455 4.74002 142.48C7.24002 139.92 10.74 136.39 14.21 132.97C17.68 129.55 21.14 126.04 23.62 123.52C25.3249 121.785 26.5603 119.644 27.21 117.3V117.08C27.5967 115.058 27.5967 112.982 27.21 110.96V110.72C26.5551 108.381 25.3163 106.248 23.61 104.52C21.14 102 17.61 98.5199 14.21 95.0699C10.81 91.6199 7.21001 88.0698 4.73001 85.5598C2.66251 83.5801 1.23481 81.027 0.630657 78.229C0.0265046 75.431 0.273554 72.5162 1.34001 69.8598C3.03396 65.456 5.11197 61.2096 7.55001 57.1698C9.83165 53.0365 12.4718 49.1114 15.44 45.4398C17.2077 43.1891 19.6084 41.5188 22.3332 40.6438C25.0581 39.7688 27.9824 39.7291 30.73 40.5298C34.2 41.4298 39.03 42.7298 43.73 43.9798C48.43 45.2298 53.19 46.5299 56.61 47.4099C58.9685 48.0143 61.4414 48.0143 63.8 47.4099L64 47.3298C64.9563 46.9786 65.8855 46.5575 66.78 46.0699C67.6591 45.535 68.498 44.9368 69.29 44.2798L69.49 44.1198C71.1867 42.3839 72.418 40.248 73.07 37.9099C74.07 34.4899 75.31 29.6599 76.55 24.9899C77.79 20.3199 79.09 15.5099 80.04 12.0699C80.7211 9.28877 82.2196 6.77547 84.3424 4.85405C86.4653 2.93263 89.115 1.6912 91.95 1.28984C101.302 -0.00351453 110.788 -0.00351453 120.14 1.28984C122.965 1.69976 125.603 2.94387 127.716 4.8627C129.829 6.78153 131.321 9.28765 132 12.0598C132.95 15.4898 134.24 20.3098 135.49 24.9698C136.74 29.6298 138.02 34.4698 138.97 37.8898C139.626 40.2368 140.864 42.3799 142.57 44.1198L142.75 44.2598C144.302 45.6006 146.093 46.6355 148.03 47.3098L148.26 47.3998C150.613 47.9988 153.078 47.9988 155.43 47.3998C158.85 46.5198 163.66 45.2198 168.31 43.9698C172.96 42.7198 177.82 41.4199 181.31 40.5199C184.058 39.7188 186.984 39.7593 189.709 40.6363C192.434 41.5132 194.834 43.1863 196.6 45.4398C199.571 49.1056 202.212 53.0276 204.49 57.1599C206.931 61.2016 209.009 65.4516 210.7 69.8598C211.767 72.5153 212.014 75.4296 211.408 78.2265C210.801 81.0235 209.371 83.5744 207.3 85.5499C204.8 88.1099 201.3 91.6398 197.83 95.0598C194.36 98.4798 190.9 101.99 188.42 104.51C186.715 106.245 185.48 108.386 184.83 110.73V110.95C184.443 112.972 184.443 115.048 184.83 117.07V117.31C185.485 119.648 186.724 121.782 188.43 123.51C190.9 126.03 194.43 129.51 197.83 132.96C201.23 136.41 204.83 139.91 207.31 142.47C209.378 144.45 210.805 147.003 211.409 149.801C212.014 152.599 211.766 155.513 210.7 158.17C207.139 166.917 202.395 175.133 196.6 182.59C194.831 184.839 192.431 186.509 189.706 187.384C186.982 188.259 184.058 188.299 181.31 187.5C177.84 186.6 173.01 185.3 168.31 184.05C163.61 182.8 158.85 181.5 155.43 180.62C153.071 180.015 150.599 180.015 148.24 180.62L148.04 180.7C147.084 181.051 146.155 181.472 145.26 181.96C144.375 182.495 143.533 183.096 142.74 183.76L142.55 183.91C141.27 184.91 139.63 187.78 138.97 190.12C137.97 193.54 136.73 198.37 135.49 203.04C134.25 207.71 133 212.51 132 216C131.319 218.781 129.82 221.294 127.698 223.216C125.575 225.137 122.925 226.378 120.09 226.78C115.43 227.503 110.715 227.811 106 227.7ZM71.2 174.28C72.4514 175.021 73.6418 175.86 74.76 176.79L74.95 176.94C78.16 179.5 80.58 184.2 81.57 187.73C82.56 191.26 83.83 196.05 85.08 200.73C86.33 205.41 87.6 210.16 88.55 213.56C88.7638 214.705 89.34 215.75 90.1935 216.543C91.047 217.335 92.1326 217.832 93.29 217.96C101.721 219.106 110.269 219.106 118.7 217.96C119.859 217.834 120.947 217.338 121.803 216.545C122.658 215.753 123.236 214.706 123.45 213.56C124.4 210.16 125.68 205.37 126.92 200.73C128.16 196.09 129.46 191.18 130.43 187.73C131.4 184.28 133.84 179.5 137 177L137.2 176.84C138.329 175.907 139.529 175.064 140.79 174.32C142.049 173.609 143.364 173.001 144.72 172.5L144.94 172.41C148.76 170.91 154.04 171.16 157.6 172.07C161.16 172.98 165.9 174.26 170.6 175.52C175.3 176.78 180.06 178.07 183.48 178.95C184.58 179.333 185.773 179.356 186.886 179.014C188 178.672 188.975 177.984 189.67 177.05C192.339 173.734 194.711 170.191 196.76 166.46C198.972 162.813 200.859 158.978 202.4 155C202.864 153.932 202.975 152.744 202.716 151.608C202.457 150.473 201.841 149.451 200.96 148.69C198.48 146.16 194.96 142.64 191.54 139.23C188.12 135.82 184.54 132.23 182.07 129.72C179.6 127.21 176.64 122.65 176.07 118.61V118.35C175.55 115.477 175.55 112.533 176.07 109.66V109.43C176.68 105.37 179.54 100.92 182.07 98.2999C184.6 95.6799 188.12 92.2098 191.54 88.7898C194.96 85.3698 198.48 81.8598 200.95 79.3398C201.841 78.5793 202.463 77.5518 202.724 76.4098C202.986 75.2679 202.872 74.0721 202.4 72.9998C200.867 69.032 198.986 65.2071 196.78 61.5699C194.737 57.842 192.364 54.3046 189.69 50.9998C188.998 50.0645 188.025 49.3748 186.913 49.0312C185.802 48.6876 184.609 48.7082 183.51 49.0898C180.08 49.9698 175.27 51.2699 170.62 52.5199C165.97 53.7699 161.11 55.0698 157.62 55.9698C154.13 56.8698 148.78 57.1298 144.98 55.6398L144.74 55.5398C143.361 55.0321 142.023 54.4169 140.74 53.6998C139.499 52.957 138.315 52.1213 137.2 51.1998L137.01 51.0499C133.8 48.4899 131.38 43.7898 130.39 40.2598C129.4 36.7298 128.13 31.9398 126.88 27.2598C125.63 22.5798 124.36 17.8298 123.41 14.4298C123.196 13.2851 122.62 12.2395 121.767 11.4472C120.913 10.6549 119.827 10.158 118.67 10.0298C110.239 8.88322 101.691 8.88322 93.26 10.0298C92.1008 10.156 91.0129 10.652 90.1574 11.4444C89.302 12.2369 88.7244 13.2836 88.51 14.4298C87.56 17.8298 86.28 22.6198 85.04 27.2598C83.8 31.8998 82.5 36.8098 81.53 40.2598C80.56 43.7098 78.12 48.4898 74.92 51.0398L74.72 51.1998C72.4921 53.0832 69.9454 54.553 67.2 55.5398L66.98 55.6299C63.16 57.1299 57.87 56.8798 54.32 55.9698C50.77 55.0598 46.02 53.7699 41.32 52.5199C36.62 51.2699 31.86 49.9698 28.44 49.0898C27.3405 48.7047 26.1467 48.6814 25.033 49.0233C23.9193 49.3651 22.9441 50.0542 22.25 50.9899C19.5786 54.3036 17.206 57.8474 15.16 61.5798C12.9774 65.2172 11.117 69.0384 9.60002 72.9998C9.13584 74.0677 9.0252 75.256 9.28427 76.3912C9.54333 77.5264 10.1585 78.5491 11.04 79.3098C13.52 81.8398 17.04 85.3599 20.46 88.7699C23.88 92.1799 27.46 95.7198 29.93 98.2798C32.4 100.84 35.36 105.35 35.93 109.39V109.64C36.1732 111.084 36.3036 112.545 36.32 114.01C36.3024 115.458 36.172 116.902 35.93 118.33V118.57C35.32 122.63 32.46 127.08 29.93 129.7C27.4 132.32 23.88 135.79 20.46 139.21C17.04 142.63 13.52 146.14 11.05 148.66C10.159 149.42 9.53684 150.448 9.27566 151.59C9.01448 152.732 9.12822 153.928 9.60002 155C11.1335 158.968 13.0141 162.793 15.22 166.43C17.2658 170.156 19.6384 173.693 22.31 177C23.0001 177.938 23.9729 178.629 25.0853 178.973C26.1977 179.317 27.3911 179.295 28.49 178.91C31.92 178.03 36.73 176.73 41.38 175.48C46.03 174.23 50.89 172.92 54.38 172.03C57.87 171.14 63.22 170.87 67.02 172.36L67.26 172.46C68.6163 172.969 69.9332 173.577 71.2 174.28Z" fill="url(#paint0_linear_163_38475)"/>
<path d="M106 157.21C97.4539 157.21 89.0997 154.676 81.9939 149.928C74.888 145.18 69.3497 138.431 66.0792 130.536C62.8088 122.64 61.9531 113.952 63.6203 105.57C65.2876 97.1883 69.403 89.489 75.446 83.446C81.489 77.403 89.1883 73.2876 97.5702 71.6203C105.952 69.9531 114.64 70.8088 122.536 74.0792C130.431 77.3497 137.18 82.888 141.928 89.9939C146.676 97.0997 149.21 105.454 149.21 114C149.194 125.455 144.637 136.437 136.537 144.537C128.437 152.637 117.455 157.194 106 157.21ZM106 79.6601C99.2082 79.6601 92.569 81.6741 86.9218 85.4474C81.2746 89.2207 76.8732 94.5839 74.274 100.859C71.6749 107.134 70.9949 114.038 72.3199 120.699C73.6449 127.361 76.9155 133.48 81.718 138.282C86.5205 143.085 92.6393 146.355 99.3007 147.68C105.962 149.005 112.867 148.325 119.141 145.726C125.416 143.127 130.779 138.726 134.553 133.078C138.326 127.431 140.34 120.792 140.34 114C140.327 104.897 136.705 96.1698 130.267 89.7326C123.83 83.2955 115.104 79.6733 106 79.6601Z" fill="url(#paint1_linear_163_38475)"/>
<defs>
<linearGradient id="paint0_linear_163_38475" x1="106" y1="0.299841" x2="106" y2="227.7" gradientUnits="userSpaceOnUse">
<stop offset="0.15" stop-color="#0F0F19"/>
<stop offset="0.71" stop-color="#0F0F19" stop-opacity="0.38"/>
<stop offset="0.98" stop-color="#0F0F19" stop-opacity="0"/>
</linearGradient>
<linearGradient id="paint1_linear_163_38475" x1="106" y1="70.7901" x2="106" y2="157.21" gradientUnits="userSpaceOnUse">
<stop offset="0.15" stop-color="#0F0F19"/>
<stop offset="0.71" stop-color="#0F0F19" stop-opacity="0.38"/>
<stop offset="0.98" stop-color="#0F0F19" stop-opacity="0"/>
</linearGradient>
</defs>
</svg>
