<svg width="19" height="21" viewBox="0 0 19 21" fill="none" xmlns="http://www.w3.org/2000/svg">
<g id="Vector">
<path id="Vector_2" d="M13.3272 12.3995C13.3914 12.4563 13.4556 12.5131 13.5199 12.5699C13.9689 12.9788 13.9689 12.9788 14.1316 13.231C14.2622 13.2442 14.3862 13.2499 14.517 13.2512C15.5616 13.2877 16.4851 13.7235 17.2126 14.5089C17.9523 15.3766 18.2154 16.4404 18.1534 17.5727C18.1099 18.0155 17.9824 18.4205 17.796 18.8197C17.7679 18.8822 17.7679 18.8822 17.7392 18.9458C17.3095 19.8328 16.514 20.509 15.6082 20.8252C14.595 21.1341 13.6105 21.0234 12.6569 20.5749C12.6126 20.5444 12.5684 20.5139 12.5228 20.4825C12.4329 20.4687 12.4329 20.4687 12.3331 20.471C12.2942 20.4707 12.2553 20.4705 12.2152 20.4703C12.151 20.4706 12.151 20.4706 12.0856 20.4709C12.0402 20.4708 11.9947 20.4706 11.948 20.4705C11.795 20.4702 11.6421 20.4705 11.4891 20.4707C11.3798 20.4706 11.2704 20.4705 11.161 20.4702C10.9252 20.4698 10.6892 20.4698 10.4533 20.4699C10.1117 20.47 9.77015 20.4695 9.42854 20.4687C8.87374 20.4675 8.31894 20.4666 7.76408 20.466C7.7143 20.4659 7.7143 20.4659 7.66344 20.4659C7.19256 20.4653 6.72168 20.4651 6.2508 20.4649C6.21768 20.4649 6.18456 20.4649 6.15043 20.4649C6.11731 20.4649 6.08424 20.4649 6.05016 20.4649C5.49782 20.4647 4.94547 20.4639 4.39312 20.4624C4.0526 20.4615 3.71209 20.4613 3.37157 20.4618C3.11028 20.462 2.849 20.4614 2.58772 20.4605C2.48075 20.4602 2.37378 20.4603 2.26682 20.4607C2.12049 20.4612 1.97421 20.4606 1.82788 20.4597C1.78581 20.4601 1.74373 20.4605 1.70038 20.461C1.22265 20.4553 0.832186 20.2562 0.479514 19.9283C0.0375054 19.4592 -0.00665164 18.9114 0.000690687 18.296C0.052931 16.3565 0.821566 14.6015 2.02123 13.1386C2.04831 13.1048 2.07538 13.0712 2.10328 13.0364C2.28318 12.8169 2.4783 12.6302 2.69155 12.4457C2.7306 12.4105 2.76966 12.3753 2.8099 12.3391C5.78286 9.69881 10.3919 9.68791 13.3272 12.3995ZM2.8703 13.6466C2.72809 13.8102 2.5965 13.9795 2.46811 14.1547C2.42283 14.2151 2.42283 14.2151 2.37664 14.2767C2.13786 14.6038 1.94187 14.9502 1.75311 15.3094C1.72966 15.3524 1.70622 15.3954 1.68206 15.4397C1.26828 16.2361 1.06315 17.1355 0.982248 18.0288C0.978108 18.0738 0.973974 18.1189 0.969711 18.1653C0.937468 18.569 0.938846 18.8965 1.17217 19.2354C1.43677 19.4475 1.63817 19.4731 1.96371 19.4719C2.0241 19.472 2.0241 19.472 2.08571 19.472C2.22116 19.4722 2.35661 19.4719 2.49205 19.4716C2.58893 19.4716 2.68581 19.4716 2.78269 19.4716C3.04619 19.4716 3.30968 19.4714 3.57317 19.4711C3.84835 19.4708 4.12354 19.4707 4.39872 19.4707C4.92004 19.4706 5.44135 19.4702 5.96266 19.4697C6.55608 19.4692 7.14951 19.4689 7.74293 19.4687C8.9638 19.4682 10.1847 19.4674 11.4056 19.4664C11.3872 19.4317 11.3688 19.397 11.3498 19.3612C11.3136 19.2928 11.3136 19.2928 11.2766 19.223C11.2526 19.1778 11.2287 19.1326 11.204 19.086C10.7096 18.136 10.552 17.0365 10.8515 15.9889C10.9673 15.6715 11.1104 15.3735 11.2716 15.0785C11.2926 15.0391 11.3137 14.9998 11.3355 14.9592C11.7283 14.2925 12.3453 13.8797 13.0144 13.5542C12.7127 12.7931 11.5136 12.2429 10.8247 11.9261C8.05313 10.751 4.96011 11.4396 2.8703 13.6466ZM12.1681 15.4278C11.7667 15.9998 11.5501 16.7263 11.629 17.4341C11.7072 17.9135 11.8247 18.4215 12.1653 18.7735C13.4336 17.4627 14.7018 16.1519 16.0084 14.8014C14.7668 13.7747 13.1078 14.2421 12.1681 15.4278ZM16.6132 15.5562C16.5708 15.6002 16.5708 15.6002 16.5275 15.645C16.4951 15.6784 16.4627 15.7118 16.4293 15.7462C16.3756 15.802 16.3756 15.802 16.3209 15.8588C16.2834 15.8976 16.2459 15.9363 16.2073 15.9762C16.1042 16.0828 16.0012 16.1895 15.8982 16.2963C15.7907 16.4077 15.6831 16.519 15.5754 16.6303C15.3715 16.8412 15.1677 17.0522 14.9639 17.2634C14.7319 17.5035 14.4999 17.7437 14.2678 17.9838C13.7903 18.4778 13.3129 18.9721 12.8356 19.4664C13.3837 19.9268 14.0746 20.0748 14.7692 20.0037C15.508 19.8742 16.2094 19.4875 16.6557 18.852C17.111 18.1666 17.2935 17.4308 17.1703 16.6027C17.0831 16.1977 16.9297 15.8487 16.7234 15.4942C16.6694 15.489 16.6694 15.489 16.6132 15.5562Z" fill="black"/>
<path id="Vector_3" d="M10.8857 1.01403C10.9856 1.09732 11.0841 1.1821 11.1818 1.26807C11.2121 1.2945 11.2423 1.32094 11.2734 1.34818C11.9059 1.95353 12.3181 2.81516 12.5225 3.66987C12.5375 3.73069 12.5375 3.73069 12.5528 3.79274C12.8095 5.0557 12.5178 6.34087 11.8521 7.41113C11.7542 7.55603 11.6499 7.69213 11.5393 7.82681C11.5004 7.87704 11.5004 7.87704 11.4608 7.92824C10.8087 8.73765 9.81085 9.27093 8.81338 9.44342C8.78469 9.44852 8.75601 9.45369 8.72647 9.45897C7.49982 9.6373 6.29861 9.31617 5.29964 8.57055C4.30219 7.77999 3.70212 6.71603 3.48158 5.44813C3.32802 4.21951 3.59254 2.97356 4.30342 1.96811C4.3893 1.85563 4.47797 1.74646 4.56805 1.63757C4.58787 1.61043 4.60769 1.58328 4.6281 1.55531C5.28201 0.681649 6.41683 0.195061 7.44032 0.0359997C8.6786 -0.116729 9.90172 0.217856 10.8857 1.01403ZM6.48963 1.36045C6.4485 1.3798 6.40737 1.39914 6.36496 1.41908C5.46775 1.88278 4.88316 2.69819 4.55409 3.6558C4.26736 4.65804 4.40142 5.68884 4.87685 6.59922C4.99258 6.81024 5.12966 6.99709 5.28308 7.18018C5.31107 7.21781 5.33906 7.25544 5.36791 7.29421C5.87319 7.9233 6.73338 8.3769 7.51745 8.4735C8.55478 8.53361 9.52464 8.36606 10.3328 7.64207C10.3678 7.6129 10.4029 7.58372 10.4391 7.5537C11.1258 6.95764 11.545 6.07524 11.6594 5.16234C11.6649 5.09601 11.6696 5.0296 11.6734 4.96315C11.6752 4.93171 11.6771 4.90028 11.6789 4.86789C11.7079 3.8503 11.3273 2.94841 10.6902 2.19184C10.6676 2.16403 10.645 2.13623 10.6216 2.10758C10.1264 1.54592 9.3568 1.14723 8.63464 1.03713C8.60179 1.03206 8.56894 1.027 8.53512 1.02179C8.43427 1.00836 8.33384 0.998692 8.23246 0.990939C8.2034 0.988436 8.17439 0.985939 8.14448 0.983362C7.58017 0.958684 6.99791 1.11982 6.48963 1.36045Z" fill="black"/>
</g>
</svg>
