<svg width="15" height="15" viewBox="0 0 15 15" fill="none" xmlns="http://www.w3.org/2000/svg">
<g id="Group 14526">
<path id="Vector" d="M10.7251 7.20508H8.58008V7.77276H10.7251V7.20508Z" fill="url(#paint0_linear_3600_46595)"/>
<path id="Vector_2" d="M8.57837 7.77248H7.31055V6.52832H7.87115V7.2048H8.57837V7.77248Z" fill="#0F0F19"/>
<path id="Vector_3" d="M7.87115 3.65088H7.31055V6.52832H7.87115V3.65088Z" fill="url(#paint1_linear_3600_46595)"/>
<path id="Vector_4" d="M7.87115 1.77344H7.31055V2.8448H7.87115V1.77344Z" fill="url(#paint2_linear_3600_46595)"/>
<path id="Vector_5" d="M7.87115 12.1206H7.31055V13.192H7.87115V12.1206Z" fill="url(#paint3_linear_3600_46595)"/>
<path id="Vector_6" d="M13.2279 7.20508H12.1699V7.77276H13.2279V7.20508Z" fill="url(#paint4_linear_3600_46595)"/>
<path id="Vector_7" d="M3.02089 7.20508H1.96289V7.77276H3.02089V7.20508Z" fill="url(#paint5_linear_3600_46595)"/>
<path id="Vector_8" d="M7.59431 14.8925C6.15227 14.8927 4.74258 14.4598 3.54351 13.6486C2.34444 12.8374 1.40984 11.6844 0.857909 10.3353C0.305977 8.98625 0.161503 7.50175 0.442754 6.06954C0.724006 4.63733 1.41835 3.32174 2.43798 2.28914C3.45761 1.25654 4.75673 0.553306 6.17106 0.268378C7.58538 -0.01655 9.05138 0.129621 10.3837 0.688407C11.7159 1.24719 12.8547 2.1935 13.6558 3.40764C14.457 4.62179 14.8846 6.04925 14.8846 7.50951C14.8825 9.46682 14.1137 11.3434 12.747 12.7274C11.3803 14.1115 9.52721 14.8902 7.59431 14.8925ZM7.59431 0.694788C6.26312 0.694662 4.96179 1.09428 3.8549 1.84312C2.748 2.59195 1.88526 3.65636 1.37577 4.90173C0.866292 6.1471 0.732955 7.51749 0.992627 8.8396C1.2523 10.1617 1.89331 11.3762 2.83461 12.3293C3.7759 13.2825 4.97519 13.9316 6.28081 14.1946C7.58643 14.4575 8.93973 14.3225 10.1696 13.8066C11.3994 13.2907 12.4505 12.417 13.19 11.2962C13.9295 10.1753 14.3242 8.85751 14.324 7.50951C14.322 5.70276 13.6124 3.97059 12.3507 2.69302C11.0891 1.41545 9.37853 0.696821 7.59431 0.694788Z" fill="url(#paint6_linear_3600_46595)"/>
</g>
<defs>
<linearGradient id="paint0_linear_3600_46595" x1="8.58008" y1="7.4886" x2="10.7251" y2="7.4886" gradientUnits="userSpaceOnUse">
<stop offset="0.15" stop-color="#0F0F19"/>
<stop offset="0.48" stop-color="#0F0F19" stop-opacity="0.78"/>
<stop offset="0.91" stop-color="#0F0F19" stop-opacity="0.14"/>
<stop offset="0.98" stop-color="#0F0F19" stop-opacity="0"/>
</linearGradient>
<linearGradient id="paint1_linear_3600_46595" x1="7.59116" y1="6.52832" x2="7.59116" y2="3.65088" gradientUnits="userSpaceOnUse">
<stop offset="0.15" stop-color="#0F0F19"/>
<stop offset="0.48" stop-color="#0F0F19" stop-opacity="0.78"/>
<stop offset="0.91" stop-color="#0F0F19" stop-opacity="0.14"/>
<stop offset="0.98" stop-color="#0F0F19" stop-opacity="0"/>
</linearGradient>
<linearGradient id="paint2_linear_3600_46595" x1="7.59116" y1="2.8448" x2="7.59116" y2="1.77344" gradientUnits="userSpaceOnUse">
<stop offset="0.15" stop-color="#0F0F19"/>
<stop offset="0.48" stop-color="#0F0F19" stop-opacity="0.78"/>
<stop offset="0.91" stop-color="#0F0F19" stop-opacity="0.14"/>
<stop offset="0.98" stop-color="#0F0F19" stop-opacity="0"/>
</linearGradient>
<linearGradient id="paint3_linear_3600_46595" x1="7.59116" y1="12.1206" x2="7.59116" y2="13.192" gradientUnits="userSpaceOnUse">
<stop offset="0.15" stop-color="#0F0F19"/>
<stop offset="0.48" stop-color="#0F0F19" stop-opacity="0.78"/>
<stop offset="0.91" stop-color="#0F0F19" stop-opacity="0.14"/>
<stop offset="0.98" stop-color="#0F0F19" stop-opacity="0"/>
</linearGradient>
<linearGradient id="paint4_linear_3600_46595" x1="12.1699" y1="7.4886" x2="13.2279" y2="7.4886" gradientUnits="userSpaceOnUse">
<stop offset="0.15" stop-color="#0F0F19"/>
<stop offset="0.48" stop-color="#0F0F19" stop-opacity="0.78"/>
<stop offset="0.91" stop-color="#0F0F19" stop-opacity="0.14"/>
<stop offset="0.98" stop-color="#0F0F19" stop-opacity="0"/>
</linearGradient>
<linearGradient id="paint5_linear_3600_46595" x1="3.02025" y1="7.4886" x2="1.96289" y2="7.4886" gradientUnits="userSpaceOnUse">
<stop offset="0.15" stop-color="#0F0F19"/>
<stop offset="0.48" stop-color="#0F0F19" stop-opacity="0.78"/>
<stop offset="0.91" stop-color="#0F0F19" stop-opacity="0.14"/>
<stop offset="0.98" stop-color="#0F0F19" stop-opacity="0"/>
</linearGradient>
<linearGradient id="paint6_linear_3600_46595" x1="7.59431" y1="0.127108" x2="7.59431" y2="14.8925" gradientUnits="userSpaceOnUse">
<stop offset="0.18" stop-color="#0F0F19"/>
<stop offset="0.68" stop-color="#0F0F19" stop-opacity="0.45"/>
<stop offset="1" stop-color="#0F0F19" stop-opacity="0"/>
</linearGradient>
</defs>
</svg>
