<svg width="27" height="28" viewBox="0 0 27 28" fill="none" xmlns="http://www.w3.org/2000/svg">
<path d="M15.9426 10.2778H12.6859V11.3382H15.9426V10.2778Z" fill="url(#paint0_linear_4772_186649)"/>
<path d="M12.6859 11.3381H10.639V9.41455H11.7341V10.2777H12.6859V11.3381Z" fill="#0F0F19"/>
<path d="M11.7341 5.23486H10.639V9.41317H11.7341V5.23486Z" fill="url(#paint1_linear_4772_186649)"/>
<path d="M11.7341 2.50928H10.639V4.06464H11.7341V2.50928Z" fill="url(#paint2_linear_4772_186649)"/>
<path d="M11.7341 17.5332H10.639V19.0886H11.7341V17.5332Z" fill="url(#paint3_linear_4772_186649)"/>
<path d="M19.7437 10.2778H18.1376V11.3382H19.7437V10.2778Z" fill="url(#paint4_linear_4772_186649)"/>
<path d="M4.24551 10.2778H2.6394V11.3382H4.24551V10.2778Z" fill="url(#paint5_linear_4772_186649)"/>
<path d="M11.1922 21.677C5.02079 21.677 0 16.8149 0 10.8385C0 4.86214 5.02079 0 11.1922 0C17.3635 0 22.3843 4.86214 22.3843 10.8385C22.3843 16.8149 17.3635 21.677 11.1922 21.677ZM11.1922 1.06161C5.62447 1.06161 1.09502 5.44794 1.09502 10.8397C1.09502 16.2314 5.62447 20.6178 11.1922 20.6178C16.7598 20.6178 21.2893 16.2314 21.2893 10.8397C21.2893 5.44794 16.7598 1.06161 11.1922 1.06161Z" fill="url(#paint6_linear_4772_186649)"/>
<path d="M20.393 28.0002C19.972 28.0002 19.7411 27.9774 19.5054 27.9404C19.0387 27.8686 18.6967 27.5698 18.5671 27.1191C18.5103 26.9194 18.4338 26.6432 18.3572 26.3671C18.2819 26.0945 18.2066 25.8219 18.1498 25.6247C18.1239 25.5362 18.0597 25.4298 18.0289 25.4023L18.0215 25.3963C17.9857 25.3688 17.9511 25.3425 17.9215 25.3246C17.8647 25.2983 17.7955 25.2672 17.7671 25.2565C17.7252 25.2445 17.6005 25.2433 17.5091 25.266C17.3054 25.3162 17.0264 25.3892 16.7462 25.4621C16.4598 25.5362 16.1721 25.6115 15.9647 25.6629C15.4981 25.7801 15.0586 25.6426 14.7611 25.2852C14.6117 25.107 14.4759 24.9241 14.2648 24.5714C14.0549 24.2188 13.9599 24.0131 13.8735 23.7967C13.7043 23.3699 13.8006 22.9324 14.1389 22.5988C14.2883 22.4506 14.4981 22.2486 14.7068 22.0465C14.9129 21.8469 15.1191 21.6484 15.2672 21.5014C15.3339 21.4356 15.3956 21.328 15.4055 21.2886V21.2814C15.4142 21.23 15.4216 21.1822 15.4216 21.1463C15.4216 21.1044 15.4142 21.0566 15.4067 21.0052L15.4043 20.9921C15.3956 20.9574 15.3339 20.851 15.2672 20.7841C15.1191 20.6382 14.9129 20.4385 14.7068 20.2401C14.4981 20.0381 14.2883 19.836 14.1389 19.6878C13.8006 19.3542 13.7043 18.9179 13.8747 18.4899C13.9599 18.2747 14.0549 18.0702 14.2648 17.7176C14.4747 17.3649 14.6105 17.182 14.7611 17.0027C15.0586 16.6464 15.4969 16.5089 15.9647 16.6261C16.1709 16.6775 16.4561 16.7516 16.7413 16.8257C17.0227 16.8986 17.3054 16.9728 17.5104 17.0242C17.603 17.0469 17.7289 17.0457 17.7696 17.0337L17.7783 17.0301C17.8215 17.0134 17.8622 16.9979 17.8931 16.9823C17.9474 16.9465 18.0128 16.901 18.035 16.8843C18.0622 16.8604 18.1264 16.754 18.1523 16.6655C18.2091 16.4683 18.2844 16.1957 18.3597 15.9231C18.4363 15.6469 18.5128 15.3696 18.5696 15.1699C18.698 14.7204 19.0412 14.4204 19.5091 14.3486C19.7448 14.3128 19.9757 14.29 20.3954 14.29C20.8152 14.29 21.046 14.3128 21.2831 14.3498C21.7497 14.4215 22.0929 14.7204 22.2213 15.1711C22.2781 15.3708 22.3546 15.6469 22.4312 15.9243C22.5065 16.1969 22.5818 16.4695 22.6386 16.6667C22.6645 16.7552 22.7287 16.8616 22.7595 16.8891L22.767 16.8939C22.8028 16.9214 22.8373 16.9477 22.8669 16.9656C22.9274 16.9931 22.999 17.0254 23.0262 17.0361C23.0608 17.0457 23.1879 17.0481 23.2805 17.0242C23.4854 16.9728 23.7681 16.8998 24.0509 16.8257C24.3348 16.7516 24.6187 16.6775 24.8261 16.6261C25.2928 16.5089 25.7323 16.6464 26.0298 17.0038C26.1804 17.1832 26.3162 17.3649 26.5261 17.7176C26.7359 18.0702 26.831 18.2759 26.9174 18.4911C27.0865 18.9179 26.9902 19.3554 26.652 19.689C26.5026 19.8372 26.2927 20.0393 26.0841 20.2413C25.8779 20.4409 25.6718 20.6394 25.5236 20.7864C25.457 20.8522 25.3952 20.9598 25.3854 20.9992V21.0064C25.3767 21.0578 25.3693 21.1056 25.3693 21.1415C25.3693 21.1834 25.3767 21.2312 25.3841 21.2826L25.3866 21.2957C25.3952 21.3304 25.457 21.4368 25.5236 21.5038C25.6705 21.6496 25.8767 21.8493 26.0841 22.0477C26.294 22.2497 26.5026 22.4518 26.6532 22.6C26.9915 22.9336 27.0878 23.3699 26.9174 23.7979C26.8322 24.0131 26.7372 24.2188 26.5273 24.5702C26.3174 24.9229 26.1816 25.1058 26.031 25.2852C25.7335 25.6414 25.2952 25.7789 24.8274 25.6617C24.62 25.6103 24.3336 25.535 24.0471 25.4609C23.7669 25.388 23.4854 25.315 23.2817 25.2636C23.1892 25.2409 23.0632 25.2421 23.0225 25.2541L23.0151 25.2565C22.9719 25.2732 22.9311 25.2887 22.899 25.3043C22.8447 25.3413 22.7793 25.3856 22.7571 25.4023C22.7312 25.4262 22.6657 25.5314 22.641 25.6211C22.5842 25.8172 22.5089 26.0897 22.4336 26.3623C22.3571 26.6385 22.2806 26.9158 22.2238 27.1155C22.0954 27.565 21.7522 27.8651 21.2843 27.9368C21.0497 27.9727 20.8189 27.9954 20.3979 27.9954L20.393 28.0002ZM17.6733 24.1889C17.8387 24.1889 18.0116 24.2104 18.1659 24.269H18.1684C18.2498 24.3012 18.3918 24.367 18.419 24.3801L18.4523 24.3969C18.556 24.4543 18.64 24.5188 18.7017 24.5655L18.7128 24.5738C18.972 24.7735 19.1399 25.1106 19.2054 25.3401C19.2634 25.5398 19.3387 25.8172 19.4152 26.0933C19.4905 26.3659 19.5658 26.6385 19.6226 26.8357C19.6337 26.8728 19.6436 26.8847 19.6436 26.8847C19.6436 26.8847 19.6523 26.8907 19.6769 26.8943C19.8337 26.9182 20.0066 26.9409 20.393 26.9409C20.7794 26.9409 20.951 26.9194 21.1078 26.8955C21.1337 26.8919 21.1423 26.8859 21.1423 26.8859C21.1423 26.8859 21.1534 26.8752 21.1633 26.8381C21.2201 26.6409 21.2954 26.3683 21.3707 26.0957C21.4473 25.8195 21.5238 25.5422 21.5806 25.3425C21.6472 25.113 21.8151 24.7759 22.0719 24.5786C22.1435 24.5248 22.2731 24.4387 22.2978 24.422L22.3287 24.4029C22.4324 24.3443 22.5324 24.306 22.6065 24.2773L22.6188 24.2726C22.9262 24.1554 23.3126 24.1829 23.5496 24.2427C23.757 24.2941 24.0422 24.3682 24.3261 24.4423C24.6076 24.5152 24.8903 24.5894 25.0953 24.6408C25.1348 24.6503 25.1496 24.6467 25.1496 24.6467C25.1496 24.6467 25.1594 24.642 25.1743 24.624C25.2743 24.5045 25.3804 24.3706 25.573 24.0466C25.7656 23.7226 25.8323 23.5672 25.8891 23.4249C25.8989 23.401 25.8977 23.3915 25.8977 23.3915C25.8977 23.3915 25.894 23.3771 25.8656 23.3496C25.7175 23.2038 25.5113 23.0041 25.3051 22.8045C25.0953 22.6024 24.8866 22.4004 24.736 22.2521C24.5644 22.0824 24.3471 21.7727 24.2978 21.4583L24.2953 21.444C24.2842 21.3687 24.2681 21.2646 24.2694 21.1487C24.2694 21.0387 24.2842 20.9347 24.2953 20.8594L24.2978 20.8474C24.3471 20.5306 24.5644 20.221 24.736 20.0512C24.8866 19.903 25.0953 19.7009 25.3051 19.4977C25.5113 19.298 25.7175 19.0996 25.8656 18.9525C25.894 18.925 25.8977 18.9107 25.8977 18.9107C25.8977 18.9107 25.8977 18.9011 25.8891 18.8772C25.8323 18.7326 25.7656 18.5783 25.573 18.2544C25.3804 17.9304 25.2743 17.7977 25.1743 17.6781C25.1594 17.6602 25.1496 17.6542 25.1483 17.6542C25.1483 17.6542 25.1335 17.6506 25.0953 17.6602C24.8916 17.7116 24.6113 17.7845 24.3311 17.8574C24.0447 17.9316 23.757 18.0069 23.5496 18.0583C23.3126 18.1169 22.9262 18.1444 22.62 18.0284C22.5361 17.9961 22.3941 17.9304 22.367 17.9172L22.3336 17.9005C22.2299 17.8431 22.1448 17.7785 22.083 17.7307L22.0719 17.7224C21.8139 17.5227 21.6448 17.1856 21.5793 16.9572C21.5213 16.7576 21.446 16.4802 21.3695 16.2041C21.2942 15.9315 21.2189 15.6589 21.1621 15.4616C21.151 15.4246 21.1411 15.4126 21.1399 15.4126C21.1386 15.4126 21.1275 15.4066 21.1065 15.4031C20.9485 15.3792 20.7769 15.3564 20.3905 15.3564C20.0041 15.3564 19.8325 15.378 19.6757 15.4019C19.6535 15.4055 19.6424 15.4102 19.6411 15.4114C19.6411 15.4114 19.63 15.4222 19.6202 15.4592C19.5634 15.6565 19.4881 15.9291 19.4128 16.2017C19.3362 16.4778 19.2597 16.7552 19.2029 16.9548C19.1375 17.1832 18.9683 17.5215 18.7116 17.7188C18.6412 17.7726 18.5103 17.8586 18.4856 17.8754L18.4548 17.8945C18.3511 17.9531 18.2511 17.9913 18.1782 18.02L18.1659 18.0248C17.8573 18.142 17.4721 18.1145 17.2351 18.0547C17.0264 18.0033 16.74 17.928 16.4536 17.8539C16.1734 17.7809 15.8919 17.708 15.6882 17.6566C15.6549 17.6482 15.6364 17.6494 15.6339 17.6506C15.6314 17.6506 15.6228 17.6578 15.608 17.6745C15.508 17.7941 15.4018 17.928 15.2092 18.252C15.0166 18.5759 14.95 18.7314 14.8932 18.8736C14.8833 18.8975 14.8845 18.9071 14.8845 18.9083C14.8845 18.9083 14.8895 18.9226 14.9166 18.9501C15.0648 19.096 15.271 19.2956 15.4771 19.4953C15.6857 19.6973 15.8956 19.8994 16.045 20.0476C16.2166 20.2174 16.4339 20.527 16.4832 20.8414L16.4857 20.8558C16.4968 20.9311 16.5129 21.0351 16.5116 21.1511C16.5116 21.2611 16.4968 21.3651 16.4857 21.4404L16.4832 21.4523C16.4339 21.7692 16.2166 22.0788 16.045 22.2486C15.8944 22.3968 15.6857 22.5988 15.4759 22.8021C15.2697 23.0017 15.0635 23.2002 14.9154 23.3472C14.887 23.3747 14.8833 23.3891 14.8833 23.3891C14.8833 23.3891 14.8833 23.3986 14.892 23.4213C14.9487 23.566 15.0154 23.7214 15.208 24.0442C15.4006 24.3682 15.5067 24.5021 15.6067 24.6204C15.6401 24.6599 15.6302 24.6456 15.6425 24.6456C15.6512 24.6456 15.6648 24.6456 15.687 24.6384C15.8931 24.587 16.1759 24.514 16.4586 24.4399C16.7425 24.3658 17.0264 24.2917 17.2338 24.2403C17.3523 24.2104 17.5067 24.1889 17.6709 24.1889H17.6733Z" fill="url(#paint7_linear_4772_186649)"/>
<path d="M20.393 23.9211C18.8128 23.9211 17.5277 22.6766 17.5277 21.1464C17.5277 19.6161 18.8128 18.3716 20.393 18.3716C21.9732 18.3716 23.2584 19.6161 23.2584 21.1464C23.2584 22.6766 21.9732 23.9211 20.393 23.9211ZM20.393 19.4332C19.4178 19.4332 18.624 20.2019 18.624 21.1464C18.624 22.0908 19.4178 22.8595 20.393 22.8595C21.3683 22.8595 22.1621 22.0908 22.1621 21.1464C22.1621 20.2019 21.3683 19.4332 20.393 19.4332Z" fill="url(#paint8_linear_4772_186649)"/>
<defs>
<linearGradient id="paint0_linear_4772_186649" x1="12.6859" y1="10.8074" x2="15.9426" y2="10.8074" gradientUnits="userSpaceOnUse">
<stop offset="0.15" stop-color="#0F0F19"/>
<stop offset="0.48" stop-color="#0F0F19" stop-opacity="0.78"/>
<stop offset="0.91" stop-color="#0F0F19" stop-opacity="0.14"/>
<stop offset="0.98" stop-color="#0F0F19" stop-opacity="0"/>
</linearGradient>
<linearGradient id="paint1_linear_4772_186649" x1="11.1872" y1="9.41437" x2="11.1872" y2="5.23486" gradientUnits="userSpaceOnUse">
<stop offset="0.15" stop-color="#0F0F19"/>
<stop offset="0.48" stop-color="#0F0F19" stop-opacity="0.78"/>
<stop offset="0.91" stop-color="#0F0F19" stop-opacity="0.14"/>
<stop offset="0.98" stop-color="#0F0F19" stop-opacity="0"/>
</linearGradient>
<linearGradient id="paint2_linear_4772_186649" x1="11.1872" y1="4.06344" x2="11.1872" y2="2.50808" gradientUnits="userSpaceOnUse">
<stop offset="0.15" stop-color="#0F0F19"/>
<stop offset="0.48" stop-color="#0F0F19" stop-opacity="0.78"/>
<stop offset="0.91" stop-color="#0F0F19" stop-opacity="0.14"/>
<stop offset="0.98" stop-color="#0F0F19" stop-opacity="0"/>
</linearGradient>
<linearGradient id="paint3_linear_4772_186649" x1="11.1872" y1="17.5344" x2="11.1872" y2="19.0898" gradientUnits="userSpaceOnUse">
<stop offset="0.15" stop-color="#0F0F19"/>
<stop offset="0.48" stop-color="#0F0F19" stop-opacity="0.78"/>
<stop offset="0.91" stop-color="#0F0F19" stop-opacity="0.14"/>
<stop offset="0.98" stop-color="#0F0F19" stop-opacity="0"/>
</linearGradient>
<linearGradient id="paint4_linear_4772_186649" x1="18.1376" y1="10.8074" x2="19.7449" y2="10.8074" gradientUnits="userSpaceOnUse">
<stop offset="0.15" stop-color="#0F0F19"/>
<stop offset="0.48" stop-color="#0F0F19" stop-opacity="0.78"/>
<stop offset="0.91" stop-color="#0F0F19" stop-opacity="0.14"/>
<stop offset="0.98" stop-color="#0F0F19" stop-opacity="0"/>
</linearGradient>
<linearGradient id="paint5_linear_4772_186649" x1="4.24551" y1="10.8074" x2="2.6394" y2="10.8074" gradientUnits="userSpaceOnUse">
<stop offset="0.15" stop-color="#0F0F19"/>
<stop offset="0.48" stop-color="#0F0F19" stop-opacity="0.78"/>
<stop offset="0.91" stop-color="#0F0F19" stop-opacity="0.14"/>
<stop offset="0.98" stop-color="#0F0F19" stop-opacity="0"/>
</linearGradient>
<linearGradient id="paint6_linear_4772_186649" x1="11.9724" y1="0.0263014" x2="10.5074" y2="21.6572" gradientUnits="userSpaceOnUse">
<stop offset="0.18" stop-color="#0F0F19"/>
<stop offset="0.68" stop-color="#0F0F19" stop-opacity="0.45"/>
<stop offset="1" stop-color="#0F0F19" stop-opacity="0"/>
</linearGradient>
<linearGradient id="paint7_linear_4772_186649" x1="18.4634" y1="14.6308" x2="22.0997" y2="27.7237" gradientUnits="userSpaceOnUse">
<stop offset="0.15" stop-color="#0F0F19"/>
<stop offset="0.71" stop-color="#0F0F19" stop-opacity="0.38"/>
<stop offset="0.98" stop-color="#0F0F19" stop-opacity="0"/>
</linearGradient>
<linearGradient id="paint8_linear_4772_186649" x1="19.6029" y1="18.4792" x2="21.0919" y2="23.8389" gradientUnits="userSpaceOnUse">
<stop offset="0.15" stop-color="#0F0F19"/>
<stop offset="0.71" stop-color="#0F0F19" stop-opacity="0.38"/>
<stop offset="0.98" stop-color="#0F0F19" stop-opacity="0"/>
</linearGradient>
</defs>
</svg>
