<svg width="30" height="15" viewBox="0 0 30 15" fill="none" xmlns="http://www.w3.org/2000/svg">
<g id="Group 14508">
<path id="Vector" d="M14.9985 14.5527C10.9865 14.5527 7.72217 11.2884 7.72217 7.27636C7.72217 3.26432 10.9865 0 14.9985 0C19.0106 0 22.2749 3.26432 22.2749 7.27636C22.2749 11.2884 19.0106 14.5527 14.9985 14.5527ZM14.9985 0.748565C11.3992 0.748565 8.47073 3.677 8.47073 7.27636C8.47073 10.8757 11.3992 13.8042 14.9985 13.8042C18.5979 13.8042 21.5263 10.8757 21.5263 7.27636C21.5263 3.677 18.5979 0.748565 14.9985 0.748565Z" fill="url(#paint0_linear_2870_46161)"/>
<path id="Vector_2" d="M15.0002 10.6113C13.1613 10.6113 11.665 9.11505 11.665 7.27613C11.665 5.4372 13.1613 3.94092 15.0002 3.94092C16.8392 3.94092 18.3355 5.4372 18.3355 7.27613C18.3355 9.11505 16.8392 10.6113 15.0002 10.6113ZM15.0002 4.68864C13.574 4.68864 12.4136 5.84904 12.4136 7.27528C12.4136 8.70152 13.574 9.86193 15.0002 9.86193C16.4265 9.86193 17.5869 8.70152 17.5869 7.27528C17.5869 5.84904 16.4265 4.68864 15.0002 4.68864Z" fill="url(#paint1_linear_2870_46161)"/>
<path id="Vector_3" d="M15 14.5532C9.34567 14.5532 4.48548 10.7682 0.936762 8.00432C0.748566 7.85747 0.562901 7.71316 0.381456 7.57222L0 7.27685L0.381456 6.98147C0.562901 6.84054 0.748566 6.69622 0.936762 6.54938C4.48548 3.78551 9.34567 0.000488281 15 0.000488281C20.6543 0.000488281 25.5145 3.78551 29.0632 6.54938C29.2514 6.69622 29.4371 6.84054 29.6185 6.98147L30 7.27685L29.6185 7.57222C29.4371 7.71316 29.2514 7.85747 29.0632 8.00432C25.5145 10.7682 20.6543 14.5532 15 14.5532ZM1.22117 7.276C1.2794 7.32158 1.33847 7.36715 1.39755 7.41272C4.86103 10.1099 9.60392 13.8038 15.0008 13.8038C20.3978 13.8038 25.1407 10.1099 28.6041 7.41272C28.6632 7.36715 28.7215 7.32073 28.7805 7.276C28.7223 7.23043 28.6632 7.18486 28.6041 7.13929C25.1407 4.44209 20.3978 0.74821 15.0008 0.74821C9.60392 0.74821 4.86103 4.44209 1.39755 7.13929C1.33847 7.18486 1.28024 7.23128 1.22117 7.276Z" fill="url(#paint2_linear_2870_46161)"/>
</g>
<defs>
<linearGradient id="paint0_linear_2870_46161" x1="14.9985" y1="14.5527" x2="14.9985" y2="0" gradientUnits="userSpaceOnUse">
<stop offset="0.19" stop-color="#0F0F19"/>
<stop offset="0.87" stop-color="#0F0F19" stop-opacity="0"/>
</linearGradient>
<linearGradient id="paint1_linear_2870_46161" x1="15.0002" y1="3.94092" x2="15.0002" y2="10.6113" gradientUnits="userSpaceOnUse">
<stop stop-color="#0F0F19"/>
<stop offset="0.5" stop-color="#0F0F19" stop-opacity="0.59"/>
<stop offset="1" stop-color="#0F0F19" stop-opacity="0"/>
</linearGradient>
<linearGradient id="paint2_linear_2870_46161" x1="0" y1="7.27601" x2="30" y2="7.27601" gradientUnits="userSpaceOnUse">
<stop stop-color="#0F0F19" stop-opacity="0"/>
<stop offset="0.37" stop-color="#0F0F19"/>
<stop offset="0.69" stop-color="#0F0F19"/>
<stop offset="1" stop-color="#0F0F19" stop-opacity="0"/>
</linearGradient>
</defs>
</svg>
