<svg width="252" height="298" viewBox="0 0 252 298" fill="none" xmlns="http://www.w3.org/2000/svg">
<path d="M125.515 55.6462C120.033 55.6462 114.673 54.0203 110.114 50.9742C105.555 47.928 102.002 43.5984 99.9036 38.5329C97.8054 33.4673 97.2565 27.8933 98.3262 22.5158C99.3958 17.1382 102.036 12.1986 105.913 8.32165C109.79 4.44467 114.73 1.80442 120.107 0.734794C125.485 -0.334832 131.059 0.214203 136.124 2.31246C141.19 4.41072 145.52 7.96397 148.566 12.5229C151.612 17.0818 153.238 22.4416 153.237 27.9245C153.229 35.2742 150.306 42.3205 145.109 47.5176C139.912 52.7146 132.865 55.6379 125.515 55.6462ZM125.515 9.07246C121.787 9.07246 118.142 10.1781 115.042 12.2495C111.942 14.321 109.526 17.2652 108.099 20.7099C106.672 24.1547 106.298 27.9451 107.026 31.602C107.753 35.2589 109.549 38.6179 112.185 41.2544C114.822 43.8909 118.181 45.6864 121.838 46.4138C125.494 47.1412 129.285 46.7679 132.73 45.3411C136.174 43.9143 139.119 41.498 141.19 38.3979C143.262 35.2978 144.367 31.653 144.367 27.9245C144.362 22.9264 142.374 18.1346 138.84 14.6004C135.305 11.0661 130.514 9.07813 125.515 9.07246Z" fill="url(#paint0_linear_5672_185134)"/>
<path d="M90.9253 103.799H82.0552V163.718H90.9253V103.799Z" fill="url(#paint1_linear_5672_185134)"/>
<path d="M90.9252 103.799H82.0552V99.2045C82.0658 89.8197 85.7986 80.8222 92.4347 74.1861C99.0708 67.55 108.068 63.8172 117.453 63.8066H134.547C143.932 63.8173 152.929 67.5501 159.565 74.1862C166.201 80.8223 169.934 89.8197 169.945 99.2045V102.22H161.075V99.2048C161.067 92.1717 158.269 85.4289 153.296 80.4557C148.323 75.4825 141.58 72.685 134.547 72.677H117.453C110.42 72.685 103.677 75.4825 98.7038 80.4557C93.7306 85.4289 90.9331 92.1717 90.9252 99.2048V103.799Z" fill="#0F0F19"/>
<path d="M169.945 102.22H161.075V163.719H169.945V102.22Z" fill="url(#paint2_linear_5672_185134)"/>
<path d="M130.418 153.841H121.548V264.207H130.418V153.841Z" fill="url(#paint3_linear_5672_185134)"/>
<path d="M150.167 86.0205H141.297V264.207H150.167V86.0205Z" fill="url(#paint4_linear_5672_185134)"/>
<path d="M110.67 86.0205H101.8V264.207H110.67V86.0205Z" fill="url(#paint5_linear_5672_185134)"/>
<path d="M9.51308 263.549H0.643066C0.643066 254.832 9.76517 247.409 27.7559 241.484C43.5359 236.289 65.0042 232.54 89.8403 230.643L90.5156 239.487C66.7276 241.304 45.4241 245.005 30.53 249.91C15.0341 255.012 9.51308 260.3 9.51308 263.549Z" fill="url(#paint6_linear_5672_185134)"/>
<path d="M126 297.797C93.353 297.797 62.61 294.65 39.4336 288.936C13.6936 282.59 0.643066 274.049 0.643066 263.549H9.51308C9.51308 266.845 16.2619 274.088 41.5568 280.324C64.0588 285.872 94.0478 288.927 126 288.927C157.952 288.927 187.941 285.872 210.443 280.324C220.986 277.724 229.542 274.612 235.186 271.322C239.826 268.618 242.487 265.784 242.487 263.549H251.357C251.357 274.049 238.306 282.59 212.566 288.936C189.39 294.65 158.647 297.797 126 297.797Z" fill="#0F0F19"/>
<path d="M251.357 263.548H242.487C242.487 260.295 236.953 255 221.421 249.892C206.493 244.984 185.149 241.284 161.319 239.474L161.991 230.629C186.869 232.519 208.378 236.267 224.191 241.466C242.217 247.393 251.357 254.822 251.357 263.548Z" fill="url(#paint7_linear_5672_185134)"/>
<defs>
<linearGradient id="paint0_linear_5672_185134" x1="125.516" y1="55.6462" x2="125.516" y2="0.202261" gradientUnits="userSpaceOnUse">
<stop stop-color="#0F0F19" stop-opacity="0"/>
<stop offset="0.1526" stop-color="#0F0F19" stop-opacity="0.3372"/>
<stop offset="0.4818" stop-color="#0F0F19" stop-opacity="0.8333"/>
<stop offset="0.8" stop-color="#0F0F19"/>
</linearGradient>
<linearGradient id="paint1_linear_5672_185134" x1="86.4903" y1="103.799" x2="86.4903" y2="163.718" gradientUnits="userSpaceOnUse">
<stop offset="0.1477" stop-color="#0F0F19"/>
<stop offset="1" stop-color="#0F0F19" stop-opacity="0"/>
</linearGradient>
<linearGradient id="paint2_linear_5672_185134" x1="165.51" y1="102.22" x2="165.51" y2="163.719" gradientUnits="userSpaceOnUse">
<stop offset="0.1477" stop-color="#0F0F19"/>
<stop offset="1" stop-color="#0F0F19" stop-opacity="0"/>
</linearGradient>
<linearGradient id="paint3_linear_5672_185134" x1="125.983" y1="264.207" x2="125.983" y2="153.841" gradientUnits="userSpaceOnUse">
<stop stop-color="#0F0F19" stop-opacity="0"/>
<stop offset="0.4883" stop-color="#0F0F19"/>
<stop offset="1" stop-color="#0F0F19" stop-opacity="0"/>
</linearGradient>
<linearGradient id="paint4_linear_5672_185134" x1="145.732" y1="264.207" x2="145.732" y2="86.0205" gradientUnits="userSpaceOnUse">
<stop stop-color="#0F0F19" stop-opacity="0"/>
<stop offset="0.4883" stop-color="#0F0F19"/>
<stop offset="1" stop-color="#0F0F19" stop-opacity="0"/>
</linearGradient>
<linearGradient id="paint5_linear_5672_185134" x1="106.235" y1="264.207" x2="106.235" y2="86.0205" gradientUnits="userSpaceOnUse">
<stop stop-color="#0F0F19" stop-opacity="0"/>
<stop offset="0.4883" stop-color="#0F0F19"/>
<stop offset="1" stop-color="#0F0F19" stop-opacity="0"/>
</linearGradient>
<linearGradient id="paint6_linear_5672_185134" x1="0.642966" y1="247.096" x2="90.5156" y2="247.096" gradientUnits="userSpaceOnUse">
<stop offset="0.1477" stop-color="#0F0F19"/>
<stop offset="0.6579" stop-color="#0F0F19" stop-opacity="0.4506"/>
<stop offset="0.9817" stop-color="#0F0F19" stop-opacity="0"/>
</linearGradient>
<linearGradient id="paint7_linear_5672_185134" x1="251.357" y1="247.088" x2="161.319" y2="247.088" gradientUnits="userSpaceOnUse">
<stop offset="0.1477" stop-color="#0F0F19"/>
<stop offset="0.6579" stop-color="#0F0F19" stop-opacity="0.4506"/>
<stop offset="0.9817" stop-color="#0F0F19" stop-opacity="0"/>
</linearGradient>
</defs>
</svg>
