<svg width="211" height="48" viewBox="0 0 211 48" fill="none" xmlns="http://www.w3.org/2000/svg">
<g id="Group">
<g id="Layer_1">
<path id="Vector" d="M93.4461 16.3359H85.7598V31.189H93.4461C98.3781 31.189 101.177 27.6131 101.177 23.7624C101.177 19.9118 98.4517 16.3359 93.4461 16.3359ZM93.4371 27.894H89.3011V19.6339H93.4371C96.1313 19.6339 97.5971 21.6224 97.5971 23.7639C97.5971 25.9055 96.0908 27.894 93.4371 27.894Z" fill="#0F0F19"/>
<path id="Vector_2" d="M203.268 16.3359H195.582V31.189H203.268C208.2 31.189 211 27.6131 211 23.7624C211 19.9118 208.274 16.3359 203.268 16.3359ZM203.259 27.894H199.123V19.6339H203.259C205.954 19.6339 207.419 21.6224 207.419 23.7639C207.419 25.9055 205.913 27.894 203.259 27.894Z" fill="#0F0F19"/>
<path id="Vector_3" d="M102.719 16.3359H111.461C114.681 16.3359 117.204 18.6097 117.204 21.8702C117.204 25.1306 114.681 27.4659 111.44 27.4659C108.199 27.4659 106.28 27.4659 106.28 27.4659V31.189H102.719V16.3359ZM106.28 19.5513V24.1694H111.278C114.379 24.1905 114.362 19.5393 111.278 19.5513H106.28Z" fill="#0F0F19"/>
<path id="Vector_4" d="M142.486 16.3359L139.391 25.4235L136.051 16.3359H131.543L128.202 25.4235L125.107 16.3359H121.506L126.195 31.189H129.734L133.798 20.0815L137.862 31.189H141.402L146.091 16.3359H142.489H142.486Z" fill="#0F0F19"/>
<path id="Vector_5" d="M163.834 16.3375H173.024C174.628 16.33 176.069 16.8091 177.154 17.8438C179.424 20.0004 178.953 24.3032 176.197 25.82L178.965 31.192H175.059L172.964 26.7361H167.375V31.192H163.835V16.339L163.834 16.3375ZM167.374 19.5724V23.5192H172.758C174.118 23.5507 174.956 22.7773 174.976 21.5248C174.965 20.1912 174.126 19.5619 172.758 19.5709H167.374V19.5724Z" fill="#0F0F19"/>
<path id="Vector_6" d="M180.609 16.3359H184.17V27.7918H194.073V31.189H180.609V16.3359Z" fill="#0F0F19"/>
<path id="Vector_7" d="M154.064 16.1724C149.246 16.1724 145.93 19.1685 145.93 23.7626C145.93 28.3566 149.246 31.3528 154.064 31.3528C158.881 31.3528 162.197 28.3566 162.197 23.7626C162.197 19.1685 158.881 16.1724 154.064 16.1724ZM154.064 27.8746C151.353 27.8746 149.488 26.2511 149.488 23.7626C149.488 21.274 151.353 19.6506 154.064 19.6506C156.774 19.6506 158.64 21.274 158.64 23.7626C158.64 26.2511 156.774 27.8746 154.064 27.8746Z" fill="#0F0F19"/>
<path id="Vector_8" d="M53.3883 31.4445C47.0055 33.7889 39.8869 34.0862 33.3134 32.4643C27.8678 31.2147 22.8773 28.6496 17.7005 26.8399C9.481 23.9279 5.34649 26.8535 0 32.9734C2.12958 27.7651 6.72065 21.8043 15.9238 22.5402C22.0017 23.0268 27.5569 24.793 31.9858 25.4012C52.8146 28.2637 67.7322 16.5254 67.4498 4.20898C68.5146 10.3394 69.1349 24.7749 53.3898 31.4445H53.3883Z" fill="url(#paint0_linear_3301_3613)"/>
<path id="Vector_9" d="M49.5773 47.4794C40.0017 48.0696 31.6696 43.3224 27.2422 35.6901C42.2709 48.9452 71.8974 38.4925 70.4947 16.6846C75.1488 30.9969 64.6285 46.5528 49.5758 47.4794H49.5773Z" fill="url(#paint1_linear_3301_3613)"/>
<path id="Vector_10" d="M31.9834 25.4025C31.4127 11.5016 43.9259 0.0727644 58.1031 2.35553C42.2333 -5.1731 24.0943 6.24676 24.0508 23.8151C26.9523 24.4278 29.627 25.0781 31.9819 25.4025H31.9834Z" fill="url(#paint2_linear_3301_3613)"/>
<path id="Vector_11" style="mix-blend-mode:multiply" opacity="0.5" d="M31.9834 25.4025C31.4127 11.5016 43.9259 0.0727644 58.1031 2.35553C42.2333 -5.1731 24.0943 6.24676 24.0508 23.8151C26.9523 24.4278 29.627 25.0781 31.9819 25.4025H31.9834Z" fill="url(#paint3_linear_3301_3613)"/>
<path id="Vector_12" d="M85.7578 38.6578H90.5036V40.0109H87.1921V41.717H90.5036V43.0491H87.1921V46.0272H85.7578V38.6562V38.6578Z" fill="#010000"/>
<path id="Vector_13" d="M92.5215 42.3432C92.5215 40.2527 94.1975 38.5571 96.2881 38.5571C98.3786 38.5571 100.074 40.2527 100.074 42.3432C100.074 44.4338 98.3981 46.1293 96.2881 46.1293C94.178 46.1293 92.5215 44.4338 92.5215 42.3432ZM98.6399 42.3432C98.6399 41.0306 97.6202 39.9508 96.2881 39.9508C94.9559 39.9508 93.9557 41.0306 93.9557 42.3432C93.9557 43.6558 94.965 44.7266 96.2881 44.7266C97.6112 44.7266 98.6399 43.6468 98.6399 42.3432Z" fill="#010000"/>
<path id="Vector_14" d="M102.113 43.1903V38.6562H103.567V43.2203C103.567 44.1289 104.153 44.7551 105.021 44.7551C105.889 44.7551 106.485 44.1289 106.485 43.2203V38.6562H107.939V43.1903C107.939 45.0285 106.767 46.1278 105.021 46.1278C103.274 46.1278 102.113 45.027 102.113 43.1903Z" fill="#010000"/>
<path id="Vector_15" d="M110.232 38.6577H111.756L114.987 43.6753V38.6577H116.359V46.0287H114.946L111.614 40.8489V46.0287H110.23V38.6577H110.232Z" fill="#010000"/>
<path id="Vector_16" d="M118.693 38.6577H121.077C123.42 38.6577 124.923 40.2526 124.923 42.3432C124.923 44.4337 123.307 46.0287 121.107 46.0287H118.693V38.6577ZM120.126 39.9808V44.6965H121.015C122.509 44.6965 123.478 43.6663 123.478 42.3432C123.478 41.0201 122.589 39.9808 120.975 39.9808H120.126Z" fill="#010000"/>
<path id="Vector_17" d="M128.842 38.6577H130.246L133.034 46.0287H131.569L131.084 44.686H128.004L127.519 46.0287H126.055L128.842 38.6577ZM128.477 43.393H130.608L129.548 40.4644L128.477 43.393Z" fill="#010000"/>
<path id="Vector_18" d="M135.454 39.9703H133.404V38.6577H138.887V39.9703H136.858V46.0287H135.456V39.9703H135.454Z" fill="#010000"/>
<path id="Vector_19" d="M141.049 38.6577H142.492V46.0287H141.049V38.6577Z" fill="#010000"/>
<path id="Vector_20" d="M144.662 42.3432C144.662 40.2527 146.338 38.5571 148.429 38.5571C150.519 38.5571 152.215 40.2527 152.215 42.3432C152.215 44.4338 150.539 46.1293 148.429 46.1293C146.319 46.1293 144.662 44.4338 144.662 42.3432ZM150.781 42.3432C150.781 41.0306 149.761 39.9508 148.429 39.9508C147.097 39.9508 146.096 41.0306 146.096 42.3432C146.096 43.6558 147.106 44.7266 148.429 44.7266C149.752 44.7266 150.781 43.6468 150.781 42.3432Z" fill="#010000"/>
<path id="Vector_21" d="M154.326 38.6577H155.85L159.08 43.6753V38.6577H160.453V46.0287H159.04L155.707 40.8489V46.0287H154.324V38.6577H154.326Z" fill="#010000"/>
</g>
</g>
<defs>
<linearGradient id="paint0_linear_3301_3613" x1="-0.476077" y1="33.4555" x2="70.2237" y2="15.4111" gradientUnits="userSpaceOnUse">
<stop stop-color="#00E68C" stop-opacity="0.3"/>
<stop offset="0.06" stop-color="#00E68C" stop-opacity="0.1681"/>
<stop offset="0.19" stop-color="#00E68C" stop-opacity="0.3844"/>
<stop offset="0.31" stop-color="#00E68C" stop-opacity="0.6241"/>
<stop offset="0.42" stop-color="#00E68C" stop-opacity="0.81"/>
<stop offset="0.52" stop-color="#00E68C" stop-opacity="0.9409"/>
<stop offset="0.6" stop-color="#00E68C"/>
<stop offset="0.68" stop-color="#00E68C" stop-opacity="0.9801"/>
<stop offset="0.74" stop-color="#00E68C" stop-opacity="0.8836"/>
<stop offset="0.8" stop-color="#00E68C" stop-opacity="0.7569"/>
<stop offset="0.85" stop-color="#00E68C" stop-opacity="0.5929"/>
<stop offset="0.91" stop-color="#00E68C" stop-opacity="0.3969"/>
<stop offset="0.96" stop-color="#00E68C" stop-opacity="0.2209"/>
<stop offset="1" stop-color="#00E68C" stop-opacity="0.3"/>
</linearGradient>
<linearGradient id="paint1_linear_3301_3613" x1="29.7427" y1="42.9484" x2="74.2612" y2="27.6193" gradientUnits="userSpaceOnUse">
<stop stop-color="#0F0F19" stop-opacity="0.1"/>
<stop offset="0.2" stop-color="#0F0F19" stop-opacity="0.1849"/>
<stop offset="0.6" stop-color="#0F0F19" stop-opacity="0.95"/>
<stop offset="0.86" stop-color="#0F0F19" stop-opacity="0.3481"/>
<stop offset="1" stop-color="#0F0F19" stop-opacity="0.3"/>
</linearGradient>
<linearGradient id="paint2_linear_3301_3613" x1="24.0523" y1="12.7016" x2="58.1046" y2="12.7016" gradientUnits="userSpaceOnUse">
<stop stop-color="#FF2261"/>
<stop offset="0.1" stop-color="#FF2261" stop-opacity="0.8649"/>
<stop offset="0.31" stop-color="#FF2261" stop-opacity="0.5476"/>
<stop offset="0.6" stop-color="#FF2261" stop-opacity="0.1849"/>
<stop offset="0.9" stop-color="#FF2261" stop-opacity="0.1"/>
</linearGradient>
<linearGradient id="paint3_linear_3301_3613" x1="37.7744" y1="27.9916" x2="40.0842" y2="16.7069" gradientUnits="userSpaceOnUse">
<stop stop-color="#68022C"/>
<stop offset="0.15" stop-color="#68022C" stop-opacity="0.75"/>
<stop offset="0.22" stop-color="#68022C" stop-opacity="0.4096"/>
<stop offset="0.42" stop-color="#68022C" stop-opacity="0.1296"/>
<stop offset="0.62" stop-color="#68022C" stop-opacity="0.0256"/>
<stop offset="0.81" stop-color="#68022C" stop-opacity="0.01"/>
<stop offset="1" stop-color="#68022C" stop-opacity="0"/>
</linearGradient>
</defs>
</svg>
