<svg width="256" height="58" viewBox="0 0 256 58" fill="none" xmlns="http://www.w3.org/2000/svg">
<path d="M64.7739 38.1502C57.03 40.9945 48.3932 41.3552 40.4179 39.3874C33.8109 37.8714 27.7561 34.7592 21.4753 32.5636C11.5029 29.0305 6.48669 32.58 0 40.0051C2.58374 33.686 8.15391 26.4541 19.3198 27.3469C26.6938 27.9373 33.4338 30.0801 38.8071 30.818C64.0779 34.2909 82.1768 20.0494 81.8343 5.10632C83.1262 12.5441 83.8787 30.0582 64.7758 38.1502H64.7739Z" fill="url(#paint0_linear_4061_1093218)"/>
<path d="M38.8072 30.8199C38.1148 13.9545 53.2966 0.0882823 70.4972 2.85788C51.2431 -6.27632 29.2357 7.57895 29.1829 28.8939C32.7032 29.6373 35.9483 30.4263 38.8054 30.8199H38.8072Z" fill="url(#paint1_linear_4061_1093218)"/>
<path style="mix-blend-mode:multiply" opacity="0.5" d="M38.8072 30.8199C38.1148 13.9545 53.2966 0.0882823 70.4972 2.85788C51.2431 -6.27632 29.2357 7.57895 29.1829 28.8939C32.7032 29.6373 35.9483 30.4263 38.8054 30.8199H38.8072Z" fill="url(#paint2_linear_4061_1093218)"/>
<path d="M113.377 19.8198H104.051V37.8404H113.377C119.361 37.8404 122.757 33.502 122.757 28.8301C122.757 24.1582 119.45 19.8198 113.377 19.8198ZM113.364 33.8427H108.346V23.8212H113.364C116.633 23.8212 118.411 26.2336 118.411 28.8319C118.411 31.4303 116.584 33.8427 113.364 33.8427Z" fill="white"/>
<path d="M246.62 19.8198H237.294V37.8404H246.62C252.603 37.8404 256 33.502 256 28.8301C256 24.1582 252.693 19.8198 246.62 19.8198ZM246.607 33.8427H241.589V23.8212H246.607C249.876 23.8212 251.654 26.2336 251.654 28.8319C251.654 31.4303 249.827 33.8427 246.607 33.8427Z" fill="white"/>
<path d="M124.626 19.8198H135.233C139.14 19.8198 142.201 22.5785 142.201 26.5343C142.201 30.4901 139.14 33.3234 135.207 33.3234C131.275 33.3234 128.947 33.3234 128.947 33.3234V37.8404H124.626V19.8198ZM128.947 23.7209V29.3239H135.011C138.773 29.3494 138.753 23.7064 135.011 23.7209H128.947Z" fill="white"/>
<path d="M172.874 19.8198L169.118 30.8454L165.066 19.8198H159.596L155.544 30.8454L151.788 19.8198H147.419L153.108 37.8404H157.402L162.333 24.3641L167.263 37.8404H171.558L177.247 19.8198H172.877H172.874Z" fill="white"/>
<path d="M198.773 19.8217H209.923C211.869 19.8126 213.618 20.3938 214.933 21.6492C217.688 24.2658 217.116 29.4861 213.773 31.3264L217.131 37.8441H212.392L209.85 32.4379H203.07V37.8441H198.775V19.8235L198.773 19.8217ZM203.07 23.7465V28.535H209.602C211.253 28.5732 212.27 27.6348 212.293 26.1152C212.28 24.4972 211.262 23.7337 209.602 23.7447H203.07V23.7465Z" fill="white"/>
<path d="M219.126 19.8198H223.446V33.7188H235.461V37.8404H219.126V19.8198Z" fill="white"/>
<path d="M186.919 19.6212C181.073 19.6212 177.05 23.2563 177.05 28.8301C177.05 34.404 181.073 38.0391 186.919 38.0391C192.764 38.0391 196.787 34.404 196.787 28.8301C196.787 23.2563 192.764 19.6212 186.919 19.6212ZM186.919 33.8191C183.63 33.8191 181.367 31.8494 181.367 28.8301C181.367 25.8109 183.63 23.8412 186.919 23.8412C190.207 23.8412 192.471 25.8109 192.471 28.8301C192.471 31.8494 190.207 33.8191 186.919 33.8191Z" fill="white"/>
<path d="M60.153 57.6048C48.5353 58.3209 38.4262 52.5612 33.0547 43.3013C51.2885 59.3831 87.2331 46.7013 85.5312 20.2426C91.1779 37.6072 78.4141 56.4805 60.1512 57.6048H60.153Z" fill="url(#paint3_linear_4061_1093218)"/>
<path d="M104.038 46.9018H109.796V48.5435H105.778V50.6134H109.796V52.2296H105.778V55.8428H104.038V46.8999V46.9018Z" fill="white"/>
<path d="M112.245 51.3732C112.245 48.8368 114.279 46.7797 116.815 46.7797C119.351 46.7797 121.408 48.8368 121.408 51.3732C121.408 53.9095 119.375 55.9667 116.815 55.9667C114.255 55.9667 112.245 53.9095 112.245 51.3732ZM119.668 51.3732C119.668 49.7807 118.431 48.4706 116.815 48.4706C115.199 48.4706 113.985 49.7807 113.985 51.3732C113.985 52.9657 115.21 54.2649 116.815 54.2649C118.42 54.2649 119.668 52.9548 119.668 51.3732Z" fill="white"/>
<path d="M123.883 52.4009V46.8999H125.647V52.4373C125.647 53.5397 126.357 54.2995 127.411 54.2995C128.464 54.2995 129.187 53.5397 129.187 52.4373V46.8999H130.951V52.4009C130.951 54.6311 129.53 55.9649 127.411 55.9649C125.292 55.9649 123.883 54.6293 123.883 52.4009Z" fill="white"/>
<path d="M133.733 46.9018H135.583L139.502 52.9894V46.9018H141.167V55.8446H139.453L135.41 49.5602V55.8446H133.731V46.9018H133.733Z" fill="white"/>
<path d="M143.999 46.9018H146.891C149.733 46.9018 151.559 48.8368 151.559 51.3732C151.559 53.9096 149.598 55.8446 146.929 55.8446H144.001V46.9018H143.999ZM145.737 48.507V54.2284H146.816C148.629 54.2284 149.804 52.9785 149.804 51.3732C149.804 49.7679 148.726 48.507 146.767 48.507H145.737Z" fill="white"/>
<path d="M156.309 46.9018H158.013L161.393 55.8446H159.616L159.028 54.2157H155.291L154.702 55.8446H152.926L156.307 46.9018H156.309ZM155.868 52.6469H158.454L157.167 49.0938L155.868 52.6469Z" fill="white"/>
<path d="M164.334 48.4943H161.846V46.9018H168.499V48.4943H166.037V55.8446H164.335V48.4943H164.334Z" fill="white"/>
<path d="M171.121 46.9018H172.872V55.8446H171.121V46.9018Z" fill="white"/>
<path d="M175.507 51.3732C175.507 48.8368 177.54 46.7797 180.077 46.7797C182.613 46.7797 184.67 48.8368 184.67 51.3732C184.67 53.9095 182.637 55.9667 180.077 55.9667C177.517 55.9667 175.507 53.9095 175.507 51.3732ZM182.93 51.3732C182.93 49.7807 181.693 48.4706 180.075 48.4706C178.457 48.4706 177.245 49.7807 177.245 51.3732C177.245 52.9657 178.47 54.2649 180.075 54.2649C181.68 54.2649 182.93 52.9548 182.93 51.3732Z" fill="white"/>
<path d="M187.23 46.9018H189.08L192.999 52.9894V46.9018H194.664V55.8446H192.95L188.906 49.5602V55.8446H187.228V46.9018H187.23Z" fill="white"/>
<defs>
<linearGradient id="paint0_linear_4061_1093218" x1="-0.575784" y1="40.59" x2="85.1997" y2="18.6974" gradientUnits="userSpaceOnUse">
<stop stop-color="#00E68C" stop-opacity="0.3"/>
<stop offset="0.06" stop-color="#00E68C" stop-opacity="0.1681"/>
<stop offset="0.19" stop-color="#00E68C" stop-opacity="0.3844"/>
<stop offset="0.31" stop-color="#00E68C" stop-opacity="0.6241"/>
<stop offset="0.42" stop-color="#00E68C" stop-opacity="0.81"/>
<stop offset="0.52" stop-color="#00E68C" stop-opacity="0.9409"/>
<stop offset="0.6" stop-color="#00E68C"/>
<stop offset="0.68" stop-color="#00E68C" stop-opacity="0.9801"/>
<stop offset="0.74" stop-color="#00E68C" stop-opacity="0.8836"/>
<stop offset="0.8" stop-color="#00E68C" stop-opacity="0.7569"/>
<stop offset="0.85" stop-color="#00E68C" stop-opacity="0.5929"/>
<stop offset="0.91" stop-color="#00E68C" stop-opacity="0.3969"/>
<stop offset="0.96" stop-color="#00E68C" stop-opacity="0.2209"/>
<stop offset="1" stop-color="#00E68C" stop-opacity="0.3"/>
</linearGradient>
<linearGradient id="paint1_linear_4061_1093218" x1="29.1847" y1="15.4103" x2="70.4972" y2="15.4103" gradientUnits="userSpaceOnUse">
<stop stop-color="#FF2261"/>
<stop offset="0.1" stop-color="#FF2261" stop-opacity="0.8649"/>
<stop offset="0.31" stop-color="#FF2261" stop-opacity="0.5476"/>
<stop offset="0.6" stop-color="#FF2261" stop-opacity="0.1849"/>
<stop offset="0.9" stop-color="#FF2261" stop-opacity="0.1"/>
</linearGradient>
<linearGradient id="paint2_linear_4061_1093218" x1="45.8332" y1="33.9612" x2="48.6356" y2="20.2699" gradientUnits="userSpaceOnUse">
<stop stop-color="#68022C"/>
<stop offset="0.15" stop-color="#68022C" stop-opacity="0.75"/>
<stop offset="0.22" stop-color="#68022C" stop-opacity="0.4096"/>
<stop offset="0.42" stop-color="#68022C" stop-opacity="0.1296"/>
<stop offset="0.62" stop-color="#68022C" stop-opacity="0.0256"/>
<stop offset="0.81" stop-color="#68022C" stop-opacity="0.01"/>
<stop offset="1" stop-color="#68022C" stop-opacity="0"/>
</linearGradient>
<linearGradient id="paint3_linear_4061_1093218" x1="36.0867" y1="52.1075" x2="90.0993" y2="33.5093" gradientUnits="userSpaceOnUse">
<stop stop-color="white" stop-opacity="0.1"/>
<stop offset="0.08" stop-color="white" stop-opacity="0.0576"/>
<stop offset="0.27" stop-color="white" stop-opacity="0.2916"/>
<stop offset="0.42" stop-color="white" stop-opacity="0.5776"/>
<stop offset="0.54" stop-color="white" stop-opacity="0.81"/>
<stop offset="0.6" stop-color="white" stop-opacity="0.95"/>
<stop offset="0.65" stop-color="white" stop-opacity="0.8281"/>
<stop offset="0.72" stop-color="white" stop-opacity="0.6724"/>
<stop offset="0.82" stop-color="white" stop-opacity="0.4356"/>
<stop offset="0.93" stop-color="white" stop-opacity="0.2025"/>
<stop offset="1" stop-color="white" stop-opacity="0.3"/>
</linearGradient>
</defs>
</svg>
