<svg width="30" height="32" viewBox="0 0 30 32" fill="none" xmlns="http://www.w3.org/2000/svg">
<rect width="29" height="32" transform="translate(0.5)" fill="white"/>
<path d="M7.5 27H24.5V28H7.5V27Z" fill="url(#paint0_linear_5486_52135)"/>
<path d="M24.475 19H25.5V10.641H24.2448C24.0539 10.6408 23.871 10.5732 23.7361 10.4531C23.6012 10.3329 23.5253 10.17 23.525 10H22.5C22.5005 10.412 22.6845 10.807 23.0116 11.0984C23.3387 11.3897 23.7821 11.5536 24.2447 11.5541H24.475L24.475 19Z" fill="url(#paint1_linear_5486_52135)"/>
<path d="M22.5 10H23.6045C23.6047 9.78128 23.6865 9.57159 23.8319 9.41693C23.9773 9.26227 24.1744 9.17528 24.38 9.17503H27.5V8H24.38C23.8816 8.00062 23.4037 8.21153 23.0513 8.58647C22.6988 8.96141 22.5006 9.46976 22.5 10Z" fill="url(#paint2_linear_5486_52135)"/>
<path d="M24.5 5H25.5V8H24.5V5Z" fill="url(#paint3_linear_5486_52135)"/>
<path d="M3.5 24H4.48076V5.79339C4.48154 5.30772 4.67862 4.84218 5.02876 4.49891C5.3789 4.15564 5.85351 3.96267 6.34847 3.96232H24.5193V5.40455H25.5V3H6.34843C5.59345 3.00063 4.86956 3.2951 4.33557 3.81879C3.80158 4.34248 3.5011 5.05262 3.50006 5.79343L3.5 24Z" fill="#0F0F19"/>
<path d="M6.15157 28H7.5V27.044H6.15157C5.69083 27.0437 5.24904 26.852 4.9231 26.511C4.59717 26.17 4.41371 25.7075 4.41298 25.2251V24H3.5V25.2251C3.50098 25.961 3.7807 26.6664 4.27779 27.1867C4.77489 27.7069 5.44877 27.9994 6.15157 28Z" fill="#0F0F19"/>
<path d="M24.475 27H25.5V21.7062H24.2448C24.0539 21.706 23.871 21.6315 23.7361 21.4991C23.6011 21.3667 23.5253 21.1872 23.525 21H22.5C22.5005 21.4539 22.6845 21.889 23.0116 22.21C23.3387 22.531 23.7821 22.7115 24.2447 22.712H24.475L24.475 27Z" fill="url(#paint4_linear_5486_52135)"/>
<path d="M22.5 21H23.6045C23.6047 20.7813 23.6865 20.5716 23.8319 20.4169C23.9773 20.2623 24.1744 20.1753 24.38 20.175H27.5V19H24.38C23.8816 19.0006 23.4037 19.2115 23.0513 19.5865C22.6988 19.9614 22.5006 20.4698 22.5 21Z" fill="url(#paint5_linear_5486_52135)"/>
<path d="M9.79569 6.4L11.8917 12H10.8037L10.2757 10.568H7.80369L7.27569 12H6.23569L8.32369 6.4H9.79569ZM9.06769 7.24H9.02769L8.11569 9.712H9.97169L9.06769 7.24ZM13.5894 9.624V12H12.6214V6.4H16.6134V7.248H13.5894V8.768H16.6134V9.624H13.5894ZM21.5215 11.152V12H17.5295V6.4H21.5215V7.248H18.4975V8.768H21.5215V9.624H18.4975V11.152H21.5215Z" fill="black"/>
<path d="M15.625 18.875H19.375V20.125H15.625V23.875H14.375V20.125H10.625V18.875H14.375V15.125H15.625V18.875Z" fill="#1D1B20"/>
<defs>
<linearGradient id="paint0_linear_5486_52135" x1="7.5" y1="27.5" x2="24.5" y2="27.5" gradientUnits="userSpaceOnUse">
<stop offset="0.1474" stop-color="#0F0F19"/>
<stop offset="0.477" stop-color="#0F0F19" stop-opacity="0.8057"/>
<stop offset="0.8609" stop-color="#0F0F19" stop-opacity="0.2414"/>
<stop offset="0.982" stop-color="#0F0F19" stop-opacity="0"/>
</linearGradient>
<linearGradient id="paint1_linear_5486_52135" x1="24" y1="10" x2="24" y2="19" gradientUnits="userSpaceOnUse">
<stop offset="0.1474" stop-color="#0F0F19"/>
<stop offset="0.5079" stop-color="#0F0F19" stop-opacity="0.7198"/>
<stop offset="1" stop-color="#0F0F19" stop-opacity="0"/>
</linearGradient>
<linearGradient id="paint2_linear_5486_52135" x1="22.5" y1="8.99999" x2="27.5" y2="8.99999" gradientUnits="userSpaceOnUse">
<stop offset="0.3119" stop-color="#0F0F19"/>
<stop offset="1" stop-color="#0F0F19" stop-opacity="0"/>
</linearGradient>
<linearGradient id="paint3_linear_5486_52135" x1="25" y1="5" x2="25" y2="8" gradientUnits="userSpaceOnUse">
<stop offset="0.1474" stop-color="#0F0F19"/>
<stop offset="0.5086" stop-color="#0F0F19" stop-opacity="0.8709"/>
<stop offset="0.8019" stop-color="#0F0F19" stop-opacity="0.4676"/>
<stop offset="1" stop-color="#0F0F19" stop-opacity="0"/>
</linearGradient>
<linearGradient id="paint4_linear_5486_52135" x1="24" y1="21" x2="24" y2="27" gradientUnits="userSpaceOnUse">
<stop offset="0.1474" stop-color="#0F0F19"/>
<stop offset="1" stop-color="#0F0F19" stop-opacity="0"/>
</linearGradient>
<linearGradient id="paint5_linear_5486_52135" x1="22.5" y1="20" x2="27.5" y2="20" gradientUnits="userSpaceOnUse">
<stop offset="0.3119" stop-color="#0F0F19"/>
<stop offset="1" stop-color="#0F0F19" stop-opacity="0"/>
</linearGradient>
</defs>
</svg>
