<svg width="80" height="81" viewBox="0 0 80 81" fill="none" xmlns="http://www.w3.org/2000/svg">
<path d="M19.5312 44.4401L32.1704 56.2852L61.3917 22.7969" stroke="#4AA359" stroke-width="2" stroke-linecap="square"/>
<path fill-rule="evenodd" clip-rule="evenodd" d="M3.78906 40.4671C3.78906 20.4693 20.0005 4.25781 39.9984 4.25781C59.9962 4.25781 76.2077 20.4693 76.2077 40.4671C76.2077 60.465 59.9962 76.6764 39.9984 76.6764C20.0005 76.6764 3.78906 60.465 3.78906 40.4671ZM39.9984 2.25781C18.8959 2.25781 1.78906 19.3647 1.78906 40.4671C1.78906 61.5695 18.8959 78.6764 39.9984 78.6764C61.1008 78.6764 78.2077 61.5695 78.2077 40.4671C78.2077 19.3647 61.1008 2.25781 39.9984 2.25781Z" fill="#4AA359"/>
</svg>
