<svg width="49" height="46" viewBox="0 0 49 46" fill="none" xmlns="http://www.w3.org/2000/svg">
<path d="M35.8186 36.2971C36.6725 35.0097 36.1155 33.234 34.7583 32.4436L21.7271 24.9051C22.2031 25.0563 22.7273 25.0844 23.2361 24.949C24.6817 24.5804 25.5201 23.1295 25.1243 21.694L23.0184 14.0637C22.5899 12.4994 21.5461 11.1601 20.1236 10.3414L14.1558 6.88901L9.60993 14.7113L12.3844 16.3134L15.0221 25.8583C15.2946 26.86 15.9632 27.7219 16.8732 28.2413L32.2247 37.1162C32.8715 37.4912 33.6089 37.5695 34.2722 37.4074C34.8791 37.2431 35.4525 36.863 35.8186 36.2971Z" fill="white"/>
<path d="M35.2393 37.1343C35.1027 36.7978 34.7039 36.6333 34.378 36.7648C34.2185 36.828 34.0878 36.9574 34.0223 37.1152C33.9569 37.2729 33.9584 37.4468 34.0178 37.6106C34.0482 37.6647 34.0732 37.7119 34.1106 37.7608C34.2867 37.9916 34.6075 38.0826 34.8861 37.975C35.2243 37.8453 35.3828 37.4657 35.2393 37.1343Z" fill="#505050"/>
<path d="M33.0776 36.8332C32.9084 36.7833 32.7408 36.7213 32.5835 36.6297L17.239 27.7497C16.4932 27.3167 15.9313 26.5946 15.7044 25.7671L13.0613 16.2152C13.0212 16.0481 12.9021 15.9064 12.7572 15.8167L10.5535 14.5473L14.4498 7.85035L19.8398 10.9752C21.1051 11.7023 22.0404 12.9139 22.4305 14.2989L24.5364 21.9292C24.7544 22.7305 24.4768 23.57 23.8129 24.0608C23.6103 24.2106 23.3686 24.3236 23.1089 24.3843C22.7826 24.4723 22.4379 24.4646 22.1101 24.3788C21.9398 24.1985 21.808 24.0116 21.7022 23.7726C21.6628 23.6923 21.6358 23.6139 21.605 23.5163L19.2109 17.3131C19.0866 16.9784 18.6895 16.8017 18.3652 16.9211C18.0217 17.0438 17.8509 17.4215 17.9751 17.7563L20.3439 23.8689C20.382 24.0048 20.4324 24.1425 20.4952 24.282C20.6047 24.5401 20.7421 24.7776 20.9129 25.0013C21.0356 25.1622 21.1846 25.3145 21.3353 25.4547C21.3583 25.4705 21.3882 25.4811 21.4112 25.4969C21.4289 25.5058 21.4326 25.5249 21.4502 25.5337L34.4868 33.0793C34.7431 33.2289 34.9734 33.4305 35.1548 33.6682C35.6884 34.3675 35.7629 35.253 35.3626 35.9317C35.1841 36.2277 35.2914 36.6405 35.606 36.8236C35.7509 36.9133 35.9358 36.9407 36.1043 36.9037C36.2674 36.8597 36.4142 36.7512 36.5096 36.6041C37.1732 35.4683 37.0568 34.0123 36.2031 32.8934C35.9096 32.5088 35.55 32.195 35.1364 31.9538L23.9466 25.4822C24.1866 25.3813 24.4106 25.2595 24.6133 25.1097C25.7035 24.3039 26.1733 22.9285 25.8066 21.6028L23.7007 13.9725C23.2234 12.2583 22.0585 10.746 20.4894 9.84975L15.0924 6.73009L15.6902 5.70861C15.8634 5.4056 15.749 4.99794 15.4398 4.82185L12.5787 3.16349C12.2995 2.99805 11.9518 3.05814 11.7499 3.29487L2.40056 14.1756C2.25951 14.3346 2.21744 14.5516 2.27028 14.7641C2.29733 14.8425 2.33671 14.9228 2.38473 14.9857C2.46477 15.0906 2.56742 15.1678 2.68736 15.2104L8.33369 17.2818C8.63353 17.3882 8.9701 17.2707 9.12602 17.0023L9.89861 15.6657L11.862 16.8064L14.4289 26.0865C14.5833 26.6614 14.8446 27.19 15.2074 27.6656C15.5809 28.1551 16.0469 28.5652 16.5894 28.8751L31.9339 37.7551C32.1848 37.8978 32.4584 38.0128 32.7439 38.0861C33.0947 38.1877 33.4551 37.9869 33.547 37.6346C33.6426 37.3015 33.4231 36.9278 33.0776 36.8332ZM4.02822 14.3177L12.408 4.55836L14.2141 5.60758L13.6233 6.62389C13.6233 6.62389 9.0688 14.4635 9.07414 14.4705L8.25465 15.8747L4.02822 14.3177Z" fill="#505050"/>
</svg>
