<svg width="110" height="210" viewBox="0 0 110 210" fill="none" xmlns="http://www.w3.org/2000/svg">
<path d="M74.0504 209.36H30.1704V119.36H0.94043V75.5302H30.1704V51.3702C29.4451 44.6831 30.1833 37.9183 32.3338 31.545C34.4842 25.1717 37.9955 19.3426 42.624 14.462C47.2525 9.58141 52.8874 5.76619 59.1377 3.28102C65.3881 0.795858 72.1043 -0.299758 78.8204 0.0701932C87.9473 0.0412877 97.0686 0.52874 106.14 1.5302L109.62 2.0102V41.5302H87.2204C75.9604 41.5302 74.0504 45.6602 74.0504 54.9202V75.5302H107.05L101.59 119.35H74.0504V209.36ZM38.2204 201.31H66.0004V111.31H94.5204L98.0004 83.5902H66.0004V54.9202C66.0004 44.9202 68.4204 33.4802 87.2204 33.4802H101.57V9.1202C96.6404 8.6602 88.1704 8.1202 78.8204 8.1202C73.17 7.78447 67.5148 8.69558 62.2557 10.789C56.9966 12.8823 52.2622 16.1068 48.3881 20.2337C44.514 24.3607 41.595 29.2892 39.8379 34.67C38.0808 40.0508 37.5286 45.7522 38.2204 51.3702V83.5802H9.00043V111.3H38.2404L38.2204 201.31Z" fill="url(#paint0_linear_62953_1175642)"/>
<defs>
<linearGradient id="paint0_linear_62953_1175642" x1="55.2804" y1="0.000193469" x2="55.2804" y2="209.36" gradientUnits="userSpaceOnUse">
<stop stop-color="#F5F3F5"/>
<stop offset="1" stop-color="#F5F3F5" stop-opacity="0"/>
</linearGradient>
</defs>
</svg>
