<svg width="53" height="51" viewBox="0 0 53 51" fill="none" xmlns="http://www.w3.org/2000/svg">
<g clip-path="url(#clip0_67035_2056)">
<mask id="mask0_67035_2056" style="mask-type:luminance" maskUnits="userSpaceOnUse" x="-14" y="-5" width="84" height="61">
<path d="M-13.6515 -4.78125H69.8636V55.7812H-13.6515V-4.78125Z" fill="white"/>
</mask>
<g mask="url(#mask0_67035_2056)">
<path d="M14.8322 45.1812H44.519V46.8208H14.8322V45.1812Z" fill="url(#paint0_linear_67035_2056)"/>
<path d="M44.4841 32.5988H46.2233V17.5868H44.0934C43.7696 17.5866 43.4593 17.4652 43.2304 17.2492C43.0014 17.0334 42.8727 16.7408 42.8722 16.4355H41.1331C41.1339 17.1755 41.4461 17.885 42.0011 18.4082C42.556 18.9314 43.3085 19.2258 44.0934 19.2267H44.4841V32.5988Z" fill="url(#paint1_linear_67035_2056)"/>
<path d="M41.1268 16.436H42.8659C42.8664 16.1309 42.9951 15.8381 43.224 15.6223C43.4529 15.4066 43.7633 15.2852 44.0871 15.2847H49V13.645H44.0871C43.3022 13.646 42.5497 13.9403 41.9947 14.4635C41.4398 14.9867 41.1275 15.696 41.1268 16.436Z" fill="url(#paint2_linear_67035_2056)"/>
<path d="M44.4842 8.27612H46.2233V13.6762H44.4842V8.27612Z" fill="url(#paint3_linear_67035_2056)"/>
<path d="M7.20673 39.9605H8.94609V8.93877C8.94746 8.11125 9.29698 7.31804 9.91806 6.73314C10.5389 6.14825 11.3807 5.81946 12.2584 5.81888H44.4842V8.27623H46.2233V4.1792H12.2584C10.9194 4.18027 9.63563 4.682 8.68859 5.5743C7.74157 6.4666 7.20869 7.6766 7.20682 8.93884L7.20673 39.9605Z" fill="#0F0F19"/>
<path d="M12.2678 46.821H14.8366V45.1813H12.2678C11.39 45.1809 10.5483 44.852 9.92741 44.267C9.3064 43.6823 8.95691 42.8891 8.95549 42.0616V39.9602H7.21613V42.0616C7.21799 43.3237 7.7509 44.5338 8.69794 45.4261C9.64501 46.3185 10.9287 46.8201 12.2678 46.821Z" fill="#0F0F19"/>
<path d="M44.4841 45.1615H46.2233V36.5316H44.0934C43.7696 36.5314 43.4593 36.41 43.2304 36.194C43.0014 35.9783 42.8727 35.6856 42.8722 35.3804H41.1331C41.1339 36.1203 41.4461 36.8298 42.0011 37.353C42.556 37.8763 43.3085 38.1706 44.0934 38.1713H44.4841V45.1615Z" fill="url(#paint4_linear_67035_2056)"/>
<path d="M41.1268 35.3808H42.8659C42.8664 35.0755 42.9951 34.7829 43.224 34.5671C43.4529 34.3514 43.7633 34.23 44.0871 34.2295H49V32.5898H44.0871C43.3022 32.5906 42.5497 32.8849 41.9947 33.4083C41.4398 33.9316 41.1275 34.6408 41.1268 35.3808Z" fill="url(#paint5_linear_67035_2056)"/>
<path d="M16.1482 9.93262V13.338H15.555V9.93262H16.1482ZM16.2997 17.2298L17.5841 20.6352H16.9174L16.5939 19.7644H15.079L14.7555 20.6352H14.1182L15.3977 17.2298H16.2997ZM15.8536 17.7406H15.8291L15.2702 19.2438H16.4076L15.8536 17.7406ZM15.9646 27.981H15.8225C15.3063 27.981 14.932 27.8562 14.6998 27.6064C14.4711 27.3535 14.3567 26.9545 14.3567 26.4097V26.0497C14.3567 25.5048 14.4711 25.1076 14.6998 24.8578C14.932 24.6048 15.3063 24.4784 15.8225 24.4784H15.9646C16.3897 24.4784 16.7132 24.5676 16.9353 24.7459C17.1608 24.9242 17.3128 25.2032 17.3912 25.5827H16.7784C16.7262 25.3849 16.6314 25.2404 16.4941 25.1497C16.3603 25.059 16.174 25.0135 15.9352 25.0135H15.8568C15.5104 25.0135 15.2734 25.1028 15.1459 25.2811C15.0219 25.4593 14.9597 25.7366 14.9597 26.1129V26.3464C14.9597 26.7227 15.0219 27 15.1459 27.1783C15.2734 27.3566 15.5104 27.4459 15.8568 27.4459H15.9352C16.174 27.4459 16.3603 27.4004 16.4941 27.3097C16.6314 27.2189 16.7262 27.0745 16.7784 26.8767H17.3912C17.3128 27.2562 17.1608 27.5352 16.9353 27.7135C16.7132 27.8917 16.3897 27.981 15.9646 27.981ZM16.2997 31.8242L17.5841 35.2296H16.9174L16.5939 34.3588H15.079L14.7555 35.2296H14.1182L15.3977 31.8242H16.2997ZM15.8536 32.335H15.8291L15.2702 33.8382H16.4076L15.8536 32.335ZM17.355 40.6976V40.9554C17.355 41.4971 17.2307 41.8943 16.9824 42.1473C16.7373 42.4003 16.3549 42.5268 15.8352 42.5268H14.4037V39.1214H15.8352C16.3549 39.1214 16.7373 39.2496 16.9824 39.5057C17.2307 39.7587 17.355 40.1559 17.355 40.6976ZM15.8254 39.6371H14.9969V42.0111H15.8254C16.1686 42.0111 16.4071 41.9187 16.5409 41.7338C16.6784 41.5458 16.7471 41.2651 16.7471 40.8922V40.756C16.7471 40.3797 16.6799 40.0992 16.5461 39.9144C16.412 39.7295 16.1718 39.6371 15.8254 39.6371Z" fill="black"/>
</g>
</g>
<defs>
<linearGradient id="paint0_linear_67035_2056" x1="14.8322" y1="46.0011" x2="44.519" y2="46.0011" gradientUnits="userSpaceOnUse">
<stop offset="0.1474" stop-color="#0F0F19"/>
<stop offset="0.477" stop-color="#0F0F19" stop-opacity="0.8057"/>
<stop offset="0.8609" stop-color="#0F0F19" stop-opacity="0.2414"/>
<stop offset="0.982" stop-color="#0F0F19" stop-opacity="0"/>
</linearGradient>
<linearGradient id="paint1_linear_67035_2056" x1="43.6782" y1="16.4355" x2="43.6782" y2="32.5988" gradientUnits="userSpaceOnUse">
<stop offset="0.1474" stop-color="#0F0F19"/>
<stop offset="0.5079" stop-color="#0F0F19" stop-opacity="0.7198"/>
<stop offset="1" stop-color="#0F0F19" stop-opacity="0"/>
</linearGradient>
<linearGradient id="paint2_linear_67035_2056" x1="41.1268" y1="15.0405" x2="49" y2="15.0405" gradientUnits="userSpaceOnUse">
<stop offset="0.3119" stop-color="#0F0F19"/>
<stop offset="1" stop-color="#0F0F19" stop-opacity="0"/>
</linearGradient>
<linearGradient id="paint3_linear_67035_2056" x1="45.3539" y1="8.27612" x2="45.3539" y2="13.6762" gradientUnits="userSpaceOnUse">
<stop offset="0.1474" stop-color="#0F0F19"/>
<stop offset="0.5086" stop-color="#0F0F19" stop-opacity="0.8709"/>
<stop offset="0.8019" stop-color="#0F0F19" stop-opacity="0.4676"/>
<stop offset="1" stop-color="#0F0F19" stop-opacity="0"/>
</linearGradient>
<linearGradient id="paint4_linear_67035_2056" x1="43.6782" y1="35.3804" x2="43.6782" y2="45.1618" gradientUnits="userSpaceOnUse">
<stop offset="0.1474" stop-color="#0F0F19"/>
<stop offset="1" stop-color="#0F0F19" stop-opacity="0"/>
</linearGradient>
<linearGradient id="paint5_linear_67035_2056" x1="41.1268" y1="33.9853" x2="49" y2="33.9853" gradientUnits="userSpaceOnUse">
<stop offset="0.3119" stop-color="#0F0F19"/>
<stop offset="1" stop-color="#0F0F19" stop-opacity="0"/>
</linearGradient>
<clipPath id="clip0_67035_2056">
<rect width="53" height="51" fill="white"/>
</clipPath>
</defs>
</svg>
