<svg width="48" height="48" viewBox="0 0 48 48" fill="none" xmlns="http://www.w3.org/2000/svg">
<g clip-path="url(#clip0_67035_2013)">
<mask id="mask0_67035_2013" style="mask-type:luminance" maskUnits="userSpaceOnUse" x="-14" y="-5" width="79" height="58">
<path d="M-13.5 -4.5H64.5V52.5H-13.5V-4.5Z" fill="white"/>
</mask>
<g mask="url(#mask0_67035_2013)">
<path d="M7.92297 42.9312H38.7682V44.648H7.92297V42.9312Z" fill="url(#paint0_linear_67035_2013)"/>
<path d="M38.7322 29.7568H40.5391V14.0384H38.3262C37.9897 14.0382 37.6673 13.9111 37.4294 13.6849C37.1916 13.459 37.0579 13.1526 37.0574 12.833H35.2504C35.2511 13.6078 35.5756 14.3507 36.1522 14.8985C36.7288 15.4463 37.5107 15.7545 38.3262 15.7555H38.7322V29.7568Z" fill="url(#paint1_linear_67035_2013)"/>
<path d="M35.2438 12.8336H37.0508C37.0513 12.5142 37.185 12.2076 37.4229 11.9817C37.6608 11.7558 37.9832 11.6287 38.3197 11.6282H43.4243V9.91138H38.3197C37.5042 9.9124 36.7223 10.2206 36.1457 10.7684C35.5691 11.3162 35.2446 12.0589 35.2438 12.8336Z" fill="url(#paint2_linear_67035_2013)"/>
<path d="M38.7322 4.28979H40.5392V9.9439H38.7322V4.28979Z" fill="url(#paint3_linear_67035_2013)"/>
<path d="M0 37.4647H1.80724V4.9835C1.80866 4.11704 2.17182 3.28652 2.81703 2.6741C3.46222 2.06169 4.33683 1.71744 5.24885 1.71682H38.7321V4.28979H40.5391V0H5.24885C3.85759 0.00112061 2.52369 0.526456 1.53969 1.46074C0.555719 2.39502 0.00203761 3.66195 0.000102012 4.98358L0 37.4647Z" fill="#0F0F19"/>
<path d="M5.25857 44.6482H7.92766V42.9314H5.25857C4.34655 42.9309 3.47199 42.5866 2.8268 41.974C2.18161 41.3618 1.81848 40.5313 1.817 39.6648V37.4646H0.00976562V39.6648C0.0117012 40.9864 0.56541 42.2534 1.54941 43.1876C2.53343 44.122 3.86736 44.6472 5.25857 44.6482Z" fill="#0F0F19"/>
<path d="M38.7322 42.9105H40.5391V33.8746H38.3262C37.9897 33.8744 37.6673 33.7473 37.4294 33.5211C37.1916 33.2952 37.0579 32.9888 37.0574 32.6692H35.2504C35.2511 33.4439 35.5756 34.1868 36.1522 34.7347C36.7288 35.2825 37.5107 35.5907 38.3262 35.5914H38.7322V42.9105Z" fill="url(#paint4_linear_67035_2013)"/>
<path d="M35.2438 32.6698H37.0508C37.0513 32.3502 37.185 32.0438 37.4229 31.8179C37.6608 31.592 37.9832 31.4649 38.3197 31.4644H43.4243V29.7476H38.3197C37.5042 29.7483 36.7223 30.0565 36.1457 30.6046C35.5691 31.1524 35.2446 31.8951 35.2438 32.6698Z" fill="url(#paint5_linear_67035_2013)"/>
<path d="M9.29044 6.02441V9.58999H8.67411V6.02441H9.29044ZM9.44784 13.6649L10.7824 17.2305H10.0896L9.75346 16.3187H8.17951L7.84333 17.2305H7.18115L8.5106 13.6649H9.44784ZM8.98431 14.1998H8.95885L8.37817 15.7737H9.5599L8.98431 14.1998ZM9.09969 24.922H8.95197C8.41561 24.922 8.0267 24.7913 7.78552 24.5297C7.5479 24.2649 7.42896 23.8472 7.42896 23.2767V22.8998C7.42896 22.3293 7.5479 21.9134 7.78552 21.6518C8.0267 21.3869 8.41561 21.2545 8.95197 21.2545H9.09969C9.54131 21.2545 9.87749 21.348 10.1082 21.5347C10.3425 21.7213 10.5004 22.0135 10.5819 22.4108H9.94524C9.89099 22.2037 9.79243 22.0524 9.6498 21.9574C9.51075 21.8624 9.31718 21.8148 9.06912 21.8148H8.98763C8.62776 21.8148 8.38148 21.9083 8.24904 22.095C8.12017 22.2816 8.05548 22.572 8.05548 22.966V23.2105C8.05548 23.6045 8.12017 23.8948 8.24904 24.0815C8.38148 24.2682 8.62776 24.3616 8.98763 24.3616H9.06912C9.31718 24.3616 9.51075 24.314 9.6498 24.219C9.79243 24.124 9.89099 23.9727 9.94524 23.7657H10.5819C10.5004 24.163 10.3425 24.4551 10.1082 24.6418C9.87749 24.8285 9.54131 24.922 9.09969 24.922ZM9.44784 28.946L10.7824 32.5115H10.0896L9.75346 31.5998H8.17951L7.84333 32.5115H7.18115L8.5106 28.946H9.44784ZM8.98431 29.4808H8.95885L8.37817 31.0547H9.5599L8.98431 29.4808ZM10.5443 38.2368V38.5068C10.5443 39.074 10.4151 39.4899 10.1571 39.7547C9.90245 40.0196 9.50514 40.152 8.96521 40.152H7.47786V36.5865H8.96521C9.50514 36.5865 9.90245 36.7207 10.1571 36.9889C10.4151 37.2537 10.5443 37.6696 10.5443 38.2368ZM8.95502 37.1264H8.0942V39.6121H8.95502C9.31158 39.6121 9.55939 39.5153 9.69845 39.3218C9.84133 39.1249 9.91264 38.831 9.91264 38.4406V38.2979C9.91264 37.904 9.84285 37.6103 9.7038 37.4167C9.56448 37.2232 9.31489 37.1264 8.95502 37.1264Z" fill="black"/>
<path d="M16.6229 23.8143L21.2367 27.4176L31.9039 17.2302" stroke="url(#paint6_linear_67035_2013)" stroke-linecap="square"/>
</g>
</g>
<defs>
<linearGradient id="paint0_linear_67035_2013" x1="7.92297" y1="43.7897" x2="38.7682" y2="43.7897" gradientUnits="userSpaceOnUse">
<stop offset="0.1474" stop-color="#0F0F19"/>
<stop offset="0.477" stop-color="#0F0F19" stop-opacity="0.8057"/>
<stop offset="0.8609" stop-color="#0F0F19" stop-opacity="0.2414"/>
<stop offset="0.982" stop-color="#0F0F19" stop-opacity="0"/>
</linearGradient>
<linearGradient id="paint1_linear_67035_2013" x1="37.8948" y1="12.833" x2="37.8948" y2="29.7568" gradientUnits="userSpaceOnUse">
<stop offset="0.1474" stop-color="#0F0F19"/>
<stop offset="0.5079" stop-color="#0F0F19" stop-opacity="0.7198"/>
<stop offset="1" stop-color="#0F0F19" stop-opacity="0"/>
</linearGradient>
<linearGradient id="paint2_linear_67035_2013" x1="35.2438" y1="11.3725" x2="43.4243" y2="11.3725" gradientUnits="userSpaceOnUse">
<stop offset="0.3119" stop-color="#0F0F19"/>
<stop offset="1" stop-color="#0F0F19" stop-opacity="0"/>
</linearGradient>
<linearGradient id="paint3_linear_67035_2013" x1="39.6358" y1="4.28979" x2="39.6358" y2="9.9439" gradientUnits="userSpaceOnUse">
<stop offset="0.1474" stop-color="#0F0F19"/>
<stop offset="0.5086" stop-color="#0F0F19" stop-opacity="0.8709"/>
<stop offset="0.8019" stop-color="#0F0F19" stop-opacity="0.4676"/>
<stop offset="1" stop-color="#0F0F19" stop-opacity="0"/>
</linearGradient>
<linearGradient id="paint4_linear_67035_2013" x1="37.8948" y1="32.6692" x2="37.8948" y2="42.9108" gradientUnits="userSpaceOnUse">
<stop offset="0.1474" stop-color="#0F0F19"/>
<stop offset="1" stop-color="#0F0F19" stop-opacity="0"/>
</linearGradient>
<linearGradient id="paint5_linear_67035_2013" x1="35.2438" y1="31.2087" x2="43.4243" y2="31.2087" gradientUnits="userSpaceOnUse">
<stop offset="0.3119" stop-color="#0F0F19"/>
<stop offset="1" stop-color="#0F0F19" stop-opacity="0"/>
</linearGradient>
<linearGradient id="paint6_linear_67035_2013" x1="17.6136" y1="24.4569" x2="31.0782" y2="15.0387" gradientUnits="userSpaceOnUse">
<stop stop-color="#0F0F19"/>
<stop offset="0.677083" stop-color="#0F0F19"/>
<stop offset="1" stop-color="#0F0F19" stop-opacity="0"/>
</linearGradient>
<clipPath id="clip0_67035_2013">
<rect width="48" height="48" fill="white"/>
</clipPath>
</defs>
</svg>
