<svg width="206" height="206" viewBox="0 0 206 206" fill="none" xmlns="http://www.w3.org/2000/svg">
<path d="M55.0001 205.84C40.4409 205.819 26.4841 200.026 16.1891 189.731C5.89423 179.436 0.10124 165.479 0.0800781 150.92V54.92C0.10124 40.3608 5.89423 26.404 16.1891 16.1091C26.4841 5.81416 40.4409 0.0211616 55.0001 0H151C165.564 0.00530084 179.53 5.7932 189.829 16.0916C200.127 26.3899 205.915 40.3559 205.92 54.92V150.92C205.899 165.479 200.106 179.436 189.811 189.731C179.516 200.026 165.559 205.819 151 205.84H55.0001ZM55.0001 8.64999C42.7284 8.65264 30.96 13.528 22.2816 22.2045C13.6033 30.8809 8.72538 42.6483 8.72008 54.92V150.92C8.72273 163.192 13.5998 174.961 22.2787 183.638C30.9576 192.315 42.7276 197.19 55.0001 197.19H151C163.27 197.185 175.036 192.308 183.712 183.632C192.388 174.956 197.265 163.19 197.27 150.92V54.92C197.265 42.6501 192.388 30.8842 183.712 22.208C175.036 13.5319 163.27 8.65529 151 8.64999H55.0001Z" fill="url(#paint0_linear_62953_1175655)"/>
<path d="M103 158.381C92.0311 158.381 81.3085 155.128 72.1881 149.034C63.0678 142.94 55.9593 134.279 51.7617 124.145C47.5641 114.011 46.4658 102.859 48.6057 92.1013C50.7457 81.3431 56.0277 71.461 63.7839 63.7048C71.5401 55.9486 81.4222 50.6665 92.1804 48.5266C102.939 46.3867 114.09 47.485 124.224 51.6826C134.358 55.8802 143.019 62.9887 149.113 72.109C155.207 81.2294 158.46 91.952 158.46 102.921C158.439 117.623 152.589 131.718 142.193 142.114C131.797 152.51 117.702 158.36 103 158.381ZM103 56.111C93.7419 56.111 84.6917 58.8563 76.9938 63.9999C69.2959 69.1434 63.2962 76.4541 59.7533 85.0076C56.2103 93.561 55.2833 102.973 57.0895 112.053C58.8957 121.133 63.3539 129.474 69.9004 136.021C76.4469 142.567 84.7876 147.025 93.8679 148.832C102.948 150.638 112.36 149.711 120.913 146.168C129.467 142.625 136.778 136.625 141.921 128.927C147.065 121.229 149.81 112.179 149.81 102.921C149.797 90.5102 144.861 78.6116 136.085 69.8359C127.309 61.0602 115.411 56.1242 103 56.111Z" fill="url(#paint1_linear_62953_1175655)"/>
<path d="M161.64 57.3391C158.652 57.3391 155.73 56.453 153.246 54.7926C150.761 53.1323 148.824 50.7725 147.68 48.0115C146.537 45.2505 146.238 42.2124 146.821 39.2813C147.404 36.3503 148.843 33.6579 150.956 31.5448C153.069 29.4316 155.761 27.9925 158.692 27.4095C161.624 26.8265 164.662 27.1257 167.423 28.2693C170.184 29.413 172.543 31.3496 174.204 33.8345C175.864 36.3193 176.75 39.2407 176.75 42.2291C176.748 46.2357 175.155 50.0775 172.322 52.9106C169.489 55.7437 165.647 57.3365 161.64 57.3391ZM161.64 35.7691C160.363 35.7691 159.114 36.148 158.051 36.8578C156.989 37.5677 156.161 38.5766 155.672 39.757C155.183 40.9374 155.055 42.2363 155.304 43.4894C155.554 44.7425 156.169 45.8936 157.072 46.7971C157.976 47.7005 159.127 48.3158 160.38 48.565C161.633 48.8143 162.932 48.6863 164.112 48.1974C165.293 47.7085 166.302 46.8805 167.012 45.8181C167.721 44.7558 168.1 43.5068 168.1 42.2291C168.1 40.5158 167.42 38.8727 166.208 37.6612C164.997 36.4498 163.354 35.7691 161.64 35.7691Z" fill="url(#paint2_linear_62953_1175655)"/>
<defs>
<linearGradient id="paint0_linear_62953_1175655" x1="103" y1="0" x2="103" y2="205.84" gradientUnits="userSpaceOnUse">
<stop stop-color="#F5F3F5"/>
<stop offset="1" stop-color="#F5F3F5" stop-opacity="0"/>
</linearGradient>
<linearGradient id="paint1_linear_62953_1175655" x1="103" y1="47.461" x2="103" y2="158.381" gradientUnits="userSpaceOnUse">
<stop stop-color="#F5F3F5"/>
<stop offset="1" stop-color="#F5F3F5" stop-opacity="0"/>
</linearGradient>
<linearGradient id="paint2_linear_62953_1175655" x1="161.64" y1="27.1191" x2="161.64" y2="57.3391" gradientUnits="userSpaceOnUse">
<stop stop-color="#F5F3F5"/>
<stop offset="1" stop-color="#F5F3F5" stop-opacity="0"/>
</linearGradient>
</defs>
</svg>
