<svg width="213" height="210" viewBox="0 0 213 210" fill="none" xmlns="http://www.w3.org/2000/svg">
<path d="M56.4195 209.431H3.22949V65.5508H56.4195V209.431ZM11.2695 201.431H48.3595V73.6008H11.2695V201.431Z" fill="url(#paint0_linear_62953_1175630)"/>
<path d="M29.8296 55.0601H29.5296C22.2919 55.4921 15.1791 53.0314 9.75558 48.2192C4.33212 43.4071 1.04223 36.6378 0.609573 29.4001C0.609573 28.7901 0.55957 28.1701 0.55957 27.5601C0.57137 23.9291 1.29824 20.3359 2.6987 16.9858C4.09916 13.6356 6.14576 10.5942 8.72166 8.03497C11.2976 5.47578 14.3523 3.44901 17.7115 2.0704C21.0707 0.691782 24.6685 -0.0116913 28.2996 0.000146962C28.9096 0.000146962 29.5196 0.000144523 30.1196 0.0601445C37.3211 -0.236322 44.3522 2.30019 49.7058 7.126C55.0594 11.9518 58.3095 18.6829 58.7594 25.8764C59.2094 33.07 56.8233 40.1536 52.1127 45.6089C47.4021 51.0641 40.7419 54.457 33.5596 55.0601C32.3175 55.1402 31.0716 55.1402 29.8296 55.0601ZM30.1196 8.06014C24.9273 7.57297 19.7541 9.16657 15.7359 12.4909C11.7178 15.8153 9.1835 20.5986 8.68958 25.7902C8.63958 26.3602 8.60957 26.9301 8.60957 27.5101C8.56695 32.6404 10.5635 37.5776 14.1602 41.2362C17.7569 44.8948 22.6593 46.9753 27.7896 47.0202C28.3696 47.0202 28.9496 47.0002 29.5296 46.9602H29.8296C35.0218 47.4473 40.1951 45.8537 44.2132 42.5294C48.2313 39.205 50.7657 34.4217 51.2596 29.2301C51.3096 28.6501 51.3396 28.0801 51.3396 27.5101C51.3593 24.9643 50.8773 22.4394 49.921 20.0799C48.9646 17.7204 47.5527 15.5725 45.766 13.7588C43.9792 11.9451 41.8527 10.5013 39.5077 9.50976C37.1628 8.51824 34.6455 7.99846 32.0996 7.98014C31.4377 7.98846 30.7768 8.03186 30.1196 8.11015V8.06014Z" fill="url(#paint1_linear_62953_1175630)"/>
<path d="M219.219 209.431H165.999V132.721C165.999 114.721 159.829 106.031 147.149 106.031C142.866 106.089 138.704 107.464 135.228 109.968C131.752 112.472 129.131 115.986 127.719 120.031C126.752 123.106 126.346 126.331 126.519 129.55V209.431H73.3394V205.381C73.3394 204.151 73.9294 82.2505 73.3394 69.7605L73.1494 65.5405H126.529V77.3405C131.181 72.3214 136.873 68.3787 143.207 65.7878C149.54 63.1969 156.364 62.0204 163.199 62.3405C170.647 62.0599 178.07 63.3592 184.98 66.1531C191.89 68.947 198.13 73.1721 203.289 78.5505C214.617 92.2546 220.305 109.755 219.199 127.501L219.219 209.431ZM174.079 201.431H211.169V127.521C211.169 91.2205 193.689 70.4105 163.219 70.4105C155.66 70.0694 148.156 71.8567 141.562 75.5692C134.968 79.2816 129.548 84.7702 125.919 91.4105L118.499 103.021V73.6005H81.4994C81.8594 95.8705 81.4994 181.361 81.4094 201.381H118.499V129.55C118.296 125.292 118.903 121.033 120.289 117.001C122.266 111.448 125.911 106.642 130.725 103.241C135.538 99.8399 141.285 98.0095 147.179 98.0005C157.229 98.0005 174.079 102.521 174.079 132.751V201.431Z" fill="url(#paint2_linear_62953_1175630)"/>
<defs>
<linearGradient id="paint0_linear_62953_1175630" x1="29.8195" y1="65.5508" x2="29.8195" y2="209.431" gradientUnits="userSpaceOnUse">
<stop offset="0.24" stop-color="#F5F3F5"/>
<stop offset="1" stop-color="#F5F3F5" stop-opacity="0"/>
</linearGradient>
<linearGradient id="paint1_linear_62953_1175630" x1="29.9796" y1="0.070147" x2="29.9796" y2="55.0601" gradientUnits="userSpaceOnUse">
<stop offset="0.24" stop-color="#F5F3F5"/>
<stop offset="1" stop-color="#F5F3F5" stop-opacity="0"/>
</linearGradient>
<linearGradient id="paint2_linear_62953_1175630" x1="146.259" y1="62.3205" x2="146.259" y2="209.441" gradientUnits="userSpaceOnUse">
<stop stop-color="#F5F3F5"/>
<stop offset="1" stop-color="#F5F3F5" stop-opacity="0"/>
</linearGradient>
</defs>
</svg>
