<svg width="68" height="92" viewBox="0 0 68 92" fill="none" xmlns="http://www.w3.org/2000/svg">
<g clip-path="url(#clip0_67035_2085)">
<path d="M33.7792 49.0084C30.7424 49.0084 27.7739 48.0178 25.249 46.1621C22.7239 44.3064 20.7561 41.6685 19.5938 38.5823C18.4318 35.4961 18.1274 32.1001 18.7201 28.8238C19.3125 25.5477 20.7748 22.5382 22.9219 20.1761C25.0694 17.8141 27.8052 16.2055 30.7836 15.5538C33.762 14.9021 36.8494 15.2366 39.6549 16.5149C42.4604 17.7932 44.8584 19.958 46.5456 22.7354C48.233 25.5129 49.1333 28.7784 49.1333 32.1188C49.1287 36.5967 47.5095 40.8894 44.6312 44.0558C41.7526 47.2221 37.8502 49.0032 33.7792 49.0084ZM33.7792 19.1284C31.4435 19.1283 29.1603 19.8902 27.2183 21.3175C25.276 22.7449 23.7624 24.7738 22.8685 27.1475C21.9746 29.5212 21.7409 32.133 22.1966 34.6529C22.652 37.1728 23.7769 39.4876 25.4284 41.3043C27.0802 43.1213 29.1843 44.3586 31.4751 44.8597C33.766 45.3609 36.1403 45.1035 38.2985 44.1206C40.4564 43.1373 42.3007 41.4723 43.5985 39.3359C44.8959 37.1995 45.5887 34.6882 45.5887 32.1188C45.585 28.6749 44.3398 25.3729 42.1257 22.9376C39.9119 20.5022 36.9102 19.1323 33.7792 19.1284Z" fill="url(#paint0_linear_67035_2085)"/>
<path d="M33.7792 92L32.3558 90.1563C32.2091 89.9662 17.5369 70.908 5.23927 50.7037C1.90963 45.2337 0 38.7693 0 32.9681C0 24.1914 3.55885 15.774 9.89367 9.56781C16.2284 3.36159 24.8203 -0.125 33.7792 -0.125C42.738 -0.125 51.3299 3.36159 57.6647 9.56781C63.9995 15.774 67.5583 24.1914 67.5583 32.9681C67.5583 38.7689 65.6486 45.2334 62.3189 50.7037C50.0214 70.908 35.349 89.9662 35.2025 90.1563L33.7792 92ZM33.7801 3.37216C25.7704 3.38063 18.0915 6.50146 12.4275 12.05C6.76369 17.5984 3.5777 25.1215 3.56855 32.9685C3.56855 38.1572 5.29448 43.9691 8.30418 48.9134C18.2687 65.2841 29.8117 80.9051 33.7792 86.1734C37.747 80.9051 49.2896 65.2841 59.2539 48.9131C62.2636 43.9685 63.9897 38.1569 63.9897 32.9681C63.9808 25.1216 60.7951 17.5989 55.1316 12.0505C49.4681 6.50204 41.7894 3.38103 33.7801 3.37216Z" fill="url(#paint1_linear_67035_2085)"/>
</g>
<defs>
<linearGradient id="paint0_linear_67035_2085" x1="33.7792" y1="15.2293" x2="33.7792" y2="49.0084" gradientUnits="userSpaceOnUse">
<stop offset="0.1845" stop-color="#0F0F19"/>
<stop offset="0.6819" stop-color="#0F0F19" stop-opacity="0.4529"/>
<stop offset="1" stop-color="#0F0F19" stop-opacity="0"/>
</linearGradient>
<linearGradient id="paint1_linear_67035_2085" x1="33.7792" y1="-0.123895" x2="33.7792" y2="92" gradientUnits="userSpaceOnUse">
<stop offset="0.1845" stop-color="#0F0F19"/>
<stop offset="0.6819" stop-color="#0F0F19" stop-opacity="0.4529"/>
<stop offset="1" stop-color="#0F0F19" stop-opacity="0"/>
</linearGradient>
<clipPath id="clip0_67035_2085">
<rect width="68" height="92" fill="white"/>
</clipPath>
</defs>
</svg>
