<svg width="20" height="28" viewBox="0 0 20 28" fill="none" xmlns="http://www.w3.org/2000/svg">
<path d="M20 28H0V5.69382L5.5698 0H20V28ZM1.05207 26.9235H18.9479V1.07651H6.00534L1.05207 6.14003V26.9235Z" fill="url(#paint0_linear_2279_131541)"/>
<path d="M4.82256 5.37891H1.14258V6.45542H4.82256V5.37891Z" fill="url(#paint1_linear_2279_131541)"/>
<path d="M6.31393 6.45557H4.82324V5.37907H5.26186V5.11426H6.31393V6.45557Z" fill="#0F0F19"/>
<path d="M6.3138 1.07324H5.26172V5.11442H6.3138V1.07324Z" fill="url(#paint2_linear_2279_131541)"/>
<path d="M16.8407 15.6123H3.1582V16.6888H16.8407V15.6123Z" fill="url(#paint3_linear_2279_131541)"/>
<path d="M16.8407 19.1172H3.1582V20.1937H16.8407V19.1172Z" fill="url(#paint4_linear_2279_131541)"/>
<path d="M16.8407 22.624H3.1582V23.7005H16.8407V22.624Z" fill="url(#paint5_linear_2279_131541)"/>
<path d="M12.6308 7.52989C12.1831 7.52988 11.7455 7.39404 11.3732 7.13953C11.001 6.88502 10.7108 6.52327 10.5395 6.10003C10.3682 5.6768 10.3233 5.21108 10.4107 4.76178C10.498 4.31248 10.7136 3.89977 11.0302 3.57585C11.3468 3.25192 11.7501 3.03133 12.1892 2.94196C12.6284 2.8526 13.0835 2.89847 13.4971 3.07379C13.9107 3.2491 14.2643 3.54598 14.513 3.92688C14.7617 4.30779 14.8945 4.75561 14.8945 5.21371C14.8938 5.82779 14.6551 6.41652 14.2307 6.85073C13.8063 7.28495 13.231 7.52919 12.6308 7.52989ZM12.6308 3.97399C12.3912 3.97399 12.157 4.0467 11.9577 4.18292C11.7585 4.31914 11.6032 4.51275 11.5115 4.73928C11.4198 4.9658 11.3958 5.21505 11.4426 5.45553C11.4893 5.696 11.6047 5.91689 11.7741 6.09026C11.9436 6.26363 12.1595 6.3817 12.3945 6.42954C12.6295 6.47737 12.8731 6.45283 13.0945 6.359C13.3159 6.26518 13.5051 6.10629 13.6382 5.90243C13.7713 5.69857 13.8424 5.45889 13.8424 5.21371C13.842 4.88503 13.7143 4.56992 13.4871 4.3375C13.26 4.10509 12.952 3.97436 12.6308 3.97399Z" fill="url(#paint6_linear_2279_131541)"/>
<path d="M15.9994 13.2564H14.9474V11.5176C14.9468 11.0335 14.7587 10.5694 14.4242 10.2271C14.0897 9.88487 13.6362 9.69232 13.1631 9.69176H12.0972C11.6241 9.6923 11.1705 9.88483 10.836 10.2271C10.5015 10.5694 10.3133 11.0335 10.3128 11.5176V13.2564H9.26074V11.5176C9.2616 10.7481 9.56072 10.0104 10.0925 9.46628C10.6242 8.92218 11.3452 8.61611 12.0972 8.61523H13.1631C13.9151 8.61612 14.636 8.92218 15.1678 9.46628C15.6995 10.0104 15.9986 10.7481 15.9995 11.5176L15.9994 13.2564Z" fill="url(#paint7_linear_2279_131541)"/>
<defs>
<linearGradient id="paint0_linear_2279_131541" x1="10" y1="-1.21364e-05" x2="10" y2="28" gradientUnits="userSpaceOnUse">
<stop offset="0.2941" stop-color="#0F0F19"/>
<stop offset="0.7247" stop-color="#0F0F19" stop-opacity="0.4529"/>
<stop offset="1" stop-color="#0F0F19" stop-opacity="0"/>
</linearGradient>
<linearGradient id="paint1_linear_2279_131541" x1="4.82255" y1="5.91717" x2="1.14258" y2="5.91717" gradientUnits="userSpaceOnUse">
<stop stop-color="#0F0F19"/>
<stop offset="0.61" stop-color="#0F0F19" stop-opacity="0.4529"/>
<stop offset="1" stop-color="#0F0F19" stop-opacity="0"/>
</linearGradient>
<linearGradient id="paint2_linear_2279_131541" x1="5.78775" y1="5.11442" x2="5.78775" y2="1.07324" gradientUnits="userSpaceOnUse">
<stop stop-color="#0F0F19"/>
<stop offset="0.61" stop-color="#0F0F19" stop-opacity="0.4529"/>
<stop offset="1" stop-color="#0F0F19" stop-opacity="0"/>
</linearGradient>
<linearGradient id="paint3_linear_2279_131541" x1="3.1582" y1="16.1506" x2="16.8407" y2="16.1506" gradientUnits="userSpaceOnUse">
<stop stop-color="#0F0F19"/>
<stop offset="0.61" stop-color="#0F0F19" stop-opacity="0.4529"/>
<stop offset="1" stop-color="#0F0F19" stop-opacity="0"/>
</linearGradient>
<linearGradient id="paint4_linear_2279_131541" x1="3.1582" y1="19.6555" x2="16.8407" y2="19.6555" gradientUnits="userSpaceOnUse">
<stop stop-color="#0F0F19"/>
<stop offset="0.61" stop-color="#0F0F19" stop-opacity="0.4529"/>
<stop offset="1" stop-color="#0F0F19" stop-opacity="0"/>
</linearGradient>
<linearGradient id="paint5_linear_2279_131541" x1="3.1582" y1="23.1623" x2="16.8407" y2="23.1623" gradientUnits="userSpaceOnUse">
<stop stop-color="#0F0F19"/>
<stop offset="0.61" stop-color="#0F0F19" stop-opacity="0.4529"/>
<stop offset="1" stop-color="#0F0F19" stop-opacity="0"/>
</linearGradient>
<linearGradient id="paint6_linear_2279_131541" x1="12.6308" y1="7.52989" x2="12.6308" y2="2.89747" gradientUnits="userSpaceOnUse">
<stop stop-color="#0F0F19" stop-opacity="0"/>
<stop offset="0.1526" stop-color="#0F0F19" stop-opacity="0.3372"/>
<stop offset="0.4818" stop-color="#0F0F19" stop-opacity="0.8333"/>
<stop offset="0.8" stop-color="#0F0F19"/>
</linearGradient>
<linearGradient id="paint7_linear_2279_131541" x1="12.6301" y1="8.61523" x2="12.6301" y2="13.2564" gradientUnits="userSpaceOnUse">
<stop offset="0.1477" stop-color="#0F0F19"/>
<stop offset="0.5414" stop-color="#0F0F19" stop-opacity="0.8928"/>
<stop offset="0.7977" stop-color="#0F0F19" stop-opacity="0.5431"/>
<stop offset="1" stop-color="#0F0F19" stop-opacity="0"/>
</linearGradient>
</defs>
</svg>
