<svg width="36" height="46" viewBox="0 0 36 46" fill="none" xmlns="http://www.w3.org/2000/svg">
<g clip-path="url(#clip0_1146_269377)">
<path d="M10.6399 2.875H3.05182C1.65356 2.875 0.522461 4.16066 0.522461 5.75V14.375C0.522461 15.9643 1.65356 17.25 3.05182 17.25C4.45007 17.25 5.58117 15.9643 5.58117 14.375V8.625H10.6399C12.0381 8.625 13.1692 7.33934 13.1692 5.75C13.1692 4.16066 12.0389 2.875 10.6399 2.875ZM33.4041 2.875H25.816C24.4177 2.875 23.2866 4.16066 23.2866 5.75C23.2866 7.33934 24.4177 8.625 25.816 8.625H30.8747V14.375C30.8747 15.9643 32.0058 17.25 33.4041 17.25C34.8023 17.25 35.9334 15.9643 35.9334 14.375V5.75C35.9334 4.16066 34.8031 2.875 33.4041 2.875ZM10.6399 37.375H5.58117V31.625C5.58117 30.0357 4.45007 28.75 3.05182 28.75C1.65356 28.75 0.522461 30.0357 0.522461 31.625V40.25C0.522461 41.8393 1.65356 43.125 3.05182 43.125H10.6399C12.0381 43.125 13.1692 41.8393 13.1692 40.25C13.1692 38.6607 12.0389 37.375 10.6399 37.375ZM33.4041 28.75C32.0058 28.75 30.8747 30.0357 30.8747 31.625V37.375H25.816C24.4177 37.375 23.2866 38.6607 23.2866 40.25C23.2866 41.8393 24.4177 43.125 25.816 43.125H33.4041C34.8023 43.125 35.9334 41.8393 35.9334 40.25V31.625C35.9334 30.0348 34.8031 28.75 33.4041 28.75Z" fill="black"/>
</g>
<defs>
<clipPath id="clip0_1146_269377">
<rect width="35.411" height="46" fill="white" transform="translate(0.522461)"/>
</clipPath>
</defs>
</svg>
