<svg width="728" height="535" viewBox="0 0 728 535" fill="none" xmlns="http://www.w3.org/2000/svg">
<path d="M395.94 182.632C358.87 196.242 317.53 197.972 279.35 188.552C247.72 181.302 218.74 166.392 188.67 155.892C140.94 138.982 116.92 155.972 85.87 191.512C98.24 161.262 124.9 126.642 178.35 130.922C213.64 133.742 245.91 144.012 271.63 147.542C392.6 164.162 479.23 96.0024 477.6 24.4624C483.79 60.0724 487.39 143.902 395.94 182.642V182.632Z" fill="url(#paint0_linear_3205_413266)"/>
<path d="M373.81 275.752C318.2 279.172 269.8 251.612 244.1 207.282C331.39 284.262 503.44 223.552 495.3 96.9023C522.33 180.022 461.23 270.362 373.81 275.752Z" fill="url(#paint1_linear_3205_413266)"/>
<path d="M44.64 362.303H0V448.563H44.64C73.28 448.563 89.54 427.793 89.54 405.433C89.54 383.073 73.71 362.303 44.64 362.303ZM44.59 429.423H20.57V381.453H44.59C60.23 381.453 68.75 393.003 68.75 405.443C68.75 417.883 60 429.433 44.59 429.433V429.423Z" fill="#0F0F19"/>
<path d="M682.46 362.303H637.82V448.563H682.46C711.1 448.563 727.36 427.793 727.36 405.433C727.36 383.073 711.53 362.303 682.46 362.303ZM682.41 429.423H658.39V381.453H682.41C698.05 381.453 706.57 393.003 706.57 405.443C706.57 417.883 697.82 429.433 682.41 429.433V429.423Z" fill="#0F0F19"/>
<path d="M98.5 362.303H149.27C167.97 362.303 182.63 375.513 182.63 394.443C182.63 413.373 167.98 426.943 149.16 426.943C130.34 426.943 119.19 426.943 119.19 426.943V448.573H98.51V362.313L98.5 362.303ZM119.18 380.973V407.803H148.21C166.22 407.923 166.13 380.913 148.21 380.983H119.18V380.973Z" fill="#0F0F19"/>
<path d="M329.45 362.303L311.47 415.073L292.07 362.303H265.89L246.49 415.073L228.51 362.303H207.59L234.82 448.563H255.38L278.98 384.053L302.58 448.563H323.14L350.37 362.303H329.45Z" fill="#0F0F19"/>
<path d="M453.43 362.302H506.8C516.11 362.252 524.49 365.042 530.79 371.052C543.98 383.572 541.24 408.572 525.24 417.372L541.31 448.572H518.62L506.45 422.692H473.99V448.572H453.43V362.312V362.302ZM474 381.092V404.012H505.27C513.17 404.192 518.04 399.702 518.15 392.432C518.09 384.692 513.21 381.032 505.27 381.092H474Z" fill="#0F0F19"/>
<path d="M550.86 362.303H571.54V428.833H629.06V448.563H550.86V362.303Z" fill="#0F0F19"/>
<path d="M396.69 361.353C368.71 361.353 349.45 378.753 349.45 405.443C349.45 432.133 368.71 449.533 396.69 449.533C424.67 449.533 443.93 432.133 443.93 405.443C443.93 378.753 424.67 361.353 396.69 361.353ZM396.69 429.312C380.95 429.312 370.12 419.882 370.12 405.432C370.12 390.982 380.96 381.553 396.69 381.553C412.43 381.553 423.27 390.982 423.27 405.432C423.27 419.882 412.43 429.312 396.69 429.312Z" fill="#0F0F19"/>
<path d="M271.64 147.533C268.33 66.7925 341 0.422496 423.34 13.6825C331.17 -30.0475 225.83 36.2825 225.58 138.312C242.43 141.862 257.97 145.653 271.64 147.533Z" fill="url(#paint2_linear_3205_413266)"/>
<path style="mix-blend-mode:multiply" opacity="0.5" d="M271.64 147.533C268.33 66.7925 341 0.422496 423.34 13.6825C331.17 -30.0475 225.83 36.2825 225.58 138.312C242.43 141.862 257.97 145.653 271.64 147.533Z" fill="url(#paint3_linear_3205_413266)"/>
<path d="M149.28 491.572H176.66V499.382H157.55V509.232H176.66V516.922H157.55V534.112H149.28V491.582V491.572Z" fill="#010000"/>
<path d="M188.31 512.832C188.31 500.772 197.98 490.982 210.04 490.982C222.1 490.982 231.89 500.772 231.89 512.832C231.89 524.892 222.22 534.682 210.04 534.682C197.86 534.682 188.31 524.892 188.31 512.832ZM223.62 512.832C223.62 505.262 217.74 499.022 210.05 499.022C202.36 499.022 196.59 505.252 196.59 512.832C196.59 520.412 202.42 526.582 210.05 526.582C217.68 526.582 223.62 520.352 223.62 512.832Z" fill="#010000"/>
<path d="M243.65 517.732V491.572H252.04V517.902C252.04 523.142 255.42 526.752 260.43 526.752C265.44 526.752 268.88 523.142 268.88 517.902V491.572H277.27V517.732C277.27 528.332 270.51 534.682 260.43 534.682C250.35 534.682 243.65 528.332 243.65 517.732Z" fill="#010000"/>
<path d="M290.49 491.572H299.29L317.93 520.522V491.572H325.85V534.102H317.69L298.46 504.212V534.102H290.48V491.572H290.49Z" fill="#010000"/>
<path d="M339.31 491.573H353.06C366.58 491.573 375.26 500.783 375.26 512.833C375.26 524.883 365.94 534.093 353.24 534.093H339.32V491.562L339.31 491.573ZM347.58 499.203V526.413H352.71C361.33 526.413 366.92 520.473 366.92 512.843C366.92 505.213 361.79 499.213 352.47 499.213H347.58V499.203Z" fill="#010000"/>
<path d="M397.85 491.572H405.95L422.03 534.102H413.58L410.78 526.352H393.01L390.21 534.102H381.76L397.84 491.572H397.85ZM395.76 518.892H408.05L401.93 501.992L395.75 518.892H395.76Z" fill="#010000"/>
<path d="M436.01 499.142H424.18V491.572H455.81V499.142H444.1V534.102H436V499.142H436.01Z" fill="#010000"/>
<path d="M468.28 491.572H476.61V534.102H468.28V491.572Z" fill="#010000"/>
<path d="M489.13 512.832C489.13 500.772 498.8 490.982 510.86 490.982C522.92 490.982 532.71 500.772 532.71 512.832C532.71 524.892 523.04 534.682 510.86 534.682C498.68 534.682 489.13 524.892 489.13 512.832ZM524.44 512.832C524.44 505.262 518.56 499.022 510.87 499.022C503.18 499.022 497.41 505.252 497.41 512.832C497.41 520.412 503.24 526.582 510.87 526.582C518.5 526.582 524.44 520.352 524.44 512.832Z" fill="#010000"/>
<path d="M544.88 491.572H553.68L572.32 520.522V491.572H580.24V534.102H572.08L552.85 504.212V534.102H544.87V491.572H544.88Z" fill="#010000"/>
<defs>
<linearGradient id="paint0_linear_3205_413266" x1="83.11" y1="194.302" x2="493.72" y2="89.5124" gradientUnits="userSpaceOnUse">
<stop stop-color="#00E68C" stop-opacity="0.3"/>
<stop offset="0.06" stop-color="#00E68C" stop-opacity="0.1681"/>
<stop offset="0.19" stop-color="#00E68C" stop-opacity="0.3844"/>
<stop offset="0.31" stop-color="#00E68C" stop-opacity="0.6241"/>
<stop offset="0.42" stop-color="#00E68C" stop-opacity="0.81"/>
<stop offset="0.52" stop-color="#00E68C" stop-opacity="0.9409"/>
<stop offset="0.6" stop-color="#00E68C"/>
<stop offset="0.68" stop-color="#00E68C" stop-opacity="0.9801"/>
<stop offset="0.74" stop-color="#00E68C" stop-opacity="0.8836"/>
<stop offset="0.8" stop-color="#00E68C" stop-opacity="0.7569"/>
<stop offset="0.85" stop-color="#00E68C" stop-opacity="0.5929"/>
<stop offset="0.91" stop-color="#00E68C" stop-opacity="0.3969"/>
<stop offset="0.96" stop-color="#00E68C" stop-opacity="0.2209"/>
<stop offset="1" stop-color="#00E68C" stop-opacity="0.3"/>
</linearGradient>
<linearGradient id="paint1_linear_3205_413266" x1="258.62" y1="249.432" x2="517.17" y2="160.402" gradientUnits="userSpaceOnUse">
<stop stop-color="#0F0F19" stop-opacity="0.1"/>
<stop offset="0.2" stop-color="#0F0F19" stop-opacity="0.1849"/>
<stop offset="0.6" stop-color="#0F0F19" stop-opacity="0.95"/>
<stop offset="0.86" stop-color="#0F0F19" stop-opacity="0.3481"/>
<stop offset="1" stop-color="#0F0F19" stop-opacity="0.3"/>
</linearGradient>
<linearGradient id="paint2_linear_3205_413266" x1="225.57" y1="73.7625" x2="423.34" y2="73.7625" gradientUnits="userSpaceOnUse">
<stop stop-color="#FF2261"/>
<stop offset="0.1" stop-color="#FF2261" stop-opacity="0.8649"/>
<stop offset="0.31" stop-color="#FF2261" stop-opacity="0.5476"/>
<stop offset="0.6" stop-color="#FF2261" stop-opacity="0.1849"/>
<stop offset="0.9" stop-color="#FF2261" stop-opacity="0.1"/>
</linearGradient>
<linearGradient id="paint3_linear_3205_413266" x1="305.27" y1="162.573" x2="318.68" y2="97.0325" gradientUnits="userSpaceOnUse">
<stop stop-color="#68022C"/>
<stop offset="0.15" stop-color="#68022C" stop-opacity="0.75"/>
<stop offset="0.22" stop-color="#68022C" stop-opacity="0.4096"/>
<stop offset="0.42" stop-color="#68022C" stop-opacity="0.1296"/>
<stop offset="0.62" stop-color="#68022C" stop-opacity="0.0256"/>
<stop offset="0.81" stop-color="#68022C" stop-opacity="0.01"/>
<stop offset="1" stop-color="#68022C" stop-opacity="0"/>
</linearGradient>
</defs>
</svg>
